SplineFontDB: 3.0
FontName: Radley
FullName: Radley
FamilyName: Radley
Weight: Normal
Copyright: Copyright (c) 2011 by vernon adams. All rights reserved.
Version: 1.000;PS 001.001;hotconv 1.0.56
FONDName: Radley
ItalicAngle: 0
UnderlinePosition: -307
UnderlineWidth: 102
Ascent: 1638
Descent: 410
UFOAscent: 1376
UFODescent: -378
LayerCount: 2
Layer: 0 0 "Back"  1
Layer: 1 0 "Fore"  0
FSType: 0
OS2Version: 0
OS2_WeightWidthSlopeOnly: 0
OS2_UseTypoMetrics: 0
CreationTime: 1340269726
ModificationTime: 1340270412
PfmFamily: 17
TTFWeight: 400
TTFWidth: 1
LineGap: 0
VLineGap: 0
Panose: 2 0 5 3 0 0 0 2 0 3
OS2TypoAscent: 1973
OS2TypoAOffset: 0
OS2TypoDescent: -615
OS2TypoDOffset: 0
OS2TypoLinegap: 0
OS2WinAscent: 1973
OS2WinAOffset: 0
OS2WinDescent: 615
OS2WinDOffset: 0
HheadAscent: 1973
HheadAOffset: 0
HheadDescent: -615
HheadDOffset: 0
OS2SubXSize: 1331
OS2SubYSize: 1228
OS2SubXOff: 0
OS2SubYOff: 153
OS2SupXSize: 1331
OS2SupYSize: 1228
OS2SupXOff: 0
OS2SupYOff: 716
OS2StrikeYSize: 102
OS2StrikeYPos: 539
OS2Vendor: 'newt'
OS2CodePages: 20000093.00000000
OS2UnicodeRanges: 00000007.00000000.00000000.00000000
Lookup: 258 0 0 "'kern' Horizontal Kerning in Latin lookup 0"  {"'kern' Horizontal Kerning in Latin lookup 0 subtable"  } ['kern' ('latn' <'dflt' > ) ]
MarkAttachClasses: 1
DEI: 91125
LangName: 1033 "" "" "" "vernonadams: Radley: 2011" "" "Version 1.000;PS 001.001;hotconv 1.0.56" "" "Radley is a trademark of vernon adams." "vernon adams" "vernon adams" "Copyright (c) 2010 by vernon adams. All rights reserved." "" "http://www.newtypography.co.uk" "" "http://scripts.sil.org/OFL" "" "" "" "Radley" 
PickledData: "(dp1
S'com.typemytype.robofont.compileSettings.autohint'
p2
I01
sS'com.typemytype.robofont.compileSettings.decompose'
p3
I01
sS'com.typemytype.robofont.foreground.layerStrokeColor'
p4
(F0.5
F0
F0.5
F0.69999999999999996
tp5
sS'com.typemytype.robofont.guides'
p6
((dp7
S'angle'
p8
I0
sS'name'
p9
NsS'magnetic'
p10
I5
sS'isGlobal'
p11
I1
sS'y'
I1327
sS'x'
I889
stp12

StartChar: A
Encoding: 65 65 1
Width: 1376
VWidth: 0
Flags: HW
LayerCount: 2
Fore
SplineSet
471 57 m 1
 471 0 l 1
 -1 0 l 1
 -1 52 l 1
 53 97 118 85 159 163 c 0
 177 198 190 236 205 273 c 2
 579 1231 l 2
 589 1258 579 1299 598 1324 c 1
 659 1324 704 1315 754 1277 c 1
 1213 176 l 2
 1250 86 1314 90 1386 52 c 1
 1384 0 l 1
 802 0 l 1
 800 52 l 1
 860 70 968 101 968 180 c 0
 968 227 869 472 847 532 c 1
 396 532 l 1
 376 477 280 253 280 175 c 0
 280 89.8492 399.486 72.0556 471 57 c 1
430 620 m 1
 810 620 l 1
 613 1112 l 1
 430 620 l 1
EndSplineSet
EndChar

StartChar: AE
Encoding: 198 198 2
Width: 1966
VWidth: 0
Flags: HW
LayerCount: 2
Fore
SplineSet
502 685 m 1
 831 685 l 1
 745 1130 l 1
 502 685 l 1
1415 638 m 1
 1060 638 l 1
 1142 256 l 1
 1165 167 1176 93 1233 78 c 0
 1263 70 1297 71 1341 70 c 1
 1471 73 l 1
 1545 73 1599 78 1653 101 c 1
 1750 124 1749 256 1835 325 c 1
 1851 325 1868 324 1889 322 c 1
 1833 -20 l 1
 1805 -21 1778 -22 1754 -22 c 0
 1731 -22 1726 0 1692 0 c 2
 735 0 l 1
 735 26 l 2
 735 35 735 44 736 52 c 1
 825 73 917 102 917 193 c 0
 917 208 912 223 912 241 c 1
 845 609 l 1
 461 609 l 1
 323 358 l 2
 289 297 245 237 245 178 c 0
 245 86 351 83 438 55 c 1
 438 45 436 35 435 25 c 2
 433 0 l 1
 -47 0 l 1
 -47 9 -48 17 -48 25 c 0
 -48 34 -47 43 -46 52 c 1
 7 81 92 98 144 192 c 0
 293 463 443 733 591 1006 c 0
 622 1064 636 1112 636 1148 c 0
 636 1182 624 1207 601 1224 c 1
 631 1283 641 1309 656 1324 c 1
 705 1324 757 1324 808 1305 c 1
 1546 1305 l 2
 1572 1305 1582 1311 1603 1323 c 1
 1628 1323 1653 1322 1685 1320 c 1
 1741 997 l 1
 1724 996 1707 995 1690 995 c 1
 1608 1048 1595 1183 1508 1207 c 1
 1420 1226 1332 1231 1224 1231 c 2
 1124 1231 l 2
 1049 1231 986 1226 928 1209 c 1
 963 1046 1006 881 1045 719 c 1
 1308 719 l 2
 1362 719 1410 722 1452 729 c 1
 1515 744 1525 835 1540 893 c 1
 1556 893 1573 892 1594 891 c 1
 1689 466 l 1
 1669 465 1650 464 1631 464 c 1
 1565 548 1497 636 1415 638 c 1
EndSplineSet
EndChar

StartChar: B
Encoding: 66 66 12
Width: 1386
VWidth: 0
Flags: HW
LayerCount: 2
Fore
SplineSet
499 1227 m 1
 499 730 l 1
 518 713 553 700 579 700 c 2
 712 700 l 2
 880 700 1032 749 1032 943 c 0
 1032 1223 754 1227 545 1227 c 2
 499 1227 l 1
524 630 m 1
 499 608 499 572 499 542 c 2
 499 274 l 2
 499 205 518 87 609 87 c 2
 771 87 l 2
 922 87 1047 177 1047 336 c 0
 1047 627 736 630 524 630 c 1
284 221 m 2
 284 1023 l 2
 284 1236 223 1188 68 1251 c 1
 70 1302 l 1
 638 1302 l 2
 871 1302 1231 1292 1231 975 c 0
 1231 771 1042 698 870 669 c 1
 1058 660 1297 574 1297 349 c 0
 1297 81 1009 0 790 0 c 2
 70 0 l 1
 68 52 l 1
 163 80 284 95 284 221 c 2
EndSplineSet
EndChar

StartChar: C
Encoding: 67 67 13
Width: 1426
VWidth: 0
Flags: HW
PickledData: "(dp1
S'com.typemytype.robofont.guides'
p2
(tsS'com.typemytype.robofont.layerData'
p3
(dp4
S'b'
(dp5
S'name'
p6
S'C'
sS'lib'
p7
(dp8
sS'unicodes'
p9
(tsS'width'
p10
I1426
sS'contours'
p11
(tsS'components'
p12
(tsS'anchors'
p13
(tsss."
LayerCount: 2
Fore
SplineSet
1280 1245 m 1
 1321 943 l 1
 1274 941 l 1
 1235 980 1198 1075 1156 1117 c 0
 1064 1209 952 1250 836 1250 c 0
 581 1250 346 1048 346 680 c 0
 346 315 555 81 878 81 c 0
 1056 81 1204 155 1283 304 c 1
 1332 297 l 1
 1323 108 l 1
 1176 26 968 -26 806 -26 c 0
 415 -26 112 225 112 640 c 0
 112 1022 405 1327 864 1327 c 0
 999 1327 1136 1301 1280 1245 c 1
EndSplineSet
EndChar

StartChar: D
Encoding: 68 68 19
Width: 1604
VWidth: 0
Flags: HW
LayerCount: 2
Fore
SplineSet
292 219 m 2
 292 1010 l 2
 292 1053 288 1094 282 1131 c 0
 267 1212 140 1226 68 1251 c 1
 70 1302 l 1
 662 1302 l 2
 1138 1302 1512 1130 1512 658 c 0
 1512 321 1267 0 789 0 c 2
 70 0 l 1
 68 52 l 1
 165 81 292 81 292 219 c 2
675 1225 m 2
 507 1225 l 1
 507 271 l 2
 507 166 540 85 655 80 c 0
 692 78 733 77 770 77 c 0
 1116 77 1274 352 1274 609 c 0
 1274 954 1094 1225 675 1225 c 2
EndSplineSet
EndChar

StartChar: DZcaron
Encoding: 452 452 20
Width: 2892
VWidth: 0
Flags: HW
LayerCount: 2
Fore
SplineSet
292 219 m 2
 292 1010 l 2
 292 1053 288 1094 282 1131 c 0
 267 1212 140 1226 68 1251 c 1
 70 1302 l 1
 662 1302 l 2
 1138 1302 1512 1130 1512 658 c 0
 1512 321 1267 0 789 0 c 2
 70 0 l 1
 68 52 l 1
 165 81 292 81 292 219 c 2
675 1225 m 2
 507 1225 l 1
 507 271 l 2
 507 166 540 85 655 80 c 0
 692 78 733 77 770 77 c 0
 1116 77 1274 352 1274 609 c 0
 1274 954 1094 1225 675 1225 c 2
2816 357 m 1
 2756 -10 l 1
 2715 -10 l 2
 2666 -10 2618 0 2571 0 c 2
 1674 0 l 1
 1670 43 l 1
 2450 1119 l 2
 2461 1134 2524 1225 2524 1225 c 1
 2128 1225 l 2
 2017 1225 1935 1224 1873 1112 c 0
 1847 1065 1824 1016 1793 972 c 1
 1775 972 1758 973 1740 975 c 1
 1767 1307 l 1
 1799 1307 l 2
 2127 1307 2456 1302 2785 1302 c 1
 2797 1297 2798 1283 2798 1272 c 2
 2797 1245 l 1
 2032 198 l 2
 2006 162 1981 127 1958 89 c 1
 1987 80 2017 74 2048 74 c 2
 2187 74 l 2
 2294 74 2403 76 2507 92 c 0
 2586 104 2617 134 2654 203 c 0
 2683 257 2717 315 2760 359 c 1
 2816 357 l 1
2328 1449 m 1
 2283 1437 2237 1429 2191 1429 c 1
 2133 1477 1997 1738 1966 1815 c 1
 1973 1826 1990 1828 2002 1828 c 1
 2074 1791 2199 1638 2256 1577 c 1
 2313 1646 2413 1782 2485 1828 c 1
 2497 1828 2514 1826 2521 1815 c 1
 2470 1688 2394 1568 2328 1449 c 1
EndSplineSet
EndChar

StartChar: Dzcaron
Encoding: 453 453 23
Width: 2499
VWidth: 0
Flags: HW
LayerCount: 2
Fore
SplineSet
292 219 m 2
 292 1010 l 2
 292 1053 288 1094 282 1131 c 0
 267 1212 140 1226 68 1251 c 1
 70 1302 l 1
 662 1302 l 2
 1138 1302 1512 1130 1512 658 c 0
 1512 321 1267 0 789 0 c 2
 70 0 l 1
 68 52 l 1
 165 81 292 81 292 219 c 2
675 1225 m 2
 507 1225 l 1
 507 271 l 2
 507 166 540 85 655 80 c 0
 692 78 733 77 770 77 c 0
 1116 77 1274 352 1274 609 c 0
 1274 954 1094 1225 675 1225 c 2
2430 840 m 1
 1885 60 l 1
 2079 60 l 2
 2144 60 2199 71 2250 86 c 0
 2327 109 2349 232 2396 279 c 1
 2413 279 2430 277 2447 277 c 1
 2418 -11 l 1
 2418 -11 2293 0 2259 0 c 2
 1651 0 l 1
 1637 33 l 1
 2214 838 l 1
 2045 838 l 2
 2001 838 1958 838 1920 829 c 1
 1830 818 1794 707 1731 662 c 1
 1686 664 l 1
 1707 925 l 1
 1776 899 1832 899 1874 899 c 2
 2375 899 l 1
 2394 898 2429 895 2430 895 c 1
 2430 840 l 1
2126 1048 m 1
 2081 1036 2035 1028 1989 1028 c 1
 1931 1076 1795 1337 1764 1414 c 1
 1771 1425 1788 1427 1800 1427 c 1
 1872 1390 1997 1237 2054 1176 c 1
 2111 1245 2211 1381 2283 1427 c 1
 2295 1427 2312 1425 2319 1414 c 1
 2268 1287 2192 1167 2126 1048 c 1
EndSplineSet
EndChar

StartChar: E
Encoding: 69 69 24
Width: 1386
VWidth: 0
Flags: HW
LayerCount: 2
Fore
SplineSet
1246 342 m 1
 1309 342 l 1
 1243 -9 l 1
 1232 -11 1222 -12 1211 -12 c 0
 1172 -12 1135 0 1096 0 c 2
 70 0 l 1
 68 49 l 1
 212 128 281 26 281 267 c 2
 281 1024 l 2
 281 1225 223 1190 68 1251 c 1
 70 1302 l 1
 1090 1302 l 2
 1126 1302 1162 1312 1198 1312 c 0
 1210 1312 1223 1311 1235 1308 c 1
 1235 997 l 1
 1183 995 l 1
 1120 1057 1129 1175 1033 1207 c 0
 948 1235 798 1235 702 1235 c 0
 629 1235 566 1234 500 1226 c 1
 497 1192 496 1157 496 1123 c 2
 496 717 l 1
 784 717 l 2
 943 717 958 748 1022 864 c 2
 1037 891 l 1
 1094 891 l 1
 1094 462 l 1
 1037 459 l 1
 999 561 942 641 823 641 c 2
 496 641 l 1
 496 304 l 2
 496 88 573 70 724 70 c 2
 822 70 l 2
 952 70 1109 84 1175 215 c 0
 1196 258 1212 306 1246 342 c 1
EndSplineSet
EndChar

StartChar: Eng
Encoding: 330 330 31
Width: 1545
VWidth: 0
Flags: HW
LayerCount: 2
Fore
SplineSet
1232 1026 m 2
 1232 117 l 2
 1232 -217 1116 -312 1016 -312 c 0
 932 -312 855 -245 855 -197 c 0
 855 -158 885 -126 937 -126 c 0
 976 -126 1014 -150 1014 -189 c 0
 1014 -210 1034 -237 1061 -237 c 0
 1101 -237 1172 -172 1172 79 c 1
 355 952 l 1
 383 150 l 2
 388 14 613 96 614 20 c 0
 614 16 613 12 608 0 c 1
 72 0 l 1
 69 6 68 13 68 22 c 0
 68 89 280 34 309 157 c 1
 309 1022 l 2
 309 1128 119 1098 83 1158 c 1
 87 1176 l 1
 459 1176 l 1
 1152 405 l 1
 1152 1040 l 2
 1152 1142 922 1104 922 1158 c 0
 922 1162 924 1168 927 1176 c 1
 1473 1176 l 1
 1476 1166 1477 1160 1477 1159 c 0
 1477 1109 1232 1148 1232 1026 c 2
EndSplineSet
EndChar

StartChar: Eth
Encoding: 208 208 33
Width: 1613
VWidth: 0
Flags: HW
LayerCount: 2
Fore
SplineSet
713 637 m 1
 507 637 l 1
 507 271 l 2
 507 166 540 85 655 80 c 0
 692 78 733 77 770 77 c 0
 1116 77 1274 352 1274 609 c 0
 1274 954 1094 1225 675 1225 c 2
 507 1225 l 1
 507 765 l 1
 713 765 l 1
 713 637 l 1
292 219 m 2
 292 637 l 1
 111 637 l 1
 111 765 l 1
 292 765 l 1
 292 1010 l 2
 292 1053 288 1094 282 1131 c 0
 267 1212 140 1226 68 1251 c 1
 70 1302 l 1
 662 1302 l 2
 1138 1302 1512 1130 1512 658 c 0
 1512 321 1267 0 789 0 c 2
 70 0 l 1
 68 52 l 1
 165 81 292 81 292 219 c 2
EndSplineSet
EndChar

StartChar: Euro
Encoding: 8364 8364 34
Width: 1179
VWidth: 0
Flags: HW
LayerCount: 2
Fore
SplineSet
838 549 m 1
 834 515 819 497 767 480 c 1
 395 480 l 1
 429 244 535 63 711 63 c 0
 838 63 933 161 968 241 c 1
 1084 209 l 1
 1035 105 900 -21 698 -21 c 0
 424 -21 239 192 193 480 c 1
 141 480 l 2
 82 480 59 483 47 501 c 1
 50 532 64 554 113 570 c 1
 181 570 l 1
 180 590 179 611 179 631 c 0
 179 653 179 677 181 699 c 1
 105 699 l 1
 67 714 56 731 56 757 c 0
 56 783 78 789 146 789 c 2
 193 789 l 1
 240 1056 406 1289 694 1289 c 0
 805 1289 909 1248 1010 1177 c 1
 1037 1102 1060 1022 1078 940 c 1
 954 940 l 1
 897 1120 802 1213 675 1213 c 0
 523 1213 415 1053 389 789 c 1
 572 789 l 2
 695 789 784 782 862 767 c 1
 857 734 843 716 791 699 c 1
 383 699 l 1
 383 658 l 2
 383 629 384 599 386 570 c 1
 562 570 l 2
 681 570 765 564 838 549 c 1
EndSplineSet
EndChar

StartChar: F
Encoding: 70 70 35
Width: 1262
VWidth: 0
Flags: HW
PickledData: "(dp1
S'com.typemytype.robofont.layerData'
p2
(dp3
S'b'
(dp4
S'name'
p5
S'F'
sS'lib'
p6
(dp7
sS'unicodes'
p8
(tsS'width'
p9
I1262
sS'contours'
p10
(tsS'components'
p11
(tsS'anchors'
p12
(tsss."
LayerCount: 2
Fore
SplineSet
1085 901 m 1
 1085 466 l 1
 1066 464 1047 463 1028 463 c 1
 940 645 917 657 755 657 c 2
 506 657 l 1
 506 258 l 2
 506 36 598 106 750 52 c 1
 750 0 l 1
 76 0 l 1
 74 52 l 1
 216 116 291 40 291 261 c 2
 291 1021 l 2
 291 1231 228 1193 68 1251 c 1
 68 1302 l 1
 74 1302 1050 1303 1069 1303 c 2
 1237 1305 l 1
 1237 995 l 1
 1192 993 l 1
 1125 1067 1106 1205 992 1222 c 0
 922 1232 850 1232 779 1232 c 2
 587 1232 l 2
 519 1232 506 1229 506 1160 c 2
 506 733 l 1
 586 733 653 729 719 729 c 0
 786 729 852 733 913 749 c 0
 982 767 994 850 1026 903 c 1
 1085 901 l 1
EndSplineSet
EndChar

StartChar: G
Encoding: 71 71 36
Width: 1576
VWidth: 0
Flags: HW
LayerCount: 2
Fore
SplineSet
1386 463 m 2
 1386 95 l 1
 1252 25 1061 -26 870 -26 c 0
 414 -26 112 237 112 638 c 0
 112 1055 478 1327 907 1327 c 0
 1065 1327 1182 1305 1346 1247 c 1
 1376 945 l 1
 1355 943 1335 942 1318 942 c 1
 1281 974 1252 1062 1220 1100 c 0
 1127 1211 1008 1250 881 1250 c 0
 572 1250 351 1003 351 675 c 0
 351 322 568 62 887 62 c 0
 994 62 1075 78 1154 127 c 1
 1162 195 1166 277 1166 381 c 0
 1166 439 1158 498 1138 553 c 0
 1114 621 1004 609 950 632 c 1
 950 649 952 684 952 684 c 1
 1552 684 l 1
 1552 684 1554 648 1554 632 c 1
 1472 601 1386 587 1386 463 c 2
EndSplineSet
EndChar

StartChar: Gcommaaccent
Encoding: 290 290 39
Width: 1579
VWidth: 0
Flags: HW
LayerCount: 2
Fore
SplineSet
1386 463 m 2
 1386 95 l 1
 1252 25 1061 -26 870 -26 c 0
 414 -26 112 237 112 638 c 0
 112 1055 478 1327 907 1327 c 0
 1065 1327 1182 1305 1346 1247 c 1
 1376 945 l 1
 1355 943 1335 942 1318 942 c 1
 1281 974 1252 1062 1220 1100 c 0
 1127 1211 1008 1250 881 1250 c 0
 572 1250 351 1003 351 675 c 0
 351 322 568 62 887 62 c 0
 994 62 1075 78 1154 127 c 1
 1162 195 1166 277 1166 381 c 0
 1166 439 1158 498 1138 553 c 0
 1114 621 1004 609 950 632 c 1
 950 649 952 684 952 684 c 1
 1552 684 l 1
 1552 684 1554 648 1554 632 c 1
 1472 601 1386 587 1386 463 c 2
674 -276 m 0
 674 -200 735 -128 827 -128 c 0
 912 -128 993 -176 993 -350 c 0
 993 -531 841 -615 757 -615 c 0
 734 -615 715 -608 715 -577 c 0
 715 -525 840 -552 840 -424 c 1
 731 -424 674 -357 674 -276 c 0
EndSplineSet
EndChar

StartChar: H
Encoding: 72 72 41
Width: 1705
VWidth: 0
Flags: HW
LayerCount: 2
Fore
SplineSet
1209 625 m 1
 495 625 l 1
 495 255 l 2
 495 42 574 110 717 52 c 1
 715 0 l 1
 71 0 l 1
 70 17 68 35 68 52 c 1
 219 116 280 43 280 265 c 2
 280 1038 l 2
 280 1245 210 1188 69 1251 c 1
 71 1302 l 1
 714 1302 l 1
 716 1250 l 1
 575 1186 495 1253 495 1037 c 2
 495 712 l 1
 1209 712 l 1
 1209 1047 l 2
 1209 1241 1134 1188 1006 1251 c 1
 1008 1302 l 1
 1635 1302 l 1
 1637 1250 l 1
 1482 1195 1424 1233 1424 1030 c 2
 1424 267 l 2
 1424 55 1479 107 1637 52 c 1
 1637 0 l 1
 1008 0 l 1
 1006 52 l 1
 1130 119 1209 38 1209 252 c 2
 1209 625 l 1
EndSplineSet
EndChar

StartChar: Hbar
Encoding: 294 294 42
Width: 1635
VWidth: 0
Flags: HW
LayerCount: 2
Fore
SplineSet
488 636 m 1
 1145 636 l 1
 1145 807 l 1
 488 807 l 1
 488 636 l 1
73 1176 m 1
 704 1176 l 1
 707 1166 709 1160 709 1158 c 0
 709 1099 488 1139 488 1030 c 2
 488 925 l 1
 1145 925 l 1
 1145 1030 l 2
 1145 1134 936 1100 936 1159 c 0
 936 1160 937 1166 940 1176 c 1
 1559 1176 l 1
 1562 1166 1564 1160 1564 1158 c 0
 1564 1104 1360 1132 1360 1030 c 2
 1360 124 l 2
 1360 21 1567 73 1567 17 c 0
 1567 14 1566 9 1563 0 c 1
 940 0 l 1
 937 7 935 13 935 18 c 0
 935 84 1145 14 1145 130 c 2
 1145 576 l 1
 488 576 l 1
 488 124 l 2
 488 21 712 73 712 17 c 0
 712 14 711 9 708 0 c 1
 73 0 l 1
 70 7 68 13 68 18 c 0
 68 84 273 14 273 130 c 2
 273 1030 l 2
 273 1131 69 1100 69 1159 c 0
 69 1160 70 1166 73 1176 c 1
EndSplineSet
EndChar

StartChar: I
Encoding: 73 73 43
Width: 807
VWidth: 0
Flags: HW
LayerCount: 2
Fore
SplineSet
509 1081 m 2
 509 260 l 2
 509 46 586 108 739 53 c 1
 737 0 l 1
 72 0 l 1
 72 52 l 1
 219 119 294 20 294 278 c 2
 294 1030 l 2
 294 1284 191 1178 68 1251 c 1
 70 1302 l 1
 733 1302 l 1
 735 1250 l 1
 639 1217 509 1217 509 1081 c 2
EndSplineSet
EndChar

StartChar: J
Encoding: 74 74 54
Width: 726
VWidth: 0
Flags: HW
LayerCount: 2
Fore
SplineSet
49 1302 m 1
 716 1302 l 1
 716 1251 l 1
 574 1190 489 1260 489 1044 c 2
 489 170 l 2
 489 -59 420 -333 142 -333 c 0
 66 -333 -58 -304 -58 -207 c 0
 -58 -155 -19 -122 31 -122 c 0
 135 -122 117 -251 195 -251 c 0
 267 -251 274 -90 274 6 c 2
 274 1035 l 2
 274 1249 201 1195 46 1250 c 1
 49 1302 l 1
EndSplineSet
EndChar

StartChar: K
Encoding: 75 75 56
Width: 1467
VWidth: 0
Flags: HW
LayerCount: 2
Fore
SplineSet
511 1166 m 2
 511 726 l 1
 597 726 l 1
 1053 1178 l 1
 1056 1187 1057 1194 1057 1200 c 0
 1057 1277 884 1228 884 1284 c 0
 884 1288 886 1293 889 1302 c 1
 1453 1302 l 1
 1457 1284 l 1
 1457 1265 1388 1247 1315 1231 c 0
 1247 1216 1201 1195 1173 1172 c 1
 785 774 l 1
 1253 130 l 1
 1293 86 1497 56 1497 18 c 0
 1497 11 1496 5 1493 0 c 1
 809 0 l 1
 804 11 803 14 803 17 c 0
 803 67 977 33 977 102 c 0
 977 106 973 117 960 134 c 1
 601 660 l 1
 511 660 l 1
 511 124 l 2
 511 9 748 83 748 19 c 0
 748 16 746 10 743 0 c 1
 73 0 l 1
 70 9 69 14 69 17 c 0
 69 76 296 23 296 130 c 2
 296 1166 l 2
 296 1268 68 1230 68 1284 c 0
 68 1288 70 1293 73 1302 c 1
 739 1302 l 1
 742 1292 743 1286 743 1285 c 0
 743 1227 511 1271 511 1166 c 2
EndSplineSet
EndChar

StartChar: L
Encoding: 76 76 58
Width: 1296
VWidth: 0
Flags: HW
LayerCount: 2
Fore
SplineSet
299 240 m 2
 299 1034 l 2
 299 1250 233 1199 69 1251 c 1
 71 1302 l 1
 747 1302 l 1
 747 1250 l 1
 594 1188 515 1263 515 1040 c 2
 515 312 l 2
 515 79 556 74 865 74 c 0
 988 74 1105 91 1171 217 c 0
 1193 260 1211 308 1245 344 c 1
 1305 342 l 1
 1242 -11 l 1
 1169 -5 1096 0 1023 0 c 2
 70 0 l 1
 68 54 l 1
 178 92 299 88 299 240 c 2
EndSplineSet
EndChar

StartChar: Lslash
Encoding: 321 321 64
Width: 1294
VWidth: 0
Flags: HW
LayerCount: 2
Fore
SplineSet
513 624 m 1
 513 136 l 2
 513 95 523 56 558 56 c 1
 864 67 l 2
 950 70 985 92 1014 207 c 0
 1030 273 1053 346 1079 346 c 0
 1082 346 1084 341 1103 341 c 1
 1075 -20 l 1
 1073 -24 1071 -26 1067 -26 c 1
 1022 -13 970 0 908 0 c 2
 72 0 l 1
 69 8 68 15 68 22 c 0
 68 98 298 26 298 142 c 2
 298 537 l 1
 265 524 l 2
 211.163 502.85 180.433 490.942 159.48 490.942 c 0
 158.638 490.942 157.811 490.961 157 491 c 0
 137 491 118 509 118 534 c 0
 118 558 145 576 228 609 c 2
 298 637 l 1
 298 1038 l 2
 298 1147 119 1090 70 1159 c 0
 70 1160 71 1166 74 1176 c 1
 744 1176 l 1
 747 1169 748 1162 748 1157 c 0
 748 1089 513 1158 513 1044 c 2
 513 724 l 1
 705 802 l 2
 755 822 787 831 810 831 c 0
 838 831 853 813 853 787 c 0
 853 762 823 750 740 716 c 2
 513 624 l 1
EndSplineSet
EndChar

StartChar: M
Encoding: 77 77 65
Width: 1925
VWidth: 0
Flags: HW
LayerCount: 2
Fore
SplineSet
1606 1082 m 1
 1678 271 l 2
 1683 216 1696 159 1734 117 c 1
 1754 59 1859 83 1899 52 c 1
 1897 0 l 1
 1274 0 l 1
 1272 52 l 1
 1356 80 1466 99 1466 211 c 1
 1404 1068 l 1
 1022 205 l 2
 993 139 970 69 949 0 c 1
 870 0 l 1
 761 240 534 678 395 1029 c 1
 372 766 330 495 330 232 c 0
 330 101 421 88 521 52 c 1
 519 0 l 1
 35 0 l 1
 33 52 l 1
 126 90 223 94 236 220 c 2
 312 968 l 2
 316 1009 319 1054 319 1096 c 0
 319 1219 214 1209 134 1251 c 1
 136 1302 l 1
 525 1302 l 1
 547 1210 572 1119 612 1034 c 2
 972 267 l 1
 1329 1081 l 2
 1366 1166 1377 1247 1377 1302 c 1
 1791 1302 l 1
 1791 1250 l 1
 1702.69 1220.56 1606 1195.11 1606 1082 c 1
EndSplineSet
EndChar

StartChar: N
Encoding: 78 78 66
Width: 1724
VWidth: 0
Flags: HW
LayerCount: 2
Fore
SplineSet
78 54 m 1
 189 85 310 92 323 239 c 1
 323 1091 l 1
 252 1208 178 1205 68 1250 c 1
 68 1302 l 1
 417 1302 l 1
 1358 329 l 1
 1358 958 l 2
 1358 1019 1351 1073 1331 1131 c 0
 1297 1230 1202 1211 1126 1249 c 1
 1126 1267 1127 1284 1129 1302 c 1
 1656 1302 l 1
 1656 1248 l 1
 1478 1167 1447 1184 1445 959 c 0
 1443 757 1440 555 1440 353 c 0
 1440 231 1460 112 1463 -9 c 1
 1447 -15 1430 -16 1414 -16 c 0
 1395 -16 1375 -14 1357 -9 c 1
 1305 55 1250 117 1193 178 c 2
 403 1009 l 1
 403 307 l 2
 403 262 409 216 420 172 c 0
 447 65 571 92 647 53 c 1
 647 35 646 18 644 0 c 1
 80 0 l 1
 78 18 78 36 78 54 c 1
EndSplineSet
EndChar

StartChar: O
Encoding: 79 79 72
Width: 1603
VWidth: 0
Flags: HW
LayerCount: 2
Fore
SplineSet
112 637 m 0
 112 1095 460 1327 804 1327 c 0
 1178 1327 1491 1063 1491 648 c 0
 1491 240 1167 -26 784 -26 c 0
 435 -26 112 224 112 637 c 0
345 720 m 0
 345 340 550 51 837 51 c 0
 1076 51 1258 248 1258 585 c 0
 1258 958 1060 1250 769 1250 c 0
 541 1250 345 1071 345 720 c 0
EndSplineSet
EndChar

StartChar: OE
Encoding: 338 338 73
Width: 2112
VWidth: 0
Flags: HW
LayerCount: 2
Fore
SplineSet
1175 718 m 1
 1344 719 1534 718 1665 732 c 1
 1732 748 1748 837 1777 896 c 1
 1796 896 1816 896 1840 894 c 1
 1840 460 l 1
 1819 458 1798 457 1777 457 c 1
 1749 521 1722 614 1658 628 c 0
 1623 636 1584 642 1539 642 c 2
 1177 642 l 1
 1177 433 1177 262 1176 105 c 0
 1176 87 1180 68 1195 68 c 0
 1331 69 1466 69 1601 71 c 0
 1666 72 1726 79 1782 91 c 0
 1897 116 1902 254 1983 322 c 1
 2000 322 2018 322 2042 320 c 1
 1990 -21 l 1
 1970 -26 1962 -29 1953 -29 c 0
 1911 -29 1877 -1 1831 -1 c 2
 779 -1 l 2
 364 -1 112 289 112 656 c 0
 112 1058 414 1302 794 1302 c 2
 1297 1302 l 2
 1419 1302 1507 1301 1574 1301 c 0
 1720 1301 1769 1304 1867 1322 c 1
 1900 1322 1934 1321 1974 1319 c 1
 1974 992 l 1
 1956 990 1939 989 1923 989 c 1
 1863 1049 1862 1192 1753 1211 c 0
 1646.64 1229.18 1478.29 1230.01 1326.1 1230.01 c 0
 1281 1230 l 0
 1247 1230 1170 1225 1170 1195 c 0
 1170 1080 1175 920 1175 718 c 1
346 718 m 0
 346 421 477 80 790 80 c 0
 957 80 1066 89 1088 101 c 1
 1088 487 1086 863 1083 1209 c 1
 1014 1218 907 1224 746 1224 c 0
 507 1224 346 1031 346 718 c 0
EndSplineSet
EndChar

StartChar: Oslash
Encoding: 216 216 81
Width: 1603
VWidth: 0
Flags: HW
LayerCount: 2
Fore
SplineSet
1133 1241 m 1
 1178 1320 1186 1383 1267 1413 c 1
 1305 1402 1321 1379 1334 1356 c 1
 1309 1314 1282 1277 1227 1189 c 1
 1388 1068 1491 880 1491 648 c 0
 1491 239 1166 -26 783 -26 c 0
 673 -26 573 0 489 57 c 1
 441 -31 407 -104 341 -136 c 1
 317 -125 294 -100 282 -71 c 1
 295 -50 310 -27 326 -5 c 1
 393 105 l 1
 217 223 112 394 112 641 c 0
 112 1060 427 1327 805 1327 c 0
 926 1327 1034 1300 1133 1241 c 1
490 247 m 1
 1056 1127 l 1
 980 1205 878 1250 769 1250 c 0
 539 1250 345 1059 345 723 c 0
 345 532 403 357 490 247 c 1
1128 1046 m 1
 958 807 770 522 569 171 c 1
 641 93 734 51 837 51 c 0
 1076 51 1258 248 1258 586 c 0
 1258 768 1208 931 1128 1046 c 1
EndSplineSet
EndChar

StartChar: P
Encoding: 80 80 83
Width: 1305
VWidth: 0
Flags: HW
LayerCount: 2
Fore
SplineSet
280 222 m 2
 280 1031 l 2
 280 1235 215 1189 69 1251 c 1
 71 1302 l 1
 567 1302 l 2
 837 1302 1247 1292 1247 939 c 0
 1247 668 1033 548 786 548 c 0
 753 548 578 569 578 614 c 0
 578 630 604 632 622 632 c 2
 637 632 l 2
 850 632 1014 670 1014 925 c 0
 1014 1161 791 1232 593 1232 c 0
 561 1232 528 1230 496 1227 c 1
 496 275 l 2
 496 33 559 117 723 52 c 1
 721 0 l 1
 71 0 l 1
 68 52 l 1
 164 80 280 96 280 222 c 2
EndSplineSet
EndChar

StartChar: Q
Encoding: 81 81 84
Width: 1592
VWidth: 0
Flags: HW
LayerCount: 2
Fore
SplineSet
1590 -213 m 1
 1602 -285 l 1
 1551 -302 1473 -314 1398 -314 c 0
 1261 -314 1180 -293 1078 -244 c 0
 973 -194 744 -73 650 -11 c 1
 338 71 112 286 112 641 c 0
 112 1061 427 1327 804 1327 c 0
 1178 1327 1491 1063 1491 651 c 0
 1491 295 1241 51 924 -11 c 1
 1189 -138 1308 -188 1590 -213 c 1
346 729 m 0
 346 314 566 51 835 51 c 0
 1064 51 1258 233 1258 587 c 0
 1258 953 1060 1250 770 1250 c 0
 535 1250 346 1052 346 729 c 0
EndSplineSet
EndChar

StartChar: R
Encoding: 82 82 85
Width: 1437
VWidth: 0
Flags: HW
PickledData: "(dp1
S'com.typemytype.robofont.layerData'
p2
(dp3
S'b'
(dp4
S'name'
p5
S'R'
sS'lib'
p6
(dp7
sS'unicodes'
p8
(tsS'width'
p9
I1437
sS'contours'
p10
(tsS'components'
p11
(tsS'anchors'
p12
(tsss."
LayerCount: 2
Fore
SplineSet
489 1227 m 1
 489 703 l 1
 505 703 521.741 702.918 538.993 702.918 c 0
 730.918 702.918 986 713.021 986 958 c 0
 986 1226 710 1227 511 1227 c 2
 489 1227 l 1
1265 -26 m 0
 986 -26 827 344 695 542 c 0
 652 606 633 627 552 632 c 2
 489 636 l 1
 489 251 l 2
 489 36 574 114 705 52 c 1
 703 0 l 1
 70 0 l 1
 68 52 l 1
 200 124 274 22 274 277 c 2
 274 1035 l 2
 274 1231 208 1188 68 1250 c 1
 70 1302 l 1
 531 1302 l 2
 779 1302 1219 1302 1219 970 c 0
 1219 770 1029 672 855 647 c 1
 975 484 1097 300 1219 153 c 1
 1273 95 1317 54 1441 54 c 1
 1441 -2 l 1
 1383 -16 1324 -26 1265 -26 c 0
EndSplineSet
EndChar

StartChar: S
Encoding: 83 83 89
Width: 1167
VWidth: 0
Flags: HW
LayerCount: 2
Fore
SplineSet
137 77 m 1
 137 400 l 1
 196 402 l 1
 215 370 223 333 234 297 c 0
 282 137 431 58 591 58 c 0
 716 58 863 124 863 268 c 0
 863 543 154 617 154 991 c 0
 154 1237 394 1327 604 1327 c 0
 735 1327 868 1294 985 1234 c 1
 998 949 l 1
 936 949 l 1
 919 981 910 1017 898 1051 c 0
 851 1187 726 1250 588 1250 c 0
 486 1250 341 1198 341 1075 c 0
 341 817 1058 737 1058 344 c 0
 1058 79 808 -26 578 -26 c 0
 442 -26 247 10 137 77 c 1
EndSplineSet
EndChar

StartChar: T
Encoding: 84 84 94
Width: 1395
VWidth: 0
Flags: HW
PickledData: "(dp1
S'com.typemytype.robofont.layerData'
p2
(dp3
S'b'
(dp4
S'name'
p5
S'T'
sS'lib'
p6
(dp7
sS'unicodes'
p8
(tsS'width'
p9
I1395
sS'contours'
p10
(tsS'components'
p11
(tsS'anchors'
p12
(tsss."
LayerCount: 2
Fore
SplineSet
586 241 m 2
 586 1228 l 1
 440 1228 l 2
 391 1228 341 1227 294 1220 c 0
 188 1204 141 1056 80 982 c 1
 34 982 l 1
 59 1308 l 1
 200.429 1302.24 342.68 1300.87 485.324 1300.87 c 0
 615 1300.87 745 1302 875 1302 c 0
 918.714 1302 962.429 1301.84 1006.12 1301.84 c 0
 1115.35 1301.84 1224.43 1302.86 1333 1310 c 1
 1365 981 l 1
 1317 981 l 1
 1258 1054 1211 1205 1109 1220 c 0
 1058 1228 1006 1228 954 1228 c 0
 909 1228 864 1228 801 1228 c 1
 801 241 l 2
 801 80 890 69 1027 52 c 1
 1027 35 1027 17 1025 0 c 1
 363 0 l 1
 361 52 l 1
 469 89 586 95 586 241 c 2
EndSplineSet
EndChar

StartChar: Tbar
Encoding: 358 358 95
Width: 1180
VWidth: 0
Flags: HW
LayerCount: 2
Fore
SplineSet
40 872 m 1
 73 1189 l 1
 87 1189 103 1191 109 1191 c 0
 150 1191 181 1180 225 1173 c 1
 979 1179 l 2
 1006 1179 1056 1193 1072 1193 c 2
 1100 1193 l 1
 1145 872 l 1
 1139 869 1133 868 1127 868 c 0
 1109 868 1086 925 1073 969 c 0
 1046 1057 1023 1109 958 1112 c 1
 685 1120 l 1
 685 699 l 1
 888 699 l 1
 888 627 l 1
 685 627 l 1
 685 124 l 2
 685 21 919 78 919 17 c 0
 919 14 918 9 915 0 c 1
 245 0 l 1
 242 5 241 11 241 18 c 0
 241 85 470 12 470 130 c 2
 470 627 l 1
 256 627 l 1
 256 699 l 1
 470 699 l 1
 470 1120 l 1
 239 1112 l 2
 173 1110 145 1053 116 969 c 0
 100 924 78 868 57 868 c 0
 54 868 49 869 40 872 c 1
EndSplineSet
EndChar

StartChar: Thorn
Encoding: 222 222 98
Width: 1296
VWidth: 0
Flags: HW
LayerCount: 2
Fore
SplineSet
275 214 m 2
 275 1048 l 2
 275 1256 194 1185 70 1251 c 1
 70 1302 l 1
 703 1302 l 1
 705 1250 l 1
 607 1214 491 1210 491 1072 c 2
 491 1033 l 1
 570 1033 l 2
 846 1033 1242 1016 1242 668 c 0
 1242 385 955 300 720 300 c 0
 644 300 567 303 491 308 c 1
 491 87 522 105 721 51 c 1
 719 0 l 1
 70 0 l 1
 68 52 l 1
 159 84 275 87 275 214 c 2
491 957 m 1
 491 380 l 1
 550 377 608 375 667 375 c 0
 846 375 1008 454 1008 654 c 0
 1008 952 712 957 491 957 c 1
EndSplineSet
EndChar

StartChar: U
Encoding: 85 85 99
Width: 1639
VWidth: 0
Flags: HW
LayerCount: 2
Fore
SplineSet
29 1302 m 1
 689 1302 l 1
 691 1250 l 1
 524 1190 459 1251 459 1023 c 2
 459 596 l 2
 459 303 555 82 888 82 c 0
 1220 82 1317 322 1317 613 c 2
 1317 1006 l 2
 1317 1236 1261 1190 1084 1251 c 1
 1084 1302 l 1
 1623 1302 l 1
 1625 1250 l 1
 1560 1216 1442 1238 1415 1150 c 0
 1403 1109 1399 1065 1399 1022 c 0
 1399 922 1403 817 1403 714 c 0
 1403 330 1347 -26 821 -26 c 0
 545 -26 283 101 251 401 c 0
 241 488 239 576 239 664 c 0
 239 785 244 906 244 1024 c 0
 244 1062 243 1102 234 1139 c 0
 215 1218 90 1228 26 1251 c 1
 29 1302 l 1
EndSplineSet
EndChar

StartChar: V
Encoding: 86 86 109
Width: 1405
VWidth: 0
Flags: HW
LayerCount: 2
Fore
SplineSet
402 1138 m 0
 402 1073 687 486 779 251 c 1
 858 465 1102 976 1102 1114 c 0
 1102 1217 981 1216 905 1240 c 1
 903 1249 902 1259 902 1269 c 0
 902 1280 903 1291 905 1302 c 1
 1421 1302 l 1
 1423 1284 1424 1265 1424 1247 c 1
 1385 1220 1338 1201 1295 1181 c 0
 1197 1135 1149 929 1108 833 c 0
 992 559 770 -11 770 -11 c 1
 770 -11 738 -19 721 -19 c 0
 707 -19 694 -19 680 -17 c 1
 519 353 355 720 188 1088 c 0
 139 1197 96 1213 -10 1245 c 1
 -8 1302 l 1
 581 1302 l 1
 582 1282 587 1262 587 1242 c 1
 535 1225 402 1211 402 1138 c 0
EndSplineSet
EndChar

StartChar: W
Encoding: 87 87 110
Width: 1933
VWidth: 0
Flags: HW
LayerCount: 2
Fore
SplineSet
375 1182 m 0
 375 1161 603 524 665 353 c 1
 934 1071 l 1
 917 1111 902 1152 885 1192 c 1
 859 1214 700 1260 700 1282 c 0
 700 1285 706 1299 707 1302 c 1
 1349 1302 l 1
 1350 1298 1355 1286 1355 1282 c 0
 1355 1211 1163 1274 1163 1188 c 0
 1163 1156 1393 445 1424 355 c 1
 1457 456 1686 1135 1686 1187 c 0
 1686 1260 1541 1241 1485 1271 c 1
 1479 1282 l 1
 1485 1302 l 1
 2002 1302 l 2
 2007 1302 2017 1296 2020 1291 c 1
 2020 1237 1782 1259 1746 1157 c 0
 1727 1103 1712 1047 1696 992 c 2
 1397 1 l 2
 1392 -16 1369 -19 1355 -19 c 0
 1337 -19 1321 -16 1312 1 c 0
 1287 49 1274 115 1256 167 c 2
 972 994 l 1
 713 249 l 2
 686 171 664 74 627 1 c 0
 618 -17 604 -21 585 -21 c 0
 529 -21 498 119 482 161 c 0
 361 483 243 807 120 1128 c 0
 80 1232 -38 1216 -103 1280 c 1
 -96 1302 l 1
 547 1302 l 1
 548 1297 552 1288 552 1282 c 0
 552 1217 375 1270 375 1182 c 0
EndSplineSet
EndChar

StartChar: X
Encoding: 88 88 111
Width: 1463
VWidth: 0
Flags: HW
LayerCount: 2
Fore
SplineSet
1053 1029 m 2
 811 725 l 1
 1182 236 l 2
 1257 137 1292 100 1372 78 c 0
 1403 69 1444 59 1462 52 c 1
 1462 36 1461 19 1460 0 c 1
 808 0 l 1
 806 17 806 34 806 52 c 1
 881 69 962 98 962 156 c 0
 962 171 956 197 942 216 c 2
 679 565 l 1
 456 294 l 2
 417 246 377 182 377 144 c 0
 377 94 460 73 541 57 c 1
 542 48 542 39 542 30 c 0
 542 21 542 11 541 0 c 1
 20 0 l 1
 18 17 18 34 18 52 c 1
 72 73 179 94 245 165 c 0
 267 189 292 219 319 252 c 2
 632 628 l 1
 273 1097 l 2
 190 1206 89 1220 21 1246 c 1
 21 1262 21 1279 23 1302 c 1
 665 1302 l 1
 666 1285 667 1267 667 1250 c 1
 590 1234 512 1198 512 1144 c 0
 512 1129 519 1115 529 1095 c 1
 762 788 l 1
 945 1014 l 2
 995 1076 1007 1096 1007 1130 c 0
 1007 1183 951 1228 861 1246 c 1
 859 1254 859 1263 859 1273 c 0
 859 1281 859 1291 861 1302 c 1
 1374 1302 l 1
 1376 1285 1376 1267 1376 1250 c 1
 1334 1233 1211 1208 1136 1126 c 0
 1110 1098 1082 1066 1053 1029 c 2
EndSplineSet
EndChar

StartChar: Y
Encoding: 89 89 112
Width: 1345
VWidth: 0
Flags: HW
LayerCount: 2
Fore
SplineSet
1341 1250 m 1
 1243.7 1209.93 1164.58 1180.49 1103 1086 c 2
 775 583 l 1
 775 246 l 2
 775 41 864 111 992 52 c 1
 990 0 l 1
 344 0 l 1
 342 52 l 1
 465 121 560 25 560 254 c 2
 560 562 l 1
 195 1134 l 2
 162 1185 56 1238 -2 1251 c 1
 -2 1302 l 1
 618 1302 l 1
 620 1250 l 1
 567 1241 459 1211 459 1142 c 0
 459 1081 699 738 744 667 c 1
 771 711 1004 1037 1004 1140 c 0
 1004 1211 891 1230 839 1246 c 1
 837 1273 l 2
 837 1282 838 1291 839 1302 c 1
 1341 1302 l 1
 1341 1250 l 1
EndSplineSet
EndChar

StartChar: Z
Encoding: 90 90 115
Width: 1305
VWidth: 0
Flags: HW
PickledData: "(dp1
S'com.typemytype.robofont.layerData'
p2
(dp3
S'b'
(dp4
S'name'
p5
S'Z'
sS'lib'
p6
(dp7
sS'unicodes'
p8
(tsS'width'
p9
I1305
sS'contours'
p10
(tsS'components'
p11
(tsS'anchors'
p12
(tsss."
LayerCount: 2
Fore
SplineSet
1219 357 m 1
 1159 -10 l 1
 1118 -10 l 2
 1069 -10 1021 0 974 0 c 2
 97 0 l 1
 93 43 l 1
 853 1119 l 2
 864 1134 927 1225 927 1225 c 1
 531 1225 l 2
 420 1225 338 1224 276 1112 c 0
 250 1065 227 1016 196 972 c 1
 178 972 161 973 143 975 c 1
 170 1303 l 1
 202 1303 l 2
 530 1303 859 1302 1188 1302 c 1
 1200 1297 1201 1283 1201 1272 c 2
 1200 1245 l 1
 455 198 l 2
 430 162 404 127 381 89 c 1
 410 80 440 74 471 74 c 2
 610 74 l 2
 711 74 812 76 910 92 c 0
 989 104 1020 134 1057 203 c 0
 1086 257 1120 315 1163 359 c 1
 1219 357 l 1
EndSplineSet
EndChar

StartChar: a
Encoding: 97 97 119
Width: 1013
VWidth: 0
Flags: HW
LayerCount: 2
Fore
SplineSet
630 514 m 1
 630 609 l 2
 630 739 606 852 447 852 c 0
 401 852 288 821 288 762 c 0
 288 727 322 700 322 665 c 0
 322 612 285 572 231 572 c 0
 161 572 122 633 122 698 c 0
 122 866 361 926 492 926 c 0
 782 926 817 797 817 541 c 0
 817 514 811 419 811 324 c 0
 811 212 820 99 858 99 c 0
 890 99 928 145 946 168 c 1
 988 123 l 1
 938 40 890 -20 788 -20 c 0
 699 -20 638 41 633 129 c 1
 551 40 444 -20 321 -20 c 0
 200 -20 91 47 91 178 c 0
 91 412 458 469 630 514 c 1
630 200 m 1
 630 455 l 1
 527 420 288 361 288 220 c 0
 288 142 333 93 412 93 c 0
 496 93 572 143 630 200 c 1
EndSplineSet
EndChar

StartChar: acute
Encoding: 180 180 123
Width: 968
VWidth: 0
Flags: HW
LayerCount: 2
Fore
SplineSet
650 1442 m 0
 548 1349 363 1177 294 1116 c 0
 278 1102 264 1096 254 1096 c 0
 239 1096 231 1107 231 1122 c 0
 231 1131 235 1142 242 1152 c 0
 325 1262 464 1449 529 1536 c 0
 547 1560 569 1570 590 1570 c 0
 632 1570 671 1528 671 1488 c 0
 671 1471 665 1455 650 1442 c 0
EndSplineSet
EndChar

StartChar: ae
Encoding: 230 230 125
Width: 1447
VWidth: 0
Flags: HW
LayerCount: 2
Fore
SplineSet
1382 554 m 1
 804 486 l 1
 804 462 l 2
 804 234 861 128 1083 128 c 0
 1204 128 1271 157 1345 208 c 1
 1356 200 1366 191 1374 179 c 1
 1320 43 1164 -20 1021 -20 c 0
 875 -20 771 37 690 132 c 1
 577 34 425 -20 297 -20 c 0
 168 -20 69 47 69 172 c 0
 69 421 361 433 613 501 c 1
 613 622 l 2
 613 750 572 852 448 852 c 0
 408 852 272 828 272 760 c 0
 272 723 307 695 307 669 c 0
 307 644 241 578 191 578 c 0
 142 578 103 660 103 711 c 0
 103 876 369 924 486 924 c 0
 635 924 718 873 759 791 c 1
 810 863 902 926 1049 926 c 0
 1257 926 1382 759 1382 554 c 1
657 185 m 1
 625 267 618 362 617 446 c 1
 589 440 562 434 539 427 c 0
 325 362 262 329 262 205 c 0
 262 132 321 92 396 92 c 0
 486 92 594 138 657 185 c 1
805 544 m 1
 1114 583 l 1
 1144 589 1173 600 1197 614 c 1
 1178 768 1127 852 1014 852 c 0
 871 852 807 725 805 544 c 1
EndSplineSet
EndChar

StartChar: ampersand
Encoding: 38 38 128
Width: 1468
VWidth: 0
Flags: HW
LayerCount: 2
Fore
SplineSet
427 1104 m 0
 427 1035 475 951 558 849 c 1
 678 918 749 984 749 1071 c 0
 749 1151 685 1250 597 1250 c 0
 499 1250 427 1183 427 1104 c 0
266 435 m 0
 266 256 408 102 611 102 c 0
 697 102 761 132 845 209 c 1
 717 374 559 576 457 702 c 1
 326 612 266 531 266 435 c 0
984 886 m 1
 1393 886 l 1
 1394 868 1394 851 1394 835 c 1
 1370 815 1284 813 1261 776 c 0
 1177 643 1141 488 1020 296 c 1
 1081 219 1135 165 1197 165 c 0
 1252 165 1312 208 1387 318 c 1
 1446 275 l 1
 1395 62 1292 -28 1180 -28 c 0
 1081 -28 974 40 896 152 c 1
 765 25 648 -26 488 -26 c 0
 225 -26 73 136 73 319 c 0
 73 502 185 610 411 758 c 1
 310 870 264 960 264 1042 c 0
 264 1209 461 1322 634 1322 c 0
 770 1322 892 1253 892 1085 c 0
 892 977 788 911 602 799 c 1
 707 681 838 509 969 357 c 1
 1026 457 1071 571 1098 692 c 1
 1106 712 1110 728 1110 741 c 0
 1110 784 1043 813 984 832 c 1
 983 840 982 848 982 858 c 0
 982 866 983 875 984 886 c 1
EndSplineSet
EndChar

StartChar: asciicircum
Encoding: 94 94 131
Width: 1192
VWidth: 0
Flags: HW
LayerCount: 2
Fore
SplineSet
653 1369 m 1
 764 1174 906 939 994 738 c 1
 964 726 931 722 899 722 c 1
 779 862 691 1038 594 1193 c 1
 492 1037 402 870 288 722 c 1
 256 722 224 726 194 738 c 1
 269 911 402 1130 496 1300 c 0
 515 1335 541 1367 573 1392 c 1
 601 1392 629 1384 653 1369 c 1
EndSplineSet
EndChar

StartChar: asciitilde
Encoding: 126 126 132
Width: 858
VWidth: 0
Flags: HW
LayerCount: 2
Fore
SplineSet
757 846 m 1
 846 846 l 1
 846 691 779 583 645 583 c 0
 483 583 324 713 214 713 c 0
 141 713 105 665 97 596 c 1
 6 596 l 1
 18 731 70 851 223 851 c 0
 365 851 538 718 642 718 c 0
 724 718 754 770 757 846 c 1
EndSplineSet
EndChar

StartChar: asterisk
Encoding: 42 42 133
Width: 1218
VWidth: 0
Flags: HW
LayerCount: 2
Fore
SplineSet
700 1221 m 0
 700 1095 666 946 650 820 c 1
 714 853 981 1009 1040 1009 c 0
 1092 1009 1131 961 1131 911 c 0
 1131 869 1099 833 1058 824 c 2
 678 741 l 1
 728 685 960 467 960 389 c 0
 960 339 913 295 863 295 c 0
 829 295 797 316 782 346 c 2
 609 695 l 1
 435 346 l 2
 420 316 389 295 354 295 c 0
 304 295 257 339 257 389 c 0
 257 467 489 685 539 741 c 1
 159 824 l 2
 118 833 86 869 86 911 c 0
 86 961 125 1009 177 1009 c 0
 236 1009 503 853 567 820 c 1
 550 948 515 1098 515 1226 c 0
 515 1276 562 1309 609 1309 c 0
 659 1309 700 1271 700 1221 c 0
EndSplineSet
EndChar

StartChar: at
Encoding: 64 64 134
Width: 1799
VWidth: 0
Flags: HW
PickledData: "(dp1
S'com.typemytype.robofont.layerData'
p2
(dp3
S'b'
(dp4
S'name'
p5
S'at'
p6
sS'lib'
p7
(dp8
sS'unicodes'
p9
(tsS'width'
p10
I1799
sS'contours'
p11
(tsS'components'
p12
(tsS'anchors'
p13
(tsss."
LayerCount: 2
Fore
SplineSet
638 446 m 0
 638 332 687 231 796 229 c 1
 884 229 986 318 1047 484 c 1
 1070 601 1072 587 1082 705 c 0
 1084 731 1088 766 1088 801 c 0
 1088 872 1071 944 987 945 c 0
 986 945 986 945 985 945 c 0
 805.779 945 638 664.6 638 446 c 0
1223 317 m 0
 1223 244 1272 194 1331 194 c 0
 1421 194 1536 312 1536 646 c 0
 1536 1073 1264 1216 1012 1216 c 0
 581 1216 262 915 262 445 c 0
 262 99 558 -72 888 -72 c 0
 1065 -72 1153 -37 1273 7 c 1
 1266 -66 l 1
 1140 -126 995 -157 852 -157 c 0
 500 -157 164 47 164 455 c 0
 164 943 521 1295 1015 1295 c 0
 1372 1295 1639 1063 1639 647 c 0
 1639 433 1539 135 1290 135 c 0
 1289 135 1288 135 1287 135 c 0
 1177 136 1066 185 1052 388 c 1
 983 206 861 132 750 132 c 0
 749 132 749 132 748 132 c 0
 571 134 480 279 480 442 c 0
 480 455 481 469 482 482 c 0
 505 752 724 1024 1010 1024 c 0
 1012 1024 1013 1024 1015 1024 c 0
 1208 1022 1264 902 1264 743 c 0
 1264 584.442 1223 468.175 1223 317 c 0
EndSplineSet
EndChar

StartChar: b
Encoding: 98 98 136
Width: 1134
VWidth: 0
Flags: HW
PickledData: "(dp1
S'com.typemytype.robofont.layerData'
p2
(dp3
S'b'
(dp4
S'name'
p5
S'b'
sS'lib'
p6
(dp7
sS'unicodes'
p8
(tsS'width'
p9
I1134
sS'contours'
p10
(tsS'components'
p11
(tsS'anchors'
p12
(tsss."
LayerCount: 2
Fore
SplineSet
158 134 m 2
 158 1163 l 1
 130 1208 -30 1254 -30 1254 c 1
 -28 1288 l 1
 258 1367 l 1
 344 1376 l 1
 344 758 l 1
 436 857 545 926 677 926 c 0
 914 926 1052 691 1052 462 c 0
 1052 95 778 -20 528 -20 c 0
 339 -20 158 48 158 134 c 2
344 665 m 1
 344 124 l 2
 344 85 433 58 538 58 c 0
 686 58 860 139 866 412 c 0
 866.116 417.279 866.174 422.518 866.174 427.718 c 0
 866.174 646.125 764.07 794 599 794 c 0
 497 794 400 733 344 665 c 1
EndSplineSet
EndChar

StartChar: backslash
Encoding: 92 92 137
Width: 689
VWidth: 0
Flags: HW
LayerCount: 2
Fore
SplineSet
17 1378 m 1
 40 1396 68 1402 97 1402 c 1
 167 1336 183 1229 216 1142 c 2
 617 72 l 2
 638 17 639 -58 644 -117 c 1
 625 -117 l 2
 606 -117 586 -117 567 -112 c 1
 542 -58 521 -3 502 53 c 0
 350 498 152 928 17 1378 c 1
EndSplineSet
EndChar

StartChar: bar
Encoding: 124 124 138
Width: 824
VWidth: 0
Flags: HW
LayerCount: 2
Fore
SplineSet
469 1244 m 2
 469 -88 l 2
 469 -164 468 -244 438 -315 c 1
 405 -314 382 -301 354 -283 c 1
 354 1431 l 1
 372 1457 403 1467 434 1467 c 2
 438 1467 l 1
 455.989 1395.04 469 1318.55 469 1244 c 2
EndSplineSet
EndChar

StartChar: braceleft
Encoding: 123 123 139
Width: 827
VWidth: 0
Flags: HW
LayerCount: 2
Fore
SplineSet
191 619 m 1
 191 637 197 657 213 667 c 1
 332 677 403 752 403 871 c 0
 403 967 375 1061 375 1157 c 0
 375 1372 518 1484 724 1497 c 1
 727 1488 729 1477 729 1467 c 0
 729 1458 727 1448 724 1440 c 1
 615 1425 532 1382 532 1261 c 0
 532 1162 574 1067 574 967 c 0
 574 794 463 680 304 632 c 1
 462 585 574 468 574 297 c 0
 574 194 530 97 530 -4 c 0
 530 -117 626 -160 724 -176 c 1
 729 -184 732 -194 732 -205 c 0
 732 -215 729 -225 724 -233 c 1
 507 -220 376 -101 376 120 c 0
 376 216 401 310 401 406 c 0
 401 583 288 547 191 619 c 1
EndSplineSet
EndChar

StartChar: braceright
Encoding: 125 125 140
Width: 827
VWidth: 0
Flags: HW
LayerCount: 2
Fore
SplineSet
614 667 m 1
 630 657 637 637 637 619 c 1
 530 548 424 580 424 399 c 0
 424 307 451 218 451 127 c 0
 451 -97 326 -219 104 -233 c 1
 99 -228 96 -219 96 -212 c 0
 96 -199 96 -187 104 -176 c 1
 203 -161 297 -117 297 -4 c 0
 297 97 253 194 253 297 c 0
 253 468 365 585 523 632 c 1
 363 679 253 795 253 967 c 0
 253 1067 295 1162 295 1261 c 0
 295 1380 212 1425 104 1440 c 1
 100 1448 98 1458 98 1467 c 0
 98 1477 101 1488 104 1497 c 1
 309 1484 452 1372 452 1157 c 0
 452 1059 424 964 424 866 c 0
 424 748 498 676 614 667 c 1
EndSplineSet
EndChar

StartChar: bracketleft
Encoding: 91 91 141
Width: 662
VWidth: 0
Flags: HW
LayerCount: 2
Fore
SplineSet
173 1449 m 0
 173 1485 226 1524 260 1524 c 0
 412 1524 565 1529 717 1529 c 0
 763 1529 816 1509 816 1455 c 0
 816 1399 769 1380 721 1380 c 2
 329 1380 l 1
 329 1097 311 815 311 532 c 0
 311 334 313 136 316 -62 c 1
 438 -61 560 -56 682 -56 c 0
 718 -56 757 -109 757 -143 c 0
 757 -200 719 -214 669 -214 c 0
 527 -214 385 -199 243 -199 c 0
 189 -199 179 -165 179 -119 c 0
 179 18 184 155 184 292 c 0
 184 678 173 1063 173 1449 c 0
EndSplineSet
EndChar

StartChar: bracketright
Encoding: 93 93 142
Width: 664
VWidth: 0
Flags: HW
LayerCount: 2
Fore
SplineSet
0 -214 m 0
 -50 -214 -88 -200 -88 -143 c 0
 -88 -64 -2 -54 59 -54 c 0
 109 -54 158 -63 208 -63 c 2
 353 -63 l 1
 356 135 358 334 358 532 c 0
 358 815 341 1097 340 1380 c 1
 -66 1380 l 2
 -108 1380 -147 1411 -147 1455 c 0
 -147 1509 -94 1529 -48 1529 c 0
 104 1529 257 1524 409 1524 c 0
 443 1524 496 1485 496 1449 c 0
 496 1113 488 776 488 440 c 0
 488 219 505 57 505 -48 c 0
 505 -150 489 -199 426 -199 c 0
 284 -199 142 -214 0 -214 c 0
EndSplineSet
EndChar

StartChar: breve
Encoding: 728 728 143
Width: 691
VWidth: 0
Flags: HW
LayerCount: 2
Fore
SplineSet
120 1282 m 1
 177 1282 l 1
 214 1199 279 1166 367 1166 c 0
 448 1166 531 1196 555 1282 c 1
 613 1282 l 1
 613 1130 520 1035 367 1035 c 0
 209 1035 124 1128 120 1282 c 1
EndSplineSet
EndChar

StartChar: brokenbar
Encoding: 166 166 144
Width: 826
VWidth: 0
Flags: HW
LayerCount: 2
Fore
SplineSet
355 1343 m 1
 372 1371 407 1379 438 1379 c 1
 456 1335 470 1296 470 1247 c 2
 470 739 l 1
 445 717 421 707 387 707 c 1
 357 793 355 911 355 1010 c 2
 355 1343 l 1
355 407 m 1
 372 435 407 443 438 443 c 1
 470 382 477 282 477 183 c 0
 477 111 473 40 473 -17 c 0
 473 -82 472 -172 438 -229 c 1
 398 -229 388 -213 355 -197 c 1
 355 407 l 1
EndSplineSet
EndChar

StartChar: bullet
Encoding: 8226 8226 145
Width: 736
VWidth: 0
Flags: HW
LayerCount: 2
Fore
SplineSet
366 852 m 0
 521 852 628 719 628 573 c 0
 628 435 529 315 372 315 c 0
 213 315 109 446 109 589 c 0
 109 729 209 852 366 852 c 0
EndSplineSet
EndChar

StartChar: c
Encoding: 99 99 146
Width: 980
VWidth: 0
Flags: HW
PickledData: "(dp1
S'com.typemytype.robofont.layerData'
p2
(dp3
S'b'
(dp4
S'name'
p5
S'c'
sS'lib'
p6
(dp7
sS'unicodes'
p8
(tsS'width'
p9
I980
sS'contours'
p10
(tsS'components'
p11
(tsS'anchors'
p12
(tsss."
LayerCount: 2
Fore
SplineSet
847 211 m 1
 879 188 l 1
 836 49 678 -20 525 -20 c 0
 239 -20 82 203 82 448 c 0
 82 713 284 926 581 926 c 0
 748.467 926 885.121 850.863 886.013 728.246 c 0
 886.013 660.677 828.71 642 795 642 c 0
 645 642 784 843 557 852 c 0
 553.509 852.139 550.022 852.208 546.543 852.208 c 0
 399.555 852.208 265 728.636 265 502 c 0
 265 298 375 120 582 120 c 0
 703 120 768 149 847 211 c 1
EndSplineSet
EndChar

StartChar: c_k
Encoding: 65541 -1 147
Width: 2041
VWidth: 0
Flags: HW
LayerCount: 2
Fore
SplineSet
715 774 m 0
 715 832 637 846 593 846 c 0
 388 846 288 655 288 472 c 0
 288 277 359 95 582 95 c 0
 680 95 796 131 849 131 c 0
 862 131 862 117 862 108 c 0
 862 104 857 94 856 90 c 1
 771 11 649 -17 536 -17 c 0
 264 -17 82 171 82 442 c 0
 82 730 310 902 583 902 c 0
 646 902 710 892 768 866 c 1
 740 935 718 1009 718 1084 c 0
 718 1282 898 1329 1062 1329 c 0
 1150 1329 1234 1315 1320 1298 c 1
 1320 475 l 1
 1382 475 l 1
 1732 778 l 1
 1734 789 l 1
 1734 852 1605 813 1605 855 c 0
 1605 859 1607 864 1608 868 c 1
 2002 868 l 1
 2003 864 2005 859 2005 855 c 0
 2005 831 1855 804 1820 774 c 2
 1524 522 l 1
 1858 94 l 2
 1882 64 2034 41 2034 13 c 0
 2034 9 2032 4 2031 0 c 1
 1536 0 l 1
 1531 12 l 1
 1532 50 1648 24 1648 74 c 0
 1648 87 1410 388 1385 420 c 1
 1320 420 l 1
 1320 116 l 2
 1320 32 1472 60 1472 14 c 0
 1472 10 1469 4 1468 0 c 1
 944 0 l 1
 943 4 941 8 941 12 c 0
 941 55 1114 43 1114 120 c 2
 1114 1225 l 1
 1050 1225 l 2
 921 1225 813 1161 813 1014 c 0
 813 897 892 789 892 707 c 0
 892 647 841 604 783 604 c 0
 731 604 695 638 695 691 c 0
 695 721 715 746 715 774 c 0
EndSplineSet
EndChar

StartChar: caron
Encoding: 711 711 149
Width: 1032
VWidth: 0
Flags: HW
LayerCount: 2
Fore
SplineSet
588 1009 m 1
 543 997 497 989 451 989 c 1
 393 1037 257 1298 226 1375 c 1
 233 1386 250 1388 262 1388 c 1
 334 1351 459 1198 516 1137 c 1
 573 1206 673 1342 745 1388 c 1
 757 1388 774 1386 781 1375 c 1
 730 1248 654 1128 588 1009 c 1
EndSplineSet
EndChar

StartChar: cedilla
Encoding: 184 184 153
Width: 691
VWidth: 0
Flags: HW
LayerCount: 2
Fore
SplineSet
358 11 m 1
 358 11 375 -62 382 -94 c 1
 495 -110 543 -177 543 -246 c 0
 543 -357 436 -425 312 -425 c 0
 267 -425 227 -415 176 -393 c 1
 189 -336 l 1
 217 -350 245 -356 271 -356 c 0
 330 -356 380 -321 380 -268 c 0
 380 -194 311 -168 228 -164 c 1
 275 11 l 1
 358 11 l 1
EndSplineSet
EndChar

StartChar: cent
Encoding: 162 162 154
Width: 1049
VWidth: 0
Flags: HW
LayerCount: 2
Fore
SplineSet
396 -201 m 1
 448 6 l 1
 254 56 125 224 125 447 c 0
 125 676 284 923 596 923 c 0
 606 923 616 922 627 922 c 1
 657 1107 l 2
 665 1157 686 1196 704 1223 c 1
 720 1223 737 1223 755 1221 c 1
 754 1187 753 1158 743 1097 c 2
 714 916 l 1
 844 896 933 832 933 735 c 0
 933 675 891 639 844 639 c 0
 722 639 818 775 691 830 c 1
 563 139 l 1
 600 126 632 122 668 122 c 0
 758 122 834 155 891 212 c 1
 904 206 914 198 923 189 c 1
 919 173 913 158 907 142 c 0
 872 50 722 -16 604 -19 c 1
 579 -26 558 -29 536 -29 c 2
 527 -29 l 1
 512 -157 489 -209 462 -253 c 1
 435 -253 411 -244 396 -201 c 1
485 165 m 1
 611 846 l 1
 453 846 311 742 311 516 c 0
 311 332 368 222 485 165 c 1
EndSplineSet
EndChar

StartChar: circumflex
Encoding: 710 710 155
Width: 1032
VWidth: 0
Flags: HW
LayerCount: 2
Fore
SplineSet
508 1350 m 1
 472 1311 255 1068 230 1068 c 0
 220 1068 213 1075 213 1085 c 0
 213 1096 400 1467 422 1507 c 0
 440 1539 469 1571 508 1571 c 0
 547 1571 576 1538 593 1507 c 0
 615 1466 803 1096 803 1085 c 0
 803 1075 796 1068 786 1068 c 0
 761 1068 544 1311 508 1350 c 1
EndSplineSet
EndChar

StartChar: ck
Encoding: 65542 -1 156
Width: 2041
VWidth: 0
Flags: HW
LayerCount: 2
Fore
SplineSet
715 774 m 0
 715 832 637 846 593 846 c 0
 388 846 288 655 288 472 c 0
 288 277 359 95 582 95 c 0
 680 95 796 131 849 131 c 0
 862 131 862 117 862 108 c 0
 862 104 857 94 856 90 c 1
 771 11 649 -17 536 -17 c 0
 264 -17 82 171 82 442 c 0
 82 730 310 902 583 902 c 0
 646 902 710 892 768 866 c 1
 740 935 718 1009 718 1084 c 0
 718 1282 898 1329 1062 1329 c 0
 1150 1329 1234 1315 1320 1298 c 1
 1320 475 l 1
 1382 475 l 1
 1732 778 l 1
 1734 789 l 1
 1734 852 1605 813 1605 855 c 0
 1605 859 1607 864 1608 868 c 1
 2002 868 l 1
 2003 864 2005 859 2005 855 c 0
 2005 831 1855 804 1820 774 c 2
 1524 522 l 1
 1858 94 l 2
 1882 64 2034 41 2034 13 c 0
 2034 9 2032 4 2031 0 c 1
 1536 0 l 1
 1531 12 l 1
 1532 50 1648 24 1648 74 c 0
 1648 87 1410 388 1385 420 c 1
 1320 420 l 1
 1320 116 l 2
 1320 32 1472 60 1472 14 c 0
 1472 10 1469 4 1468 0 c 1
 944 0 l 1
 943 4 941 8 941 12 c 0
 941 55 1114 43 1114 120 c 2
 1114 1225 l 1
 1050 1225 l 2
 921 1225 813 1161 813 1014 c 0
 813 897 892 789 892 707 c 0
 892 647 841 604 783 604 c 0
 731 604 695 638 695 691 c 0
 695 721 715 746 715 774 c 0
EndSplineSet
EndChar

StartChar: colon
Encoding: 58 58 157
Width: 590
VWidth: 0
Flags: HW
LayerCount: 2
Fore
SplineSet
294 1039 m 0
 371 1039 433 976 433 904 c 0
 433 832 371 768 294 768 c 0
 218 768 157 830 157 904 c 0
 157 976 218 1039 294 1039 c 0
294 251 m 0
 371 251 433 189 433 116 c 0
 433 44 371 -20 294 -20 c 0
 218 -20 157 42 157 116 c 0
 157 189 218 251 294 251 c 0
EndSplineSet
EndChar

StartChar: comma
Encoding: 44 44 158
Width: 563
VWidth: 0
Flags: HW
LayerCount: 2
Fore
SplineSet
116 -268 m 1
 107 -253 98 -236 98 -208 c 1
 202 -174 318 -153 318 -23 c 1
 299 22 269 47 216 56 c 0
 153 66 118 110 118 174 c 0
 118 252 173 311 258 311 c 0
 364 311 451 217 451 45 c 0
 451 -161 294 -265 116 -268 c 1
EndSplineSet
EndChar

StartChar: commaaccent
Encoding: 65543 -1 159
Width: 734
VWidth: 0
Flags: HW
LayerCount: 2
Fore
SplineSet
207 -238 m 0
 207 -162 268 -90 360 -90 c 0
 445 -90 526 -138 526 -312 c 0
 526 -493 374 -577 290 -577 c 0
 267 -577 248 -570 248 -539 c 0
 248 -487 373 -514 373 -386 c 1
 264 -386 207 -319 207 -238 c 0
EndSplineSet
EndChar

StartChar: copyright
Encoding: 169 169 160
Width: 1507
VWidth: 0
Flags: HW
LayerCount: 2
Fore
SplineSet
1080 1080 m 1
 1101 840 l 1
 1089 838 1081 838 1071 838 c 1
 1022 972 933 1055 775 1055 c 0
 594 1055 471 901 471 678 c 0
 471 424 594 282 801 282 c 0
 932 282 1002 322 1088 392 c 1
 1098 389 1107 382 1114 376 c 1
 1059 269 904 205 763 205 c 0
 505 205 310 388 310 647 c 0
 310 901 511 1081 756 1096 c 1
 870 1096 940 1054 989 1054 c 0
 1001 1054 1008 1060 1016 1080 c 1
 1080 1080 l 1
1435 646 m 0
 1435 258 1130 -23 753 -23 c 0
 397 -23 73 255 73 646 c 0
 73 1033 395 1314 754 1314 c 0
 1111 1314 1435 1041 1435 646 c 0
1350 627 m 0
 1350 969 1110 1249 748 1249 c 0
 404 1249 162 982 162 666 c 0
 162 314 413 41 772 41 c 0
 1092 41 1350 300 1350 627 c 0
EndSplineSet
EndChar

StartChar: currency
Encoding: 164 164 161
Width: 1188
VWidth: 0
Flags: HW
LayerCount: 2
Fore
SplineSet
817 1044 m 1
 860 1098 897 1157 957 1194 c 1
 991 1173 1019 1143 1039 1109 c 1
 1005 1055 954 1007 912 959 c 1
 968 887 998 806 998 714 c 0
 998 621 970 544 914 470 c 1
 955 421 1015 373 1046 318 c 1
 1023 286 993 258 959 238 c 1
 911 267 858 340 822 384 c 1
 754 340 677 318 596 318 c 0
 517 318 441 341 373 382 c 1
 329 327 293 268 231 233 c 1
 198 255 169 283 149 317 c 1
 185 371 234 419 277 467 c 1
 220 541 191 619 191 713 c 0
 191 805 220 885 275 958 c 1
 234 1007 174 1055 142 1110 c 1
 166 1141 196 1170 230 1190 c 1
 280 1160 333 1087 369 1042 c 1
 437 1084 514 1109 594 1109 c 0
 675 1109 748 1087 817 1044 c 1
331 721 m 0
 331 568 437 445 594 445 c 0
 738 445 857 562 857 707 c 0
 857 859 750 983 594 983 c 0
 450 983 331 865 331 721 c 0
EndSplineSet
EndChar

StartChar: d
Encoding: 100 100 162
Width: 1200
VWidth: 0
Flags: HW
PickledData: "(dp1
S'com.typemytype.robofont.layerData'
p2
(dp3
S'b'
(dp4
S'name'
p5
S'd'
sS'lib'
p6
(dp7
sS'unicodes'
p8
(tsS'width'
p9
I1200
sS'contours'
p10
(tsS'components'
p11
(tsS'anchors'
p12
(tsss."
LayerCount: 2
Fore
SplineSet
822 849 m 1
 822 1175 l 1
 793 1220 652 1266 652 1266 c 1
 654 1301 l 1
 936 1369 l 1
 1008 1376 l 1
 1008 199 l 2
 1008 109 1112 87 1170 87 c 1
 1170 32 l 1
 903 -12 l 1
 836 -12 l 1
 827 143 l 1
 733 35 631 -20 511 -20 c 0
 284 -20 103 153 103 414 c 0
 103 714 302 923 567 923 c 0
 657 923 737 889 822 849 c 1
822 222 m 1
 822 510 l 2
 822 625 811 706 736 772 c 0
 684 818 621 846 557 846 c 0
 393 846 289 671 289 477 c 0
 289 296 385 99 585 99 c 0
 692 99 771 154 822 222 c 1
EndSplineSet
EndChar

StartChar: dagger
Encoding: 8224 8224 163
Width: 1051
VWidth: 0
Flags: HW
LayerCount: 2
Fore
SplineSet
424 1312 m 2
 620 1312 l 2
 642 1312 672 1312 672 1290 c 0
 672 1281 632 1259 626 1207 c 2
 576 801 l 1
 899 846 l 2
 932 850 906 896 938 896 c 0
 982.507 896 987.384 838.69 987.384 781.672 c 0
 987.384 765.667 987 749.685 987 735 c 0
 987 680 979 618 939 618 c 0
 906 618 930 666 898 670 c 2
 576 714 l 1
 633 -118 l 2
 637 -172 675 -190 675 -202 c 0
 675 -221 635 -225 625 -225 c 2
 420 -225 l 2
 410 -225 370 -221 370 -202 c 0
 370 -190 408 -172 412 -118 c 2
 468 714 l 1
 151 669 l 2
 120 664 146 617 112 617 c 0
 71 617 67 670 67 700 c 0
 67 711 63 746 63 783 c 0
 63 837 71 896 113 896 c 0
 144 896 119 850 151 846 c 2
 468 801 l 1
 418 1207 l 2
 411 1259 372 1281 372 1290 c 0
 372 1312 402 1312 424 1312 c 2
EndSplineSet
EndChar

StartChar: degree
Encoding: 176 176 165
Width: 703
VWidth: 0
Flags: HW
LayerCount: 2
Fore
SplineSet
543 1045 m 0
 543 1145 458 1233 352 1233 c 0
 246 1233 160 1145 160 1045 c 0
 160 940 246 855 352 855 c 0
 458 855 543 943 543 1045 c 0
593 1045 m 0
 593 914 486 803 351 803 c 0
 214 803 106 911 106 1045 c 0
 106 1177 214 1287 351 1287 c 0
 486 1287 593 1177 593 1045 c 0
EndSplineSet
EndChar

StartChar: dieresis
Encoding: 168 168 166
Width: 1121
VWidth: 0
Flags: HW
LayerCount: 2
Fore
SplineSet
777 1301 m 0
 838 1301 887 1252 887 1192 c 0
 887 1131 838 1083 777 1083 c 0
 717 1083 669 1131 669 1192 c 0
 669 1252 717 1301 777 1301 c 0
338 1301 m 0
 398 1301 447 1252 447 1192 c 0
 447 1131 398 1083 338 1083 c 0
 277 1083 229 1131 229 1192 c 0
 229 1252 277 1301 338 1301 c 0
EndSplineSet
EndChar

StartChar: divide
Encoding: 247 247 167
Width: 1262
VWidth: 0
Flags: HW
LayerCount: 2
Fore
SplineSet
138 699 m 1
 424 699 711 700 1018 700 c 0
 1080 700 1120 684 1155 669 c 1
 1155 625 1153 581 1123 551 c 1
 832 551 543 548 243 548 c 0
 193 548 141 550 106 579 c 1
 106 636 130 669 138 699 c 1
630 125 m 0
 564 125 510 178 510 243 c 0
 510 306 564 362 630 362 c 0
 697 362 752 306 752 243 c 0
 752 180 697 125 630 125 c 0
630 888 m 0
 564 888 510 941 510 1006 c 0
 510 1069 564 1126 630 1126 c 0
 697 1126 752 1069 752 1006 c 0
 752 944 697 888 630 888 c 0
EndSplineSet
EndChar

StartChar: dollar
Encoding: 36 36 168
Width: 1072
VWidth: 0
Flags: HW
LayerCount: 2
Fore
SplineSet
454 785 m 1
 454 1138 l 1
 349 1130 252 1075 252 990 c 0
 252 936 284 887 359 842 c 2
 454 785 l 1
538 452 m 1
 537 335 536 197 536 36 c 1
 656 36 757 95 757 222 c 0
 757 318 693 364 538 452 c 1
439 -141 m 1
 441 -26 l 1
 304 -18 169 21 73 80 c 1
 94 366 l 1
 105 369 112 371 115 371 c 0
 140 371 154 317 159 282 c 0
 175 159 304 72 449 45 c 1
 449 502 l 1
 310 581 l 2
 163 664 95 763 95 886 c 0
 95 1096 265 1187 460 1200 c 1
 459 1232 459 1261 459 1285 c 0
 459 1385 467 1422 507 1422 c 0
 535 1422 552 1400 552 1278 c 0
 552 1251 552 1226 551 1201 c 1
 651 1196 751 1173 831 1138 c 1
 861 881 l 1
 849 878 840 876 834 876 c 0
 808 876 784 928 777 961 c 0
 755 1066 657 1120 550 1136 c 1
 547 1053 544 943 541 732 c 1
 695 641 l 2
 884 529 931 455 931 319 c 0
 931 81 747 -16 536 -27 c 1
 536 -125 l 2
 536 -205 506 -228 484 -228 c 0
 464 -228 440 -197 439 -141 c 1
EndSplineSet
EndChar

StartChar: dotaccent
Encoding: 729 729 169
Width: 691
VWidth: 0
Flags: HW
LayerCount: 2
Fore
SplineSet
340 1274 m 0
 401 1274 450 1225 450 1165 c 0
 450 1104 401 1056 340 1056 c 0
 281 1056 231 1104 231 1165 c 0
 231 1225 281 1274 340 1274 c 0
EndSplineSet
EndChar

StartChar: dotaccentcmb
Encoding: 775 775 170
Width: 691
VWidth: 0
Flags: HW
LayerCount: 2
Fore
SplineSet
345 900 m 0
 406 900 455 851 455 791 c 0
 455 730 406 682 345 682 c 0
 286 682 236 730 236 791 c 0
 236 851 286 900 345 900 c 0
EndSplineSet
EndChar

StartChar: dotlessi
Encoding: 305 305 171
Width: 589
VWidth: 0
Flags: HW
LayerCount: 2
Fore
SplineSet
219 181 m 2
 219 707 l 1
 189 759 96 757 67 791 c 1
 67 802 68 813 69 826 c 1
 346 906 l 1
 405 912 l 1
 405 220 l 2
 405 187 408 159 415 135 c 1
 427 68 530 71 559 50 c 1
 559 33 558 17 557 0 c 1
 49 0 l 1
 47 18 47 34 47 50 c 1
 91 74 219 83 219 181 c 2
EndSplineSet
EndChar

StartChar: dotlessj
Encoding: 567 567 172
Width: 540
VWidth: 0
Flags: HW
LayerCount: 2
Fore
SplineSet
201 88 m 1
 201 710 l 1
 172 756 49 797 39 797 c 1
 39 832 l 1
 319 911 l 1
 387 918 l 1
 387 125 l 2
 387 -168 251 -282 14 -308 c 1
 -1 -250 l 1
 163 -176 190 -136 201 88 c 1
EndSplineSet
EndChar

StartChar: e
Encoding: 101 101 174
Width: 963
VWidth: 0
Flags: HW
PickledData: "(dp1
S'com.typemytype.robofont.layerData'
p2
(dp3
S'b'
(dp4
S'name'
p5
S'e'
sS'lib'
p6
(dp7
sS'unicodes'
p8
(tsS'width'
p9
I963
sS'contours'
p10
(tsS'components'
p11
(tsS'anchors'
p12
(tsss."
LayerCount: 2
Fore
SplineSet
259 543 m 1
 637 558 l 2
 663.995 559.125 690 564 711 574 c 1
 701.161 748.605 632.285 859 500 859 c 0
 363.738 859 271.287 726.902 259 543 c 1
891 494 m 1
 259 494 l 1
 259 234.09 414.54 121 597 121 c 0
 683 121 762 145 840 193 c 1
 869 165 l 1
 819 44 652 -20 522 -20 c 0
 267 -20 82 169 82 447 c 0
 82 734 291 926 523 926 c 0
 716 926 854 787.928 880 588 c 1
 887 559 891 530 891 503 c 2
 891 494 l 1
EndSplineSet
EndChar

StartChar: eight
Encoding: 56 56 180
Width: 1013
VWidth: 0
Flags: HW
LayerCount: 2
Fore
SplineSet
315 1005 m 0
 315 897 410 825 526 754 c 1
 641 829 713 889 713 986 c 0
 713 1065 674 1142 516 1142 c 0
 387 1142 315 1091 315 1005 c 0
504 59 m 0
 683 59 735 183 735 285 c 0
 735 392 621 465 494 547 c 2
 474 560 l 1
 335 472 214 391 214 285 c 0
 214 147 313 59 504 59 c 0
82 283 m 0
 82 436 209 537 349 631 c 1
 236 714 137 811 137 951 c 0
 137 1099 270 1215 516 1215 c 0
 756 1215 841 1078 841 980 c 0
 841 846 755 767 642 681 c 1
 790 588 935 480 935 272 c 0
 935 132 836 -20 489 -20 c 0
 241 -20 82 115 82 283 c 0
EndSplineSet
EndChar

StartChar: ellipsis
Encoding: 8230 8230 181
Width: 1808
VWidth: 0
Flags: HW
LayerCount: 2
Fore
SplineSet
1506 251 m 0
 1583 251 1644 189 1644 116 c 0
 1644 44 1583 -20 1506 -20 c 0
 1430 -20 1369 42 1369 116 c 0
 1369 189 1430 251 1506 251 c 0
905 251 m 0
 981 251 1043 189 1043 116 c 0
 1043 44 981 -20 905 -20 c 0
 829 -20 768 42 768 116 c 0
 768 189 829 251 905 251 c 0
303 251 m 0
 379 251 441 189 441 116 c 0
 441 44 379 -20 303 -20 c 0
 227 -20 166 42 166 116 c 0
 166 189 227 251 303 251 c 0
EndSplineSet
EndChar

StartChar: emdash
Encoding: 8212 8212 183
Width: 1649
VWidth: 0
Flags: HW
LayerCount: 2
Fore
SplineSet
40 503 m 1
 157 523 275 525 393 525 c 2
 1552 525 l 1
 1584 514 1608 494 1608 455 c 1
 1491 435 1372 435 1254 435 c 2
 98 435 l 2
 64 435 40 473 40 503 c 1
EndSplineSet
EndChar

StartChar: endash
Encoding: 8211 8211 184
Width: 929
VWidth: 0
Flags: HW
LayerCount: 2
Fore
SplineSet
40 505 m 1
 114 524 192 525 268 525 c 2
 831 525 l 1
 866 512 889 492 889 453 c 1
 833 437 770 435 710 435 c 2
 98 435 l 2
 63 435 40 475 40 505 c 1
EndSplineSet
EndChar

StartChar: eng
Encoding: 331 331 185
Width: 1114
VWidth: 0
Flags: HW
LayerCount: 2
Fore
SplineSet
892 82 m 2
 892 431 l 2
 892 671 885 833 695 833 c 0
 582 833 487 720 433 640 c 1
 433 120 l 2
 433 28 621 66 621 18 c 0
 621 12 620 6 617 0 c 1
 67 0 l 1
 66 4 62 11 62 18 c 0
 62 23 64 26 67 28 c 0
 140 71 227 38 227 126 c 2
 227 732 l 2
 227 817 40 779 40 824 c 0
 40 828 42 834 45 842 c 1
 413 880 l 1
 433 732 l 1
 488 803 590 902 755 902 c 0
 975 902 1088 743 1088 463 c 2
 1088 119 l 2
 1088 -199 913 -296 772 -296 c 0
 675 -296 594 -250 594 -198 c 0
 594 -134 626 -117 669 -117 c 0
 783 -117 721 -224 792 -224 c 0
 832 -224 892 -162 892 82 c 2
EndSplineSet
EndChar

StartChar: equal
Encoding: 61 61 187
Width: 845
VWidth: 0
Flags: HW
LayerCount: 2
Fore
SplineSet
602 487 m 2
 646 487 713 483 713 437 c 0
 713 400 669 393 629 393 c 0
 609 393 590 395 578 395 c 2
 266 395 l 2
 255 395 238 394 221 394 c 0
 179 394 131 400 131 442 c 0
 131 482 185 487 227 487 c 2
 602 487 l 2
602 729 m 2
 646 729 713 725 713 679 c 0
 713 642 669 635 629 635 c 0
 609 635 590 637 578 637 c 2
 266 637 l 2
 255 637 238 636 221 636 c 0
 179 636 131 642 131 684 c 0
 131 724 185 729 227 729 c 2
 602 729 l 2
EndSplineSet
EndChar

StartChar: eth
Encoding: 240 240 188
Width: 1091
VWidth: 0
Flags: HW
LayerCount: 2
Fore
SplineSet
282 490 m 0
 282 337 353 57 548 57 c 0
 748 57 810 262 810 428 c 0
 810 491 809 578 792 638 c 0
 761 742 643 849 532 849 c 0
 333 849 282 654 282 490 c 0
946 1262 m 1
 915 1224 798 1184 751 1159 c 1
 920 988 1007 745 1007 507 c 0
 1007 233 836 -21 542 -21 c 0
 285 -21 82 187 82 443 c 0
 82 701 248 926 520 926 c 0
 602 926 686 890 748 837 c 1
 751 839 l 1
 732 935 689 1026 629 1104 c 1
 555 1074 485 1037 412 1004 c 1
 393 1015 379 1034 373 1055 c 1
 423 1108 517 1134 581 1167 c 1
 521 1236 444 1295 369 1347 c 1
 416 1380 l 1
 516 1341 614 1292 693 1218 c 1
 863 1306 l 1
 900 1306 941 1299 946 1262 c 1
EndSplineSet
EndChar

StartChar: exclam
Encoding: 33 33 189
Width: 567
VWidth: 0
Flags: HW
LayerCount: 2
Fore
SplineSet
162 92 m 0
 162 159 215 216 283 216 c 0
 351 216 407 160 407 92 c 0
 407 24 350 -29 283 -29 c 0
 216 -29 162 25 162 92 c 0
279 1312 m 0
 352 1312 409 1278 409 1199 c 0
 409 1023 344 647 317 466 c 0
 314 447 312 356 283 356 c 0
 249 356 251 427 248 450 c 0
 223 644 153 1009 153 1201 c 0
 153 1283 202 1312 279 1312 c 0
EndSplineSet
EndChar

StartChar: exclamdown
Encoding: 161 161 190
Width: 567
VWidth: 0
Flags: HW
LayerCount: 2
Fore
SplineSet
162 1191 m 0
 162 1258 216 1312 283 1312 c 0
 350 1312 407 1259 407 1191 c 0
 407 1123 351 1067 283 1067 c 0
 215 1067 162 1124 162 1191 c 0
279 -29 m 0
 202 -29 153 0 153 82 c 0
 153 274 223 639 248 833 c 0
 251 856 249 927 283 927 c 0
 312 927 314 836 317 817 c 0
 344 636 409 260 409 84 c 0
 409 5 352 -29 279 -29 c 0
EndSplineSet
EndChar

StartChar: f
Encoding: 102 102 191
Width: 754
VWidth: 0
Flags: HW
PickledData: "(dp1
S'com.typemytype.robofont.layerData'
p2
(dp3
S'b'
(dp4
S'name'
p5
S'f'
sS'lib'
p6
(dp7
sS'unicodes'
p8
(tsS'width'
p9
I754
sS'contours'
p10
((dp11
S'points'
p12
((dp13
S'segmentType'
p14
S'line'
p15
sS'x'
I453
sS'smooth'
p16
I00
sS'y'
I668
s(dp17
S'y'
I745
sS'x'
I526
sg16
I00
s(dp18
S'y'
I818
sS'x'
I616
sg16
I00
s(dp19
g14
S'curve'
p20
sS'x'
I719
sg16
I01
sS'y'
I818
s(dp21
S'y'
I818
sS'x'
I909
sg16
I00
s(dp22
S'y'
I657
sS'x'
I909
sg16
I00
s(dp23
g14
S'curve'
p24
sS'x'
I909
sg16
I01
sS'y'
I449
s(dp25
g14
S'line'
p26
sS'x'
I909
sg16
I01
sS'y'
I226
s(dp27
S'y'
I198
sS'x'
I909
sg16
I00
s(dp28
S'y'
I172
sS'x'
I908
sg16
I00
s(dp29
g14
S'curve'
p30
sS'x'
I904
sg16
I01
sS'y'
I149
s(dp31
S'y'
I76
sS'x'
I892
sg16
I00
s(dp32
S'y'
I70
sS'x'
I797
sg16
I00
s(dp33
g14
S'curve'
p34
sS'x'
I746
sg16
I00
sS'y'
I50
s(dp35
S'y'
I34
sS'x'
I746
sg16
I00
s(dp36
S'y'
I0
sS'x'
I748
sg16
I00
s(dp37
g14
S'curve'
p38
sS'x'
I748
sg16
I00
sS'y'
I0
s(dp39
g14
S'line'
p40
sS'x'
I1241
sg16
I00
sS'y'
I0
s(dp41
S'y'
I0
sS'x'
I1241
sg16
I00
s(dp42
S'y'
I16
sS'x'
I1242
sg16
I00
s(dp43
g14
S'curve'
p44
sS'x'
I1242
sg16
I01
sS'y'
I32
s(dp45
S'y'
I40
sS'x'
I1242
sg16
I00
s(dp46
S'y'
I48
sS'x'
I1242
sg16
I00
s(dp47
g14
S'curve'
p48
sS'x'
I1241
sg16
I00
sS'y'
I54
s(dp49
S'y'
I91
sS'x'
I1129
sg16
I00
s(dp50
S'y'
I73
sS'x'
I1096
sg16
I00
s(dp51
g14
S'curve'
p52
sS'x'
I1096
sg16
I01
sS'y'
I245
s(dp53
g14
S'line'
p54
sS'x'
I1096
sg16
I01
sS'y'
I468
s(dp55
S'y'
I512
sS'x'
I1096
sg16
I00
s(dp56
S'y'
I556
sS'x'
I1095
sg16
I00
s(dp57
g14
S'curve'
p58
sS'x'
I1093
sg16
I01
sS'y'
I599
s(dp59
S'y'
I819
sS'x'
I1084
sg16
I00
s(dp60
S'y'
I926
sS'x'
I972
sg16
I00
s(dp61
g14
S'curve'
p62
sS'x'
I781
sg16
I01
sS'y'
I926
s(dp63
S'y'
I926
sS'x'
I642
sg16
I00
s(dp64
S'y'
I847
sS'x'
I524
sg16
I00
s(dp65
g14
S'curve'
p66
sS'x'
I456
sg16
I00
sS'y'
I755
s(dp67
g14
S'line'
p68
sS'x'
I445
sg16
I00
sS'y'
I917
s(dp69
g14
S'line'
p70
sS'x'
I384
sg16
I00
sS'y'
I913
s(dp71
g14
S'line'
p72
sS'x'
I111
sg16
I00
sS'y'
I845
s(dp73
g14
S'line'
p74
sS'x'
I108
sg16
I00
sS'y'
I811
s(dp75
S'y'
I811
sS'x'
I108
sg16
I00
s(dp76
S'y'
I778
sS'x'
I241
sg16
I00
s(dp77
g14
S'curve'
p78
sS'x'
I267
sg16
I00
sS'y'
I727
s(dp79
g14
S'line'
p80
sS'x'
I267
sg16
I01
sS'y'
I185
s(dp81
S'y'
I89
sS'x'
I267
sg16
I00
s(dp82
S'y'
I75
sS'x'
I202
sg16
I00
s(dp83
g14
S'curve'
p84
sS'x'
I112
sg16
I00
sS'y'
I54
s(dp85
S'y'
I48
sS'x'
I111
sg16
I00
s(dp86
S'y'
I40
sS'x'
I111
sg16
I00
s(dp87
g14
S'curve'
p88
sS'x'
I111
sg16
I01
sS'y'
I32
s(dp89
S'y'
I16
sS'x'
I111
sg16
I00
s(dp90
S'y'
I0
sS'x'
I112
sg16
I00
s(dp91
g14
S'curve'
p92
sS'x'
I112
sg16
I00
sS'y'
I0
s(dp93
g14
S'line'
p94
sS'x'
I627
sg16
I00
sS'y'
I0
s(dp95
S'y'
I0
sS'x'
I627
sg16
I00
s(dp96
S'y'
I33
sS'x'
I629
sg16
I00
s(dp97
g14
S'curve'
p98
sS'x'
I629
sg16
I00
sS'y'
I50
s(dp99
S'y'
I61
sS'x'
I518
sg16
I00
s(dp100
S'y'
I101
sS'x'
I453
sg16
I00
s(dp101
g14
S'curve'
p102
sS'x'
I453
sg16
I01
sS'y'
I222
stp103
stp104
sS'components'
p105
(tsS'anchors'
p106
((dp107
S'y'
F900
sS'x'
F607
sg5
S'top'
p108
stp109
sss."
LayerCount: 2
Fore
SplineSet
685 824 m 1
 453 824 l 1
 453 259 l 2
 453 250.671 452.683 240.906 452.683 230.227 c 0
 452.683 162.7 465.357 58.6345 651 50 c 1
 651 35 651 19 650 0 c 1
 89 0 l 1
 88 19 87 35 87 50 c 1
 205 83 267 75 267 215 c 2
 267 824 l 1
 111 824 l 1
 109 899 l 1
 178 899 l 2
 242 899 262 901 263 971 c 0
 268 1231 397 1374 623 1374 c 0
 756 1374 865 1323 865 1230 c 0
 865 1179 831 1140 771 1140 c 0
 663 1140 695 1311 590 1311 c 0
 504 1311 453 1249 453 1021 c 2
 453 899 l 1
 683 899 l 1
 685 824 l 1
EndSplineSet
EndChar

StartChar: ff
Encoding: 65544 -1 192
Width: 1232
VWidth: 0
Flags: HW
LayerCount: 2
Fore
SplineSet
397 899 m 1
 780 899 l 1
 780 1028 785 1071 812 1161 c 1
 776 1226 710 1302 564 1302 c 0
 450 1302 397 1249 397 1021 c 2
 397 899 l 1
1196 818 m 1
 966 818 l 1
 966 259 l 2
 966 109 1003 57 1164 50 c 1
 1164 35 1164 19 1163 0 c 1
 637 0 l 1
 636 19 635 35 635 50 c 1
 734 58 780 115 780 215 c 2
 780 818 l 1
 397 818 l 1
 397 259 l 2
 397 121 425 56 575 50 c 1
 575 35 575 19 574 0 c 1
 48 0 l 1
 47 19 46 35 46 50 c 1
 155 60 211 103 211 215 c 2
 211 818 l 1
 53 818 l 1
 53 899 l 1
 122 899 l 2
 186 899 206 901 207 971 c 0
 212 1231 357 1374 607 1374 c 0
 733 1374 846 1345 894 1291 c 1
 954 1345 1035 1374 1136 1374 c 0
 1269 1374 1378 1323 1378 1230 c 0
 1378 1179 1344 1140 1284 1140 c 0
 1176 1140 1198 1302 1093 1302 c 0
 1007 1302 966 1249 966 1021 c 2
 966 899 l 1
 1196 899 l 1
 1196 818 l 1
EndSplineSet
EndChar

StartChar: ffi
Encoding: 65545 -1 193
Width: 1786
VWidth: 0
Flags: HW
LayerCount: 2
Fore
SplineSet
397 899 m 1
 780 899 l 1
 780 1028 785 1071 812 1161 c 1
 776 1226 710 1302 564 1302 c 0
 450 1302 397 1249 397 1021 c 2
 397 899 l 1
904 1277 m 1
 981 1341 1089 1375 1225 1375 c 0
 1408 1375 1597 1354 1597 1222 c 0
 1597 1182 1571 1124 1489 1124 c 0
 1369 1124 1412 1302 1182 1302 c 0
 1033 1302 965 1249 965 1021 c 2
 965 899 l 1
 1529 899 l 1
 1590 905 l 1
 1590 220 l 1
 1600 188 1600 159 1600 135 c 1
 1612 68 1711 71 1739 50 c 1
 1739 33 1739 17 1738 0 c 1
 1242 0 l 1
 1240 18 1240 34 1240 50 c 1
 1285 74 1404 83 1404 181 c 2
 1404 713 l 2
 1404 772 1392 818 1392 818 c 1
 965 818 l 1
 966 259 l 2
 966 109 1003 57 1164 50 c 1
 1164 35 1164 19 1163 0 c 1
 637 0 l 1
 636 19 635 35 635 50 c 1
 734 58 780 115 780 215 c 2
 780 818 l 1
 397 818 l 1
 397 259 l 2
 397 121 425 56 575 50 c 1
 575 35 575 19 574 0 c 1
 48 0 l 1
 47 19 46 35 46 50 c 1
 155 60 211 103 211 215 c 2
 211 818 l 1
 53 818 l 1
 53 899 l 1
 122 899 l 2
 186 899 206 901 207 971 c 0
 212 1231 357 1374 607 1374 c 0
 733 1374 840 1341 904 1277 c 1
EndSplineSet
EndChar

StartChar: ffl
Encoding: 65546 -1 194
Width: 1806
VWidth: 0
Flags: HW
LayerCount: 2
Fore
SplineSet
397 899 m 1
 780 899 l 1
 780 993 786 1092 802 1142 c 1
 743.879 1241.17 653.203 1301.41 572.373 1301.41 c 0
 477.972 1301.41 397 1219.25 397 1021 c 2
 397 899 l 1
1196 818 m 1
 966 818 l 1
 966 259 l 2
 966 109 1003 57 1164 50 c 1
 1164 35 1164 19 1163 0 c 1
 637 0 l 1
 636 19 635 35 635 50 c 1
 734 58 780 115 780 215 c 2
 780 818 l 1
 397 818 l 1
 397 259 l 2
 397 128 421 55 565 50 c 1
 565 35 565 19 564 0 c 1
 48 0 l 1
 47 19 46 35 46 50 c 1
 155 60 211 103 211 215 c 2
 211 818 l 1
 53 818 l 1
 53 899 l 1
 122 899 l 2
 186 899 206 901 207 971 c 0
 212 1231 361 1374 617 1374 c 0
 740 1374 846 1341 884 1282 c 1
 945 1342 1030 1374 1136 1374 c 0
 1384 1374 1604 1311 1604 1200 c 2
 1604 234 l 2
 1604 126 1642 62 1753 50 c 1
 1753 33 1751 0 1751 0 c 1
 1259 0 l 1
 1259 0 1258 34 1258 50 c 1
 1367 68 1418 116 1418 228 c 0
 1418 547 1417 870 1417 1190 c 0
 1417 1229 1293 1302 1133 1302 c 0
 1019 1302 966 1249 966 1021 c 2
 966 899 l 1
 1196 899 l 1
 1196 818 l 1
EndSplineSet
EndChar

StartChar: fi
Encoding: 65547 -1 195
Width: 1257
VWidth: 0
Flags: HW
LayerCount: 2
Fore
SplineSet
876 181 m 2
 876 713 l 2
 876 772 864 818 864 818 c 1
 397 818 l 1
 397 259 l 2
 397 198 401 151 419 112 c 1
 436 61 543 71 595 50 c 1
 595 35 595 19 594 0 c 1
 48 0 l 1
 47 19 46 35 46 50 c 1
 83 71 175 62 190 113 c 1
 205 141 211 175 211 215 c 2
 211 818 l 1
 53 818 l 1
 53 899 l 1
 122 899 l 2
 186 899 206 901 207 971 c 0
 212 1231 377 1375 657 1375 c 0
 860 1375 1069 1354 1069 1222 c 0
 1069 1181.99 1043.29 1123.89 961.209 1123.89 c 0
 959.174 1123.89 957.105 1123.93 955 1124 c 0
 827 1128 871 1302 614 1302 c 0
 465 1302 397 1249 397 1021 c 2
 397 899 l 1
 1001 899 l 1
 1062 905 l 1
 1062 220 l 2
 1062 188 1065 159 1072 135 c 1
 1084 68 1183 71 1211 50 c 1
 1211 33 1211 17 1210 0 c 1
 714 0 l 1
 712 18 712 34 712 50 c 1
 757 74 876 83 876 181 c 2
EndSplineSet
EndChar

StartChar: five
Encoding: 53 53 196
Width: 888
VWidth: 0
Flags: HW
LayerCount: 2
Fore
SplineSet
260 -193 m 0
 442 -193 516 -58 516 89 c 0
 516 257 404 423 137 458 c 0
 126 460 111 469 111 481 c 1
 204 899 l 1
 751 899 l 1
 715 764 l 1
 280 764 l 1
 218 546 l 1
 515 546 723 342 723 124 c 0
 723 -64 581 -249 283 -249 c 0
 89 -249 14 -201 14 -163 c 0
 14 -113 42 -67 88 -67 c 0
 105 -67 219 -193 260 -193 c 0
EndSplineSet
EndChar

StartChar: fl
Encoding: 65548 -1 197
Width: 1219
VWidth: 0
Flags: HW
LayerCount: 2
Fore
SplineSet
817 868 m 1
 817 953 821 1021 821 1075 c 0
 821 1208 796 1256 627 1256 c 0
 528 1256 411 1223 411 947 c 2
 411 868 l 1
 817 868 l 1
818 126 m 2
 817 809 l 1
 411 809 l 1
 411 110 l 2
 411 27 589 66 589 17 c 0
 589 16 588 10 585 0 c 1
 49 0 l 1
 46 10 45 16 45 17 c 0
 45 66 205 27 205 110 c 2
 205 809 l 1
 62 809 l 1
 62 868 l 1
 205 868 l 1
 205 965 l 2
 205 1233 416 1311 616 1311 c 0
 981 1311 1026 1213 1026 1123 c 0
 1026 936 1025 769 1025 622 c 2
 1025 120 l 2
 1025 36 1203 66 1203 18 c 0
 1203 12 1202 6 1199 0 c 1
 638 0 l 1
 635 8 634 10 634 17 c 0
 634 73 818 31 818 126 c 2
EndSplineSet
EndChar

StartChar: florin
Encoding: 402 402 198
Width: 952
VWidth: 0
Flags: HW
LayerCount: 2
Fore
SplineSet
265 863 m 1
 451 863 l 1
 495 1078 577 1367 845 1367 c 0
 914 1367 1010 1340 1010 1255 c 0
 1010 1207 970 1170 923 1170 c 0
 837 1170 861 1294 795 1294 c 0
 676 1294 643 937 628 863 c 1
 822 863 l 1
 805 794 l 1
 611 794 l 1
 486 161 l 2
 444 -53 350 -330 88 -330 c 0
 17 -330 -88 -309 -88 -218 c 0
 -88 -171 -51 -135 -4 -135 c 0
 77 -135 73 -257 135 -257 c 0
 226 -257 257 -97 275 -8 c 2
 434 794 l 1
 248 794 l 1
 265 863 l 1
EndSplineSet
EndChar

StartChar: foundryicon
Encoding: 65549 -1 199
Width: 1251
VWidth: 0
Flags: HW
LayerCount: 2
Fore
SplineSet
604 375 m 2
 592 375 l 1
 562 350 276 115 267 115 c 0
 249 115 232 119 232 141 c 0
 232 219 356 467 356 520 c 0
 356 545 166 711 137 735 c 0
 105 762 18 792 18 840 c 0
 18 863 38 870 57 870 c 0
 129 870 206 851 279 848 c 2
 469 840 l 1
 563 1075 l 2
 579 1115 617 1235 666 1235 c 0
 685 1235 715 1207 715 1188 c 0
 715 1076 754 957 779 848 c 1
 846 842 913 842 980 842 c 0
 1003 842 1061 849 1115 849 c 0
 1172 849 1225 841 1225 807 c 0
 1225 793 1143 747 1128 735 c 0
 1042 664 985 573 881 522 c 1
 881 384 975 245 975 106 c 0
 975 86 962 72 942 72 c 0
 887 72 725 375 604 375 c 2
EndSplineSet
EndChar

StartChar: four
Encoding: 52 52 200
Width: 1001
VWidth: 0
Flags: HW
LayerCount: 2
Fore
SplineSet
550 178 m 1
 550 757 l 1
 196 178 l 1
 550 178 l 1
550 -124 m 2
 550 74 l 1
 79 74 l 1
 65 121 l 1
 539 894 l 1
 577 902 637 911 743 911 c 1
 743 178 l 1
 876 178 l 2
 899 178 906 156 906 127 c 0
 906 100 899 74 891 74 c 2
 744 74 l 1
 744 -129 l 2
 744 -213 917 -179 917 -223 c 0
 917 -228 916 -234 913 -239 c 1
 375 -239 l 1
 372 -231 371 -226 371 -223 c 0
 371 -171 550 -211 550 -124 c 2
EndSplineSet
EndChar

StartChar: foursuperior
Encoding: 65550 -1 201
Width: 862
VWidth: 0
Flags: HW
LayerCount: 2
Fore
SplineSet
440 696 m 1
 440 1184 l 1
 154 696 l 1
 440 696 l 1
763 610 m 1
 604 610 l 1
 604 480 l 2
 604 412 759 445 759 412 c 0
 759 408 759 398 756 393 c 1
 294 393 l 1
 292 397 292 401 292 403 c 0
 292 451 440 416 440 484 c 2
 440 610 l 1
 60 610 l 1
 49 676 l 1
 432 1301 l 1
 502 1307 l 2
 541 1310 581 1314 604 1314 c 1
 604 702 l 1
 703 702 l 2
 766 702 782 683 782 659 c 0
 782 639.294 770.59 623.494 763 610 c 1
EndSplineSet
EndChar

StartChar: g
Encoding: 103 103 202
Width: 1001
VWidth: 0
Flags: HW
PickledData: "(dp1
S'com.typemytype.robofont.layerData'
p2
(dp3
S'b'
(dp4
S'name'
p5
S'g'
sS'lib'
p6
(dp7
sS'unicodes'
p8
(tsS'width'
p9
I1001
sS'contours'
p10
(tsS'components'
p11
(tsS'anchors'
p12
(tsss."
LayerCount: 2
Fore
SplineSet
938 918 m 1
 943 805 l 1
 927 810 900 812 871 812 c 0
 807 812 730 803 730 803 c 1
 730 803 809 714 809 626 c 0
 809 426.943 627 326 455 326 c 0
 417 326 379 332 327 344 c 1
 296 307.856 256 292.795 256 219 c 0
 256 150 401 165 653 147 c 0
 814 135 936 63 936 -76 c 0
 936 -262 708 -375 439 -375 c 0
 201 -375 73 -287 73 -208 c 0
 73 -152 116 -81 226 0 c 1
 153 30 107 79 107 139 c 0
 107 231.889 177 302.777 272 370 c 1
 169 424 107 505.931 107 613 c 0
 107 796 253 926 454 926 c 0
 539 926 611 906 674 873 c 1
 674 873 800 922 891 922 c 0
 914 922 938 918 938 918 c 1
446 852 m 0
 356 852 285 764 285 634 c 0
 285 500.9 343 392 474 392 c 0
 586 392 634 476.574 634 597 c 0
 634 763 551 852 446 852 c 0
557 -23 m 2
 472 -21 l 2
 414 -20 363 -16 300 -9 c 1
 230 -69 203 -118 203 -161 c 0
 203 -266 382 -292 465 -292 c 0
 599 -292 800 -247 800 -142 c 0
 800 -72 727 -27 557 -23 c 2
EndSplineSet
EndChar

StartChar: gcedilla
Encoding: 65551 -1 204
Width: 999
VWidth: 0
Flags: HW
PickledData: "(dp1
S'com.typemytype.robofont.layerData'
p2
(dp3
S'b'
(dp4
S'name'
p5
S'gcedilla'
p6
sS'lib'
p7
(dp8
sS'unicodes'
p9
(tsS'width'
p10
I999
sS'contours'
p11
(tsS'components'
p12
(tsS'anchors'
p13
(tsss."
LayerCount: 2
Fore
SplineSet
592 1163 m 0
 592 1087 531 1015 439 1015 c 0
 354 1015 273 1063 273 1237 c 0
 273 1418 425 1502 509 1502 c 0
 532 1502 551 1495 551 1464 c 0
 551 1412 426 1439 426 1311 c 1
 535 1311 592 1244 592 1163 c 0
EndSplineSet
Refer: 202 103 N 1 0 0 1 3 0 2
EndChar

StartChar: gcommaaccent
Encoding: 291 291 205
Width: 965
VWidth: 0
Flags: HW
LayerCount: 2
Fore
SplineSet
617 1595 m 1
 633 1582 647 1565 653 1539 c 1
 569 1491 474 1460 474 1356 c 1
 493 1329 519 1310 560 1303 c 0
 631 1290 665 1252 665 1190 c 0
 665 1116 609 1060 526 1060 c 0
 418 1060 345 1145 345 1266 c 0
 345 1410 444 1564 617 1595 c 1
941 888 m 1
 926 761 l 1
 873 777 733 803 733 803 c 1
 733 803 812 714 812 626 c 0
 812 415 630 308 458 308 c 0
 420 308 382 314 330 326 c 1
 299 302 259 292 259 243 c 0
 259 174 404 189 656 171 c 0
 817 159 939 87 939 -52 c 0
 939 -238 711 -351 442 -351 c 0
 204 -351 76 -263 76 -184 c 0
 76 -128 119 -57 229 24 c 1
 156 54 110 103 110 163 c 0
 110 239 180 297 275 352 c 1
 172 410 110 498 110 613 c 0
 110 796 256 926 457 926 c 0
 542 926 614 906 677 873 c 1
 677 873 803 892 894 892 c 0
 917 892 941 888 941 888 c 1
288 634 m 0
 288 491 346 374 477 374 c 0
 589 374 637 466 637 597 c 0
 637 763 554 852 449 852 c 0
 359 852 288 764 288 634 c 0
560 1 m 2
 481 2 l 2
 423 3 366 8 303 15 c 1
 233 -45 206 -94 206 -137 c 0
 206 -242 385 -268 468 -268 c 0
 602 -268 803 -223 803 -118 c 0
 803 -48 730 -1 560 1 c 2
EndSplineSet
EndChar

StartChar: germandbls
Encoding: 223 223 207
Width: 1200
VWidth: 0
Flags: HW
LayerCount: 2
Fore
SplineSet
197 252 m 2
 197 795 l 1
 107 795 l 1
 107 803 106 813 106 821 c 0
 106 837 110 850 134 850 c 2
 144 850 l 2
 159 850 174 851 185 862 c 1
 227 966 210 1111 330 1221 c 0
 402 1287 494 1322 619 1322 c 0
 850 1322 1021 1205 1021 1026 c 0
 1021 875 934 793 764 744 c 1
 764 741 l 1
 989 713 1123 547 1123 365 c 0
 1123 185 1001 -17 764 -17 c 0
 638 -17 559 49 559 133 c 0
 559 180 596 215 641 215 c 0
 749 215 675 84 745 73 c 1
 753 64 772 59 792 59 c 0
 866 59 936 166 936 309 c 0
 936 497 843 632 663 674 c 1
 635 684 608 696 584 707 c 1
 584 730 589 752 597 769 c 1
 769 786 840 881 840 1020 c 0
 840 1165 729 1246 601 1246 c 0
 472 1246 395 1151 386 978 c 0
 384 941 383 904 383 866 c 2
 383 249 l 2
 383 189 387 147 407 116 c 1
 416 58 484 82 502 50 c 1
 502 34 502 17 500 0 c 1
 41 0 l 1
 39 18 39 35 39 52 c 1
 80 85 173 75 188 156 c 0
 193 186 197 217 197 252 c 2
EndSplineSet
EndChar

StartChar: grave
Encoding: 96 96 208
Width: 968
VWidth: 0
Flags: HW
LayerCount: 2
Fore
SplineSet
252 1442 m 0
 237 1455 231 1471 231 1488 c 0
 231 1528 270 1570 312 1570 c 0
 333 1570 355 1560 373 1536 c 0
 438 1449 577 1262 660 1152 c 0
 667 1142 671 1131 671 1122 c 0
 671 1107 663 1096 648 1096 c 0
 638 1096 624 1102 608 1116 c 0
 539 1177 354 1349 252 1442 c 0
EndSplineSet
EndChar

StartChar: greater
Encoding: 62 62 209
Width: 626
VWidth: 0
Flags: HW
LayerCount: 2
Fore
SplineSet
147 18 m 0
 118 18 102 42 102 69 c 0
 102 145 379 480 431 553 c 1
 324 688 154 855 84 1009 c 1
 84 1047 124 1068 157 1068 c 1
 265 996 475 668 562 553 c 1
 223 59 l 2
 202 29 183 18 147 18 c 0
EndSplineSet
EndChar

StartChar: guillemotleft
Encoding: 171 171 210
Width: 794
VWidth: 0
Flags: HW
LayerCount: 2
Fore
SplineSet
693 808 m 2
 540 507 l 1
 689 200 l 2
 700 177 705 157 710 134 c 1
 701 123 690 113 669 113 c 1
 648 126 634 143 613 172 c 2
 369 507 l 1
 456 626 610 829 665 898 c 1
 693 898 709 885 718 872 c 1
 713 854 702 825 693 808 c 2
228 507 m 1
 294 377 407 201 442 85 c 1
 433 74 422 63 400 63 c 1
 378 78 362 94 339 124 c 2
 45 507 l 1
 346 885 l 2
 364 907 381 933 396 947 c 1
 425 947 440 934 449 922 c 1
 415 814 296 635 228 507 c 1
EndSplineSet
EndChar

StartChar: guillemotright
Encoding: 187 187 211
Width: 794
VWidth: 0
Flags: HW
LayerCount: 2
Fore
SplineSet
84 134 m 1
 108 258 200 398 254 507 c 1
 203 606 103 755 76 872 c 1
 89 889 108 897 129 897 c 1
 236 776 327 635 425 507 c 1
 386 453 201 168 125 112 c 1
 107 112 95 121 84 134 c 1
352 85 m 1
 397 234 494 372 566 507 c 1
 498 629 388 781 345 921 c 1
 357 938 377 946 398 946 c 1
 525 811 633 651 748 507 c 1
 461 132 l 2
 441 106 420 82 394 63 c 1
 376 63 363 72 352 85 c 1
EndSplineSet
EndChar

StartChar: guilsinglleft
Encoding: 8249 8249 212
Width: 539
VWidth: 0
Flags: HW
LayerCount: 2
Fore
SplineSet
427 872 m 1
 238 532 l 1
 422 185 l 2
 436 159 445 136 452 110 c 1
 443 99 432 88 411 88 c 1
 389 103 373 119 350 149 c 2
 56 532 l 1
 356 910 l 2
 374 933 393 957 406 972 c 1
 435 972 451 959 460 946 c 1
 453 925 437 893 427 872 c 1
EndSplineSet
EndChar

StartChar: guilsinglright
Encoding: 8250 8250 213
Width: 539
VWidth: 0
Flags: HW
LayerCount: 2
Fore
SplineSet
87 110 m 1
 124 249 235 411 300 532 c 1
 235 648 121 811 79 946 c 1
 91 964 111 972 132 972 c 1
 259 837 367 676 482 532 c 1
 195 157 l 2
 175 131 155 107 128 88 c 1
 110 88 98 97 87 110 c 1
EndSplineSet
EndChar

StartChar: h
Encoding: 104 104 214
Width: 1217
VWidth: 0
Flags: HW
PickledData: "(dp1
S'com.typemytype.robofont.layerData'
p2
(dp3
S'b'
(dp4
S'name'
p5
S'h'
sS'lib'
p6
(dp7
sS'unicodes'
p8
(tsS'width'
p9
I1217
sS'contours'
p10
(tsS'components'
p11
(tsS'anchors'
p12
(tsss."
LayerCount: 2
Fore
SplineSet
1039 568 m 2
 1039 221 l 2
 1039 117 1094 59 1191 50 c 1
 1191 34 1189 0 1189 0 c 1
 697 0 l 1
 697 0 695 34 695 50 c 1
 801 96 853 66 853 214 c 2
 853 577 l 2
 853 713 801 818 661 818 c 0
 558 818 466 752 401 684 c 1
 401 233 l 2
 401 112 453 62 576 50 c 1
 576 34 575 0 575 0 c 1
 42 0 l 1
 42 0 40 34 40 50 c 1
 152 59 215 115 215 233 c 2
 215 1164 l 1
 193 1196 80 1253 44 1258 c 1
 44 1293 l 1
 330 1369 l 1
 401 1376 l 1
 401 768 l 1
 496 862 589 926 732 926 c 0
 906 926 1039 821 1039 568 c 2
EndSplineSet
EndChar

StartChar: hbar
Encoding: 295 295 215
Width: 1190
VWidth: 0
Flags: HW
LayerCount: 2
Fore
SplineSet
1012 568 m 2
 1012 221 l 2
 1012 188 1016 158 1024 133 c 1
 1038 67 1131 72 1164 50 c 1
 1164 34 1162 0 1162 0 c 1
 670 0 l 1
 670 0 668 34 668 50 c 1
 710 69 804 73 817 136 c 0
 822 160 826 187 826 214 c 2
 826 577 l 2
 826 713 774 818 634 818 c 0
 531 818 440 752 375 684 c 1
 375 233 l 2
 375 196 379 164 384 137 c 0
 397 70 502 71 549 50 c 1
 549 34 548 0 548 0 c 1
 15 0 l 1
 15 0 13 34 13 50 c 1
 36 73 141 61 154 109 c 1
 180 140 188 186 188 233 c 2
 188 1001 l 1
 1 1001 l 1
 1 1088 l 1
 188 1088 l 1
 188 1164 l 1
 159 1210 16 1258 16 1258 c 1
 17 1293 l 1
 303 1369 l 1
 375 1376 l 1
 375 1088 l 1
 603 1088 l 1
 603 1001 l 1
 375 1001 l 1
 375 768 l 1
 470 862 562 926 705 926 c 0
 879 926 1012 821 1012 568 c 2
EndSplineSet
EndChar

StartChar: hungarumlaut
Encoding: 733 733 216
Width: 968
VWidth: 0
Flags: HW
LayerCount: 2
Fore
SplineSet
637 1366 m 1
 614 1319 384 1015 344 981 c 1
 332 981 320 985 312 995 c 1
 320 1043 449 1360 486 1409 c 1
 538 1409 592 1392 637 1366 c 1
941 1367 m 1
 919 1321 699 1005 670 981 c 1
 657 981 643 986 636 997 c 1
 640 1025 763 1377 790 1409 c 1
 842 1409 895 1391 941 1367 c 1
EndSplineSet
EndChar

StartChar: hyphen
Encoding: 45 45 217
Width: 772
VWidth: 0
Flags: HW
LayerCount: 2
Fore
SplineSet
691 402 m 1
 89 402 l 1
 89 530 l 1
 691 530 l 1
 691 402 l 1
EndSplineSet
EndChar

StartChar: i
Encoding: 105 105 218
Width: 594
VWidth: 0
Flags: HW
PickledData: "(dp1
S'com.typemytype.robofont.layerData'
p2
(dp3
S'b'
(dp4
S'name'
p5
S'i'
sS'lib'
p6
(dp7
sS'unicodes'
p8
(tsS'width'
p9
I594
sS'contours'
p10
((dp11
S'points'
p12
((dp13
S'segmentType'
p14
S'line'
p15
sS'x'
I399
sS'smooth'
p16
I00
sS'y'
I668
s(dp17
S'y'
I745
sS'x'
I472
sg16
I00
s(dp18
S'y'
I818
sS'x'
I562
sg16
I00
s(dp19
g14
S'curve'
p20
sS'x'
I665
sg16
I01
sS'y'
I818
s(dp21
S'y'
I818
sS'x'
I855
sg16
I00
s(dp22
S'y'
I657
sS'x'
I855
sg16
I00
s(dp23
g14
S'curve'
p24
sS'x'
I855
sg16
I01
sS'y'
I449
s(dp25
g14
S'line'
p26
sS'x'
I855
sg16
I01
sS'y'
I226
s(dp27
S'y'
I198
sS'x'
I855
sg16
I00
s(dp28
S'y'
I172
sS'x'
I854
sg16
I00
s(dp29
g14
S'curve'
p30
sS'x'
I850
sg16
I01
sS'y'
I149
s(dp31
S'y'
I76
sS'x'
I838
sg16
I00
s(dp32
S'y'
I70
sS'x'
I743
sg16
I00
s(dp33
g14
S'curve'
p34
sS'x'
I692
sg16
I00
sS'y'
I50
s(dp35
S'y'
I34
sS'x'
I692
sg16
I00
s(dp36
S'y'
I0
sS'x'
I694
sg16
I00
s(dp37
g14
S'curve'
p38
sS'x'
I694
sg16
I00
sS'y'
I0
s(dp39
g14
S'line'
p40
sS'x'
I1187
sg16
I00
sS'y'
I0
s(dp41
S'y'
I0
sS'x'
I1187
sg16
I00
s(dp42
S'y'
I16
sS'x'
I1188
sg16
I00
s(dp43
g14
S'curve'
p44
sS'x'
I1188
sg16
I01
sS'y'
I32
s(dp45
S'y'
I40
sS'x'
I1188
sg16
I00
s(dp46
S'y'
I48
sS'x'
I1188
sg16
I00
s(dp47
g14
S'curve'
p48
sS'x'
I1187
sg16
I00
sS'y'
I54
s(dp49
S'y'
I91
sS'x'
I1075
sg16
I00
s(dp50
S'y'
I73
sS'x'
I1042
sg16
I00
s(dp51
g14
S'curve'
p52
sS'x'
I1042
sg16
I01
sS'y'
I245
s(dp53
g14
S'line'
p54
sS'x'
I1042
sg16
I01
sS'y'
I468
s(dp55
S'y'
I512
sS'x'
I1042
sg16
I00
s(dp56
S'y'
I556
sS'x'
I1041
sg16
I00
s(dp57
g14
S'curve'
p58
sS'x'
I1039
sg16
I01
sS'y'
I599
s(dp59
S'y'
I819
sS'x'
I1030
sg16
I00
s(dp60
S'y'
I926
sS'x'
I918
sg16
I00
s(dp61
g14
S'curve'
p62
sS'x'
I727
sg16
I01
sS'y'
I926
s(dp63
S'y'
I926
sS'x'
I588
sg16
I00
s(dp64
S'y'
I847
sS'x'
I470
sg16
I00
s(dp65
g14
S'curve'
p66
sS'x'
I402
sg16
I00
sS'y'
I755
s(dp67
g14
S'line'
p68
sS'x'
I391
sg16
I00
sS'y'
I917
s(dp69
g14
S'line'
p70
sS'x'
I330
sg16
I00
sS'y'
I913
s(dp71
g14
S'line'
p72
sS'x'
I57
sg16
I00
sS'y'
I845
s(dp73
g14
S'line'
p74
sS'x'
I54
sg16
I00
sS'y'
I811
s(dp75
S'y'
I811
sS'x'
I54
sg16
I00
s(dp76
S'y'
I778
sS'x'
I187
sg16
I00
s(dp77
g14
S'curve'
p78
sS'x'
I213
sg16
I00
sS'y'
I727
s(dp79
g14
S'line'
p80
sS'x'
I213
sg16
I01
sS'y'
I185
s(dp81
S'y'
I89
sS'x'
I213
sg16
I00
s(dp82
S'y'
I75
sS'x'
I148
sg16
I00
s(dp83
g14
S'curve'
p84
sS'x'
I58
sg16
I00
sS'y'
I54
s(dp85
S'y'
I48
sS'x'
I57
sg16
I00
s(dp86
S'y'
I40
sS'x'
I57
sg16
I00
s(dp87
g14
S'curve'
p88
sS'x'
I57
sg16
I01
sS'y'
I32
s(dp89
S'y'
I16
sS'x'
I57
sg16
I00
s(dp90
S'y'
I0
sS'x'
I58
sg16
I00
s(dp91
g14
S'curve'
p92
sS'x'
I58
sg16
I00
sS'y'
I0
s(dp93
g14
S'line'
p94
sS'x'
I573
sg16
I00
sS'y'
I0
s(dp95
S'y'
I0
sS'x'
I573
sg16
I00
s(dp96
S'y'
I33
sS'x'
I575
sg16
I00
s(dp97
g14
S'curve'
p98
sS'x'
I575
sg16
I00
sS'y'
I50
s(dp99
S'y'
I61
sS'x'
I464
sg16
I00
s(dp100
S'y'
I101
sS'x'
I399
sg16
I00
s(dp101
g14
S'curve'
p102
sS'x'
I399
sg16
I01
sS'y'
I222
stp103
stp104
sS'components'
p105
(tsS'anchors'
p106
((dp107
S'y'
F900
sS'x'
F607
sg5
S'top'
p108
stp109
sss."
LayerCount: 2
Fore
SplineSet
213 181 m 2
 213 735 l 5
 183 786 54 819 54 819 c 5
 56 854 l 5
 337 922 l 5
 399 926 l 5
 399 220 l 2
 399 217.427 398.948 214.292 398.948 210.691 c 0
 398.948 169.511 405.714 67.4724 574 50 c 1
 574 33 574 17 573 0 c 1
 51 0 l 1
 49 18 49 34 49 50 c 1
 121 72 213 83 213 181 c 2
177 1260 m 0
 177 1324 228 1376 293 1376 c 0
 357 1376 409 1324 409 1260 c 0
 409 1195 357 1144 293 1144 c 0
 228 1144 177 1195 177 1260 c 0
EndSplineSet
EndChar

StartChar: j
Encoding: 106 106 228
Width: 553
VWidth: 0
Flags: HW
PickledData: "(dp1
S'com.typemytype.robofont.layerData'
p2
(dp3
S'b'
(dp4
S'name'
p5
S'j'
sS'lib'
p6
(dp7
sS'unicodes'
p8
(tsS'width'
p9
I553
sS'contours'
p10
((dp11
S'points'
p12
((dp13
S'segmentType'
p14
S'line'
p15
sS'x'
I387
sS'smooth'
p16
I00
sS'y'
I668
s(dp17
S'y'
I745
sS'x'
I460
sg16
I00
s(dp18
S'y'
I818
sS'x'
I550
sg16
I00
s(dp19
g14
S'curve'
p20
sS'x'
I653
sg16
I01
sS'y'
I818
s(dp21
S'y'
I818
sS'x'
I843
sg16
I00
s(dp22
S'y'
I657
sS'x'
I843
sg16
I00
s(dp23
g14
S'curve'
p24
sS'x'
I843
sg16
I01
sS'y'
I449
s(dp25
g14
S'line'
p26
sS'x'
I843
sg16
I01
sS'y'
I226
s(dp27
S'y'
I198
sS'x'
I843
sg16
I00
s(dp28
S'y'
I172
sS'x'
I842
sg16
I00
s(dp29
g14
S'curve'
p30
sS'x'
I838
sg16
I01
sS'y'
I149
s(dp31
S'y'
I76
sS'x'
I826
sg16
I00
s(dp32
S'y'
I70
sS'x'
I731
sg16
I00
s(dp33
g14
S'curve'
p34
sS'x'
I680
sg16
I00
sS'y'
I50
s(dp35
S'y'
I34
sS'x'
I680
sg16
I00
s(dp36
S'y'
I0
sS'x'
I682
sg16
I00
s(dp37
g14
S'curve'
p38
sS'x'
I682
sg16
I00
sS'y'
I0
s(dp39
g14
S'line'
p40
sS'x'
I1175
sg16
I00
sS'y'
I0
s(dp41
S'y'
I0
sS'x'
I1175
sg16
I00
s(dp42
S'y'
I16
sS'x'
I1176
sg16
I00
s(dp43
g14
S'curve'
p44
sS'x'
I1176
sg16
I01
sS'y'
I32
s(dp45
S'y'
I40
sS'x'
I1176
sg16
I00
s(dp46
S'y'
I48
sS'x'
I1176
sg16
I00
s(dp47
g14
S'curve'
p48
sS'x'
I1175
sg16
I00
sS'y'
I54
s(dp49
S'y'
I91
sS'x'
I1063
sg16
I00
s(dp50
S'y'
I73
sS'x'
I1030
sg16
I00
s(dp51
g14
S'curve'
p52
sS'x'
I1030
sg16
I01
sS'y'
I245
s(dp53
g14
S'line'
p54
sS'x'
I1030
sg16
I01
sS'y'
I468
s(dp55
S'y'
I512
sS'x'
I1030
sg16
I00
s(dp56
S'y'
I556
sS'x'
I1029
sg16
I00
s(dp57
g14
S'curve'
p58
sS'x'
I1027
sg16
I01
sS'y'
I599
s(dp59
S'y'
I819
sS'x'
I1018
sg16
I00
s(dp60
S'y'
I926
sS'x'
I906
sg16
I00
s(dp61
g14
S'curve'
p62
sS'x'
I715
sg16
I01
sS'y'
I926
s(dp63
S'y'
I926
sS'x'
I576
sg16
I00
s(dp64
S'y'
I847
sS'x'
I458
sg16
I00
s(dp65
g14
S'curve'
p66
sS'x'
I390
sg16
I00
sS'y'
I755
s(dp67
g14
S'line'
p68
sS'x'
I379
sg16
I00
sS'y'
I917
s(dp69
g14
S'line'
p70
sS'x'
I318
sg16
I00
sS'y'
I913
s(dp71
g14
S'line'
p72
sS'x'
I45
sg16
I00
sS'y'
I845
s(dp73
g14
S'line'
p74
sS'x'
I42
sg16
I00
sS'y'
I811
s(dp75
S'y'
I811
sS'x'
I42
sg16
I00
s(dp76
S'y'
I778
sS'x'
I175
sg16
I00
s(dp77
g14
S'curve'
p78
sS'x'
I201
sg16
I00
sS'y'
I727
s(dp79
g14
S'line'
p80
sS'x'
I201
sg16
I01
sS'y'
I185
s(dp81
S'y'
I89
sS'x'
I201
sg16
I00
s(dp82
S'y'
I75
sS'x'
I136
sg16
I00
s(dp83
g14
S'curve'
p84
sS'x'
I46
sg16
I00
sS'y'
I54
s(dp85
S'y'
I48
sS'x'
I45
sg16
I00
s(dp86
S'y'
I40
sS'x'
I45
sg16
I00
s(dp87
g14
S'curve'
p88
sS'x'
I45
sg16
I01
sS'y'
I32
s(dp89
S'y'
I16
sS'x'
I45
sg16
I00
s(dp90
S'y'
I0
sS'x'
I46
sg16
I00
s(dp91
g14
S'curve'
p92
sS'x'
I46
sg16
I00
sS'y'
I0
s(dp93
g14
S'line'
p94
sS'x'
I561
sg16
I00
sS'y'
I0
s(dp95
S'y'
I0
sS'x'
I561
sg16
I00
s(dp96
S'y'
I33
sS'x'
I563
sg16
I00
s(dp97
g14
S'curve'
p98
sS'x'
I563
sg16
I00
sS'y'
I50
s(dp99
S'y'
I61
sS'x'
I452
sg16
I00
s(dp100
S'y'
I101
sS'x'
I387
sg16
I00
s(dp101
g14
S'curve'
p102
sS'x'
I387
sg16
I01
sS'y'
I222
stp103
stp104
sS'components'
p105
(tsS'anchors'
p106
((dp107
S'y'
I900
sS'x'
I613
sg5
S'top'
p108
stp109
sss."
LayerCount: 2
Fore
SplineSet
201 88 m 1
 201 736 l 1
 171 786 49 819 39 819 c 1
 39 854 l 1
 319 921 l 1
 387 926 l 1
 387 125 l 2
 387 -168 251 -282 14 -308 c 1
 -1 -250 l 1
 163 -176 190 -136 201 88 c 1
165 1260 m 0
 165 1324 216 1376 280 1376 c 0
 345 1376 396 1324 396 1260 c 0
 396 1195 345 1144 280 1144 c 0
 216 1144 165 1195 165 1260 c 0
EndSplineSet
EndChar

StartChar: k
Encoding: 107 107 230
Width: 1169
VWidth: 0
Flags: HW
PickledData: "(dp1
S'com.typemytype.robofont.layerData'
p2
(dp3
S'b'
(dp4
S'name'
p5
S'k'
sS'lib'
p6
(dp7
sS'unicodes'
p8
(tsS'width'
p9
I1169
sS'contours'
p10
((dp11
S'points'
p12
((dp13
S'segmentType'
p14
S'line'
p15
sS'x'
I1060
sS'smooth'
p16
I01
sS'y'
I568
s(dp17
S'y'
I821
sS'x'
I1060
sg16
I00
s(dp18
S'y'
I926
sS'x'
I927
sg16
I00
s(dp19
g14
S'curve'
p20
sS'x'
I753
sg16
I01
sS'y'
I926
s(dp21
S'y'
I926
sS'x'
I610
sg16
I00
s(dp22
S'y'
I862
sS'x'
I517
sg16
I00
s(dp23
g14
S'curve'
p24
sS'x'
I422
sg16
I00
sS'y'
I768
s(dp25
g14
S'line'
p26
sS'x'
I422
sg16
I00
sS'y'
I1376
s(dp27
g14
S'line'
p28
sS'x'
I351
sg16
I00
sS'y'
I1369
s(dp29
g14
S'line'
p30
sS'x'
I65
sg16
I00
sS'y'
I1293
s(dp31
g14
S'line'
p32
sS'x'
I65
sg16
I00
sS'y'
I1258
s(dp33
S'y'
I1253
sS'x'
I101
sg16
I00
s(dp34
S'y'
I1196
sS'x'
I214
sg16
I00
s(dp35
g14
S'curve'
p36
sS'x'
I236
sg16
I00
sS'y'
I1164
s(dp37
g14
S'line'
p38
sS'x'
I236
sg16
I01
sS'y'
I233
s(dp39
S'y'
I115
sS'x'
I236
sg16
I00
s(dp40
S'y'
I59
sS'x'
I173
sg16
I00
s(dp41
g14
S'curve'
p42
sS'x'
I61
sg16
I00
sS'y'
I50
s(dp43
S'y'
I34
sS'x'
I61
sg16
I00
s(dp44
S'y'
I0
sS'x'
I63
sg16
I00
s(dp45
g14
S'curve'
p46
sS'x'
I63
sg16
I00
sS'y'
I0
s(dp47
g14
S'line'
p48
sS'x'
I596
sg16
I00
sS'y'
I0
s(dp49
S'y'
I0
sS'x'
I596
sg16
I00
s(dp50
S'y'
I34
sS'x'
I597
sg16
I00
s(dp51
g14
S'curve'
p52
sS'x'
I597
sg16
I00
sS'y'
I50
s(dp53
S'y'
I62
sS'x'
I474
sg16
I00
s(dp54
S'y'
I112
sS'x'
I423
sg16
I00
s(dp55
g14
S'curve'
p56
sS'x'
I423
sg16
I01
sS'y'
I233
s(dp57
g14
S'line'
p58
sS'x'
I423
sg16
I00
sS'y'
I684
s(dp59
S'y'
I752
sS'x'
I488
sg16
I00
s(dp60
S'y'
I818
sS'x'
I579
sg16
I00
s(dp61
g14
S'curve'
p62
sS'x'
I682
sg16
I01
sS'y'
I818
s(dp63
S'y'
I818
sS'x'
I822
sg16
I00
s(dp64
S'y'
I713
sS'x'
I874
sg16
I00
s(dp65
g14
S'curve'
p66
sS'x'
I874
sg16
I01
sS'y'
I577
s(dp67
g14
S'line'
p68
sS'x'
I874
sg16
I01
sS'y'
I214
s(dp69
S'y'
I66
sS'x'
I874
sg16
I00
s(dp70
S'y'
I96
sS'x'
I822
sg16
I00
s(dp71
g14
S'curve'
p72
sS'x'
I716
sg16
I00
sS'y'
I50
s(dp73
S'y'
I34
sS'x'
I716
sg16
I00
s(dp74
S'y'
I0
sS'x'
I718
sg16
I00
s(dp75
g14
S'curve'
p76
sS'x'
I718
sg16
I00
sS'y'
I0
s(dp77
g14
S'line'
p78
sS'x'
I1210
sg16
I00
sS'y'
I0
s(dp79
S'y'
I0
sS'x'
I1210
sg16
I00
s(dp80
S'y'
I34
sS'x'
I1212
sg16
I00
s(dp81
g14
S'curve'
p82
sS'x'
I1212
sg16
I00
sS'y'
I50
s(dp83
S'y'
I59
sS'x'
I1115
sg16
I00
s(dp84
S'y'
I117
sS'x'
I1060
sg16
I00
s(dp85
g14
S'curve'
p86
sS'x'
I1060
sg16
I01
sS'y'
I221
stp87
stp88
sS'components'
p89
(tsS'anchors'
p90
(tsss."
LayerCount: 2
Fore
SplineSet
598 50 m 1
 598 33 596 0 596 0 c 1
 81 0 l 1
 81 0 80 16 80 32 c 0
 80 40 80 48 81 54 c 1
 171 75 236 89 236 185 c 2
 236 1164 l 1
 214 1196 101 1253 65 1258 c 1
 65 1293 l 1
 351 1369 l 1
 422 1376 l 1
 422 475 l 1
 504 475 l 1
 824 789 l 1
 826 794 826 798 826 800 c 0
 826 863 697 824 697 866 c 0
 697 873 698 886 700 899 c 1
 1124 899 l 1
 1127 866 l 1
 1127 851 1097 839 1044 828 c 0
 995 818 962 802 942 785 c 1
 666 502 l 1
 930 160 l 2
 1000 69 1140 53 1156 53 c 1
 1156 53 1154 10 1153 0 c 1
 658 0 l 1
 658 0 651 52 653 52 c 0
 741 52 753 81 753 96 c 0
 753 99 751 107 740 119 c 1
 507 420 l 1
 422 420 l 1
 422 222 l 2
 422 101 487 61 598 50 c 1
EndSplineSet
EndChar

StartChar: kgreenlandic
Encoding: 312 312 232
Width: 1140
VWidth: 0
Flags: HW
LayerCount: 2
Fore
SplineSet
213 120 m 2
 213 780 l 2
 213 856 40 845 40 888 c 0
 40 891 40 893 43 900 c 1
 567 900 l 1
 570 893 571 889 571 886 c 0
 571 839 419 868 419 784 c 2
 419 475 l 1
 481 475 l 1
 831 810 l 1
 833 815 833 819 833 821 c 0
 833 884 704 845 704 887 c 0
 704 890 705 895 707 900 c 1
 1101 900 l 1
 1104 887 l 1
 1104 872 1074 860 1021 849 c 0
 972 838 938 822 919 806 c 1
 623 522 l 1
 957 94 l 1
 985 62 1133 41 1133 13 c 0
 1133 9 1133 4 1130 0 c 1
 635 0 l 1
 632 6 630 10 630 12 c 0
 630 49 747 24 747 74 c 0
 747 77 745 85 734 97 c 1
 484 420 l 1
 419 420 l 1
 419 116 l 2
 419 32 571 60 571 14 c 0
 571 11 570 7 567 0 c 1
 43 0 l 1
 40 7 40 9 40 12 c 0
 40 55 213 44 213 120 c 2
EndSplineSet
EndChar

StartChar: l
Encoding: 108 108 233
Width: 594
VWidth: 0
Flags: HW
LayerCount: 2
Fore
SplineSet
320 1369 m 1
 392 1376 l 1
 392 234 l 2
 392 126 430 62 541 50 c 1
 541 33 539 0 539 0 c 1
 47 0 l 1
 47 0 46 34 46 50 c 1
 85 76 186 74 198 140 c 0
 203 167 206 196 206 228 c 0
 206 542 205 855 205 1169 c 1
 178 1213 40 1258 40 1258 c 1
 42 1293 l 1
 320 1369 l 1
EndSplineSet
EndChar

StartChar: less
Encoding: 60 60 238
Width: 626
VWidth: 0
Flags: HW
LayerCount: 2
Fore
SplineSet
479 18 m 0
 443 18 424 29 403 59 c 2
 64 553 l 1
 151 668 361 996 469 1068 c 1
 502 1068 542 1047 542 1009 c 1
 472 855 302 688 195 553 c 1
 246 482 524 144 524 69 c 0
 524 42 508 18 479 18 c 0
EndSplineSet
EndChar

StartChar: logicalnot
Encoding: 172 172 239
Width: 1345
VWidth: 0
Flags: HW
LayerCount: 2
Fore
SplineSet
141 893 m 1
 314 893 l 2
 559 893 804 894 1048 895 c 0
 1093 895 1138 891 1183 885 c 1
 1196 799 1198 709 1198 620 c 2
 1198 403 l 2
 1198 363 1197 316 1167 286 c 1
 1121 286 1086 306 1043 314 c 1
 1043 742 l 1
 230 742 l 2
 189 742 141 743 109 773 c 1
 109 819 129 851 141 893 c 1
EndSplineSet
EndChar

StartChar: lslash
Encoding: 322 322 240
Width: 578
VWidth: 0
Flags: HW
LayerCount: 2
Fore
SplineSet
195 724 m 1
 195 1122 l 2
 195 1191 -1 1195 -1 1227 c 0
 -1 1232 0 1238 3 1244 c 1
 402 1314 l 1
 402 779 l 1
 445 791 l 2
 488 803 519 808 540 808 c 0
 573 808 590 793 590 767 c 0
 590 735 568 728 469 702 c 2
 402 684 l 1
 402 120 l 2
 402 28 580 66 580 18 c 0
 580 12 579 6 576 0 c 1
 16 0 l 1
 13 9 12 14 12 17 c 0
 12 74 196 32 196 126 c 2
 195 629 l 1
 167 621 l 2
 116 606 84 601 64 601 c 0
 38 601 23 616 23 645 c 0
 23 670 49 683 141 709 c 2
 195 724 l 1
EndSplineSet
EndChar

StartChar: m
Encoding: 109 109 241
Width: 1757
VWidth: 0
Flags: HW
PickledData: "(dp1
S'com.typemytype.robofont.layerData'
p2
(dp3
S'b'
(dp4
S'name'
p5
S'm'
sS'lib'
p6
(dp7
sS'unicodes'
p8
(tsS'width'
p9
I1757
sS'contours'
p10
((dp11
S'points'
p12
((dp13
S'segmentType'
p14
S'line'
p15
sS'x'
F391
sS'smooth'
p16
I00
sS'y'
F668
s(dp17
S'y'
F745
sS'x'
F464
sg16
I00
s(dp18
S'y'
F818
sS'x'
F554
sg16
I00
s(dp19
g14
S'curve'
p20
sS'x'
F657
sg16
I01
sS'y'
F818
s(dp21
S'y'
F818
sS'x'
F847
sg16
I00
s(dp22
S'y'
F657
sS'x'
F847
sg16
I00
s(dp23
g14
S'curve'
p24
sS'x'
F847
sg16
I01
sS'y'
F449
s(dp25
g14
S'line'
p26
sS'x'
F847
sg16
I01
sS'y'
F226
s(dp27
S'y'
F198
sS'x'
F847
sg16
I00
s(dp28
S'y'
F172
sS'x'
F846
sg16
I00
s(dp29
g14
S'curve'
p30
sS'x'
F842
sg16
I01
sS'y'
F149
s(dp31
S'y'
F76
sS'x'
F830
sg16
I00
s(dp32
S'y'
F70
sS'x'
F735
sg16
I00
s(dp33
g14
S'curve'
p34
sS'x'
F684
sg16
I00
sS'y'
F50
s(dp35
S'y'
F34
sS'x'
F684
sg16
I00
s(dp36
S'y'
F0
sS'x'
F686
sg16
I00
s(dp37
g14
S'curve'
p38
sS'x'
F686
sg16
I00
sS'y'
F0
s(dp39
g14
S'line'
p40
sS'x'
F1179
sg16
I00
sS'y'
F0
s(dp41
S'y'
F0
sS'x'
F1179
sg16
I00
s(dp42
S'y'
F16
sS'x'
F1180
sg16
I00
s(dp43
g14
S'curve'
p44
sS'x'
F1180
sg16
I01
sS'y'
F32
s(dp45
S'y'
F40
sS'x'
F1180
sg16
I00
s(dp46
S'y'
F48
sS'x'
F1180
sg16
I00
s(dp47
g14
S'curve'
p48
sS'x'
F1179
sg16
I00
sS'y'
F54
s(dp49
S'y'
F91
sS'x'
F1067
sg16
I00
s(dp50
S'y'
F73
sS'x'
F1034
sg16
I00
s(dp51
g14
S'curve'
p52
sS'x'
F1034
sg16
I01
sS'y'
F245
s(dp53
g14
S'line'
p54
sS'x'
F1034
sg16
I01
sS'y'
F468
s(dp55
S'y'
F512
sS'x'
F1034
sg16
I00
s(dp56
S'y'
F556
sS'x'
F1033
sg16
I00
s(dp57
g14
S'curve'
p58
sS'x'
F1031
sg16
I01
sS'y'
F599
s(dp59
S'y'
F819
sS'x'
F1022
sg16
I00
s(dp60
S'y'
F926
sS'x'
F910
sg16
I00
s(dp61
g14
S'curve'
p62
sS'x'
F719
sg16
I01
sS'y'
F926
s(dp63
S'y'
F926
sS'x'
F580
sg16
I00
s(dp64
S'y'
F847
sS'x'
F462
sg16
I00
s(dp65
g14
S'curve'
p66
sS'x'
F394
sg16
I00
sS'y'
F755
s(dp67
g14
S'line'
p68
sS'x'
F383
sg16
I00
sS'y'
F917
s(dp69
g14
S'line'
p70
sS'x'
F322
sg16
I00
sS'y'
F913
s(dp71
g14
S'line'
p72
sS'x'
F49
sg16
I00
sS'y'
F845
s(dp73
g14
S'line'
p74
sS'x'
F46
sg16
I00
sS'y'
F811
s(dp75
S'y'
F811
sS'x'
F46
sg16
I00
s(dp76
S'y'
F778
sS'x'
F179
sg16
I00
s(dp77
g14
S'curve'
p78
sS'x'
F205
sg16
I00
sS'y'
F727
s(dp79
g14
S'line'
p80
sS'x'
F205
sg16
I01
sS'y'
F185
s(dp81
S'y'
F89
sS'x'
F205
sg16
I00
s(dp82
S'y'
F75
sS'x'
F140
sg16
I00
s(dp83
g14
S'curve'
p84
sS'x'
F50
sg16
I00
sS'y'
F54
s(dp85
S'y'
F48
sS'x'
F49
sg16
I00
s(dp86
S'y'
F40
sS'x'
F49
sg16
I00
s(dp87
g14
S'curve'
p88
sS'x'
F49
sg16
I01
sS'y'
F32
s(dp89
S'y'
F16
sS'x'
F49
sg16
I00
s(dp90
S'y'
F0
sS'x'
F50
sg16
I00
s(dp91
g14
S'curve'
p92
sS'x'
F50
sg16
I00
sS'y'
F0
s(dp93
g14
S'line'
p94
sS'x'
F565
sg16
I00
sS'y'
F0
s(dp95
S'y'
F0
sS'x'
F565
sg16
I00
s(dp96
S'y'
F33
sS'x'
F567
sg16
I00
s(dp97
g14
S'curve'
p98
sS'x'
F567
sg16
I00
sS'y'
F50
s(dp99
S'y'
F61
sS'x'
F456
sg16
I00
s(dp100
S'y'
F101
sS'x'
F391
sg16
I00
s(dp101
g14
S'curve'
p102
sS'x'
F391
sg16
I01
sS'y'
F222
stp103
stp104
sS'components'
p105
(tsS'anchors'
p106
((dp107
S'y'
F900
sS'x'
F616
sg5
S'top'
p108
stp109
sss."
LayerCount: 2
Fore
SplineSet
391 678 m 1
 391 235 l 2
 391 71 481 66 567 50 c 1
 567 33 565 0 565 0 c 1
 49 0 l 1
 49 0 49 37 49 53 c 1
 87 66 185 76 198 140 c 1
 205 165 205 190 205 222 c 2
 205 734 l 5
 177 787 46 819 46 819 c 5
 49 853 l 5
 324 921 l 5
 383 925 l 5
 385.25 886.709 394 754 394 754 c 1
 465 846 570 926 712 926 c 0
 843 926 927 873 972 765 c 1
 1058 859 1138 924 1279 924 c 0
 1446 924 1565 849 1580 676 c 0
 1585 617 1588 555 1588 487 c 2
 1588 225 l 2
 1588 194 1590 165 1595 140 c 0
 1606 78 1677 65 1731 50 c 1
 1731 34 1729 0 1729 0 c 1
 1248 0 l 1
 1248 0 1246 34 1246 50 c 1
 1295 65 1379 77 1393 138 c 0
 1398 163 1401 192 1401 225 c 2
 1401 622 l 2
 1401 746 1335 819 1216 819 c 0
 1126 819 1039 753 985 694 c 1
 991 625 991 551 991 472 c 2
 991 230 l 2
 991 198 992 168 997 142 c 0
 1008 78 1095 66 1145 50 c 1
 1145 33 1143 0 1143 0 c 1
 643 0 l 1
 643 0 641 34 641 50 c 1
 678 58 804 70 804 229 c 2
 804 577 l 2
 804 720 769 818 638 818 c 0
 534 818 457 753 391 678 c 1
EndSplineSet
EndChar

StartChar: macron
Encoding: 175 175 242
Width: 772
VWidth: 0
Flags: HW
LayerCount: 2
Fore
SplineSet
691 1044 m 1
 89 1044 l 1
 89 1172 l 1
 691 1172 l 1
 691 1044 l 1
EndSplineSet
EndChar

StartChar: minus
Encoding: 8722 8722 243
Width: 1145
VWidth: 0
Flags: HW
LayerCount: 2
Fore
SplineSet
135 615 m 1
 181 635 239 635 289 635 c 2
 953 635 l 1
 994 608 1011 571 1011 523 c 1
 944 507 873 505 803 505 c 2
 192 505 l 1
 150 532 135 566 135 615 c 1
EndSplineSet
EndChar

StartChar: mu
Encoding: 65552 -1 244
Width: 1325
VWidth: 0
Flags: HW
LayerCount: 2
Fore
SplineSet
340 159 m 1
 369 26 420 -123 420 -262 c 0
 420 -309 415 -363 357 -363 c 0
 248 -363 248 -212 248 -135 c 2
 248 721 l 2
 248 811 77 785 77 832 c 0
 77 838 79 844 80 849 c 1
 205 856 329 871 454 880 c 1
 454 388 l 2
 454 279 461 66 615 66 c 0
 720 66 819 124 880 208 c 1
 880 724 l 2
 880 810 706 781 706 834 c 0
 706 839 707 844 709 849 c 1
 833 851 962 871 1086 880 c 1
 1086 142 l 2
 1086 58 1262 93 1262 50 c 0
 1262 45 1259 37 1257 32 c 1
 903 -18 l 1
 883 136 l 1
 804 44 698 -17 575 -17 c 0
 454 -17 388 60 340 159 c 1
EndSplineSet
EndChar

StartChar: multiply
Encoding: 215 215 245
Width: 1098
VWidth: 0
Flags: HW
LayerCount: 2
Fore
SplineSet
141 932 m 1
 162 961 205 1002 234 1023 c 1
 324 947 446 820 549 717 c 1
 651 820 773 947 864 1023 c 1
 893 1002 935 961 957 932 c 1
 938 908 914 884 883 853 c 2
 648 618 l 1
 751 515 880 391 956 303 c 1
 935 274 893 232 864 211 c 1
 838 229 814 253 784 284 c 2
 549 519 l 1
 315 285 l 2
 284 254 259 231 235 212 c 1
 206 233 164 275 143 304 c 1
 162 328 186 354 215 383 c 2
 450 618 l 1
 215 853 l 2
 184 884 160 908 141 932 c 1
EndSplineSet
EndChar

StartChar: n
Encoding: 110 110 246
Width: 1200
VWidth: 0
Flags: HW
PickledData: "(dp1
S'com.typemytype.robofont.layerData'
p2
(dp3
S'b'
(dp4
S'name'
p5
S'n'
sS'lib'
p6
(dp7
sS'unicodes'
p8
(tsS'width'
p9
I1200
sS'contours'
p10
(tsS'components'
p11
(tsS'anchors'
p12
(tsss."
LayerCount: 2
Fore
SplineSet
385 668 m 1
 385 222 l 2
 385 101 450 61 561 50 c 1
 561 33 559 0 559 0 c 1
 44 0 l 1
 44 0 43 16 43 32 c 0
 43 40 43 48 44 54 c 1
 134 75 199 89 199 185 c 2
 199 735 l 5
 173 786 40 819 40 819 c 5
 43 853 l 5
 316 921 l 5
 377 925 l 5
 388 755 l 1
 456 847 574 926 713 926 c 0
 904 926 1016 819 1025 599 c 0
 1027 556 1028 512 1028 468 c 2
 1028 245 l 2
 1028 73 1061 91 1173 54 c 1
 1174 48 1174 40 1174 32 c 0
 1174 16 1173 0 1173 0 c 1
 680 0 l 1
 680 0 678 34 678 50 c 1
 729 70 824 76 836 149 c 0
 840 172 841 198 841 226 c 2
 841 449 l 2
 841 657 841 818 651 818 c 0
 548 818 458 745 385 668 c 1
EndSplineSet
EndChar

StartChar: nine
Encoding: 57 57 250
Width: 1084
VWidth: 0
Flags: HW
LayerCount: 2
Fore
SplineSet
288 513 m 0
 288 294 388 192 537 192 c 0
 594 192 657 210 721 247 c 1
 737 329 745 384 745 450 c 0
 745 723 638 857 497 857 c 0
 385 857 288 741 288 513 c 0
380 -338 m 1
 369 -341 355 -342 343 -342 c 0
 322 -342 316 -337 316 -314 c 0
 316 -302 317 -296 336 -288 c 0
 485 -230 659 -44 712 178 c 1
 636 142 558 126 485 126 c 0
 261 126 88 267 88 520 c 0
 88 762 297 926 516 926 c 0
 823 926 949 714 949 462 c 0
 949 121 717 -290 380 -338 c 1
EndSplineSet
EndChar

StartChar: numbersign
Encoding: 35 35 252
Width: 1136
VWidth: 0
Flags: HW
LayerCount: 2
Fore
SplineSet
719 674 m 1
 445 674 l 1
 398 501 l 1
 674 501 l 1
 719 674 l 1
643 390 m 1
 370 390 l 1
 325 210 292 29 252 -151 c 0
 242 -198 223 -239 169 -239 c 0
 129 -239 104 -184 104 -150 c 0
 104 -108 232 320 252 390 c 1
 233 390 205 387 176 387 c 0
 123 387 67 396 67 447 c 0
 67 495 133 504 195 504 c 0
 230 504 265 501 283 501 c 1
 331 674 l 1
 310 674 275 670 240 670 c 0
 182 670 122 680 122 731 c 0
 122 779 194 789 260 789 c 0
 303 789 343 785 362 785 c 1
 412 961 470 1134 490 1316 c 0
 494 1352 546 1362 574 1362 c 0
 635 1362 641 1332 641 1280 c 0
 641 1249 495 840 478 785 c 1
 747 785 l 1
 786 946 830 1111 855 1275 c 0
 864 1333 880 1362 946 1362 c 0
 1002 1362 1023 1333 1023 1280 c 0
 1023 1241 887 843 869 785 c 1
 886 785 916 787 949 787 c 0
 1009 787 1075 779 1075 732 c 0
 1075 680 1009 669 944 669 c 0
 901 669 858 674 836 674 c 1
 788 501 l 1
 806 501 841 504 878 504 c 0
 945 504 1021 494 1021 441 c 0
 1021 394 953 384 884 384 c 0
 833 384 781 390 760 390 c 1
 715 211 682 31 643 -149 c 0
 632 -198 606 -239 551 -239 c 0
 511 -239 486 -184 486 -150 c 0
 486 -110 623 322 643 390 c 1
EndSplineSet
EndChar

StartChar: o
Encoding: 111 111 253
Width: 1111
VWidth: 0
Flags: HW
LayerCount: 2
Fore
SplineSet
82 456 m 0
 82 739 301 926 549 926 c 0
 813 926 1029 747 1029 457 c 0
 1029 166 812 -20 560 -20 c 0
 308 -20 82 174 82 456 c 0
282 515 m 0
 282 291 392 58 573 58 c 0
 749 58 832 200 832 388 c 0
 832 642 721 859 543 859 c 0
 396 859 282 755 282 515 c 0
EndSplineSet
EndChar

StartChar: oe
Encoding: 339 339 258
Width: 1615
VWidth: 0
Flags: HW
LayerCount: 2
Fore
SplineSet
1551 529 m 1
 961 529 l 1
 966 265 1071 121 1273 121 c 0
 1381 121 1441 152 1512 205 c 1
 1523 200 1534 192 1542 183 c 1
 1505 56 1339 -21 1212 -21 c 0
 1074 -21 955 36 874 154 c 1
 789 38 671 -21 543 -21 c 0
 288 -21 82 168 82 451 c 0
 82 689 257 926 534 926 c 0
 669 926 784 872 874 755 c 1
 958 876 1062 925 1203 925 c 0
 1427 925 1545 757 1551 529 c 1
281 504 m 0
 281 266 337 46 559 46 c 0
 734 46 784 227 784 395 c 0
 784 653 712 860 511 860 c 0
 364 860 281 732 281 504 c 0
962 590 m 1
 1276 597 l 2
 1307 598 1336 602 1360 612 c 1
 1354 770 1290 860 1173 860 c 0
 1045 860 975 744 962 590 c 1
EndSplineSet
EndChar

StartChar: ogonek
Encoding: 731 731 259
Width: 691
VWidth: 0
Flags: HW
LayerCount: 2
Fore
SplineSet
171 -188 m 0
 171 -63 264 3 375 23 c 1
 358 -42 303 -65 303 -145 c 0
 303 -225 378 -264 450 -264 c 0
 490 -264 528 -250 564 -234 c 1
 575 -314 l 1
 509 -350 459 -371 383 -371 c 0
 273 -371 171 -307 171 -188 c 0
EndSplineSet
EndChar

StartChar: one
Encoding: 49 49 263
Width: 743
VWidth: 0
Flags: HW
LayerCount: 2
Fore
SplineSet
465 770 m 2
 465 126 l 2
 465 10 670 81 670 16 c 0
 670 13 668 7 665 -3 c 1
 77 -3 l 1
 74 6 73 11 73 14 c 0
 73 73 272 20 272 127 c 2
 272 769 l 2
 272 876 73 823 73 882 c 0
 73 885 74 890 77 899 c 1
 665 899 l 1
 668 889 670 883 670 880 c 0
 670 815 465 886 465 770 c 2
EndSplineSet
EndChar

StartChar: onehalf
Encoding: 189 189 264
Width: 1831
VWidth: 0
Flags: HW
LayerCount: 2
Fore
SplineSet
543 -77 m 1
 525 -81 507 -81 489 -81 c 2
 456 -81 l 1
 475 -24 486 37 515 91 c 2
 1024 1045 l 2
 1085 1159 1145 1336 1253 1410 c 1
 1284 1410 1316 1403 1343 1386 c 1
 1207 1155 1063 927 937 691 c 0
 803 440 709 153 543 -77 c 1
1679 269 m 1
 1636 45 l 1
 1571 45 l 2
 1470 45 1368 46 1266 46 c 0
 1215 46 1165 46 1114 45 c 1
 1110 88 l 1
 1223 217 1492 439 1492 620 c 0
 1492 696 1444 761 1364 761 c 0
 1281 761 1202 697 1152 636 c 1
 1109 654 l 1
 1150 762 1266 842 1390 842 c 0
 1524 842 1653 769 1653 621 c 0
 1653 438 1372 262 1253 145 c 1
 1462 145 l 2
 1543 145 1584 152 1615 233 c 0
 1620 247 1625 259 1635 269 c 1
 1679 269 l 1
395 1295 m 1
 394 685 l 2
 394 622 395 564 473 559 c 0
 486 558 517 560 525 548 c 1
 523 512 l 1
 114 512 l 1
 112 547 l 1
 193 587 244 525 244 663 c 2
 244 1084 l 2
 244 1197 186 1169 116 1199 c 1
 116 1234 l 1
 201 1244 284 1264 361 1301 c 1
 373 1301 384 1299 395 1295 c 1
EndSplineSet
EndChar

StartChar: onequarter
Encoding: 188 188 265
Width: 1894
VWidth: 0
Flags: HW
LayerCount: 2
Fore
SplineSet
1745 251 m 1
 1617 251 l 1
 1617 155 l 2
 1617 97 1703 96 1742 84 c 1
 1742 47 l 1
 1342 47 l 1
 1342 83 l 1
 1383 98 1467 94 1467 155 c 2
 1467 251 l 1
 1116 251 l 1
 1111 319 l 1
 1477 840 l 1
 1523 842 1570 846 1617 846 c 1
 1617 328 l 1
 1727 328 1709 351 1745 386 c 1
 1755 386 1767 384 1774 367 c 1
 1768 329 1754 288 1745 251 c 1
1202 325 m 1
 1465 325 l 1
 1465 716 l 1
 1202 325 l 1
543 -77 m 1
 525 -81 507 -81 489 -81 c 2
 456 -81 l 1
 474 -27 489 42 515 91 c 2
 1024 1045 l 2
 1084 1157 1148 1338 1253 1410 c 1
 1285 1410 1316 1403 1343 1386 c 1
 1265 1254 l 2
 1154 1067 1040 883 937 691 c 0
 829 488 737 279 640 71 c 0
 616 20 576 -31 543 -77 c 1
398 1295 m 1
 397 685 l 2
 397 622 398 564 476 559 c 0
 488 558 520 560 526 548 c 1
 526 512 l 1
 115 512 l 1
 115 547 l 1
 194 586 247 527 247 663 c 2
 247 1084 l 2
 247 1197 188 1169 117 1199 c 1
 119 1234 l 1
 204 1244 287 1264 364 1301 c 1
 376 1301 387 1299 398 1295 c 1
EndSplineSet
EndChar

StartChar: onesuperior
Encoding: 65553 -1 266
Width: 610
VWidth: 0
Flags: HW
LayerCount: 2
Fore
SplineSet
391 1187 m 2
 391 487 l 2
 391 399 548 455 548 407 c 0
 548 403 547 399 544 392 c 1
 78 392 l 1
 76 400 75 404 75 405 c 0
 75 449 227 411 227 491 c 2
 227 1103 l 2
 227 1181 74 1151 74 1193 c 0
 74 1197 75 1201 78 1206 c 1
 388 1291 l 1
 392 1291 394 1287 394 1278 c 0
 394 1233 391 1200 391 1187 c 2
EndSplineSet
EndChar

StartChar: ordfeminine
Encoding: 170 170 267
Width: 708
VWidth: 0
Flags: HW
LayerCount: 2
Fore
SplineSet
439 893 m 1
 439 959 l 2
 439 1047 419 1117 314 1117 c 0
 284 1117 205 1098 205 1058 c 0
 205 1035 229 1017 229 995 c 0
 229 966 175 935 149 935 c 0
 118 935 92 990 92 1016 c 0
 92 1129 258 1164 345 1164 c 0
 518 1164 566 1095 566 928 c 0
 566 907 560 842 560 780 c 0
 560 687 560 634 597 634 c 0
 609 634 625 640 646 651 c 1
 662 602 l 1
 637 560 578 546 532 546 c 0
 476 546 445 592 441 644 c 1
 380 592 310 546 227 546 c 0
 150 546 70 587 70 673 c 0
 70 839 321 853 439 893 c 1
439 688 m 1
 439 855 l 1
 356 827 205 804 205 693 c 0
 205 643 243 619 289 619 c 0
 343 619 399 654 439 688 c 1
EndSplineSet
EndChar

StartChar: ordmasculine
Encoding: 186 186 268
Width: 791
VWidth: 0
Flags: HW
LayerCount: 2
Fore
SplineSet
72 861 m 0
 72 1043 225 1164 392 1164 c 0
 571 1164 719 1048 719 858 c 0
 719 667 570 547 399 547 c 0
 226 547 72 672 72 861 c 0
209 893 m 0
 209 711 302 602 408 602 c 0
 506 602 588 680 588 808 c 0
 588 945 525 1119 386 1119 c 0
 283 1119 209 1040 209 893 c 0
EndSplineSet
EndChar

StartChar: oslash
Encoding: 248 248 269
Width: 1111
VWidth: 0
Flags: HW
LayerCount: 2
Fore
SplineSet
184 -35 m 1
 262 91 l 1
 147 183 82 313 82 460 c 0
 82 724 285 926 549 926 c 0
 629 926 707 906 776 867 c 1
 811 905 834 1008 875 1026 c 1
 906 1018 937 1002 949 970 c 1
 922 919 882 872 852 821 c 1
 969 736 1029 599 1029 456 c 0
 1029 185 832 -20 559 -20 c 0
 484 -20 411 2 348 42 c 1
 322 -13 298 -91 236 -114 c 1
 205 -104 191 -63 184 -35 c 1
354 219 m 1
 708 772 l 1
 665 830 607 860 535 860 c 0
 351 860 282 682 282 524 c 0
 282 418 301 312 354 219 c 1
762 698 m 1
 636 520 523 334 417 144 c 1
 456 98 508 62 570 62 c 0
 748 62 835 209 835 372 c 0
 835 483 815 599 762 698 c 1
EndSplineSet
EndChar

StartChar: p
Encoding: 112 112 271
Width: 1175
VWidth: 0
Flags: HW
LayerCount: 2
Fore
SplineSet
40 822 m 1
 40 856 l 1
 310 921 l 5
 378 926 l 1
 386 754 l 1
 472 850 567 926 706 926 c 0
 932 926 1093 756 1093 477 c 0
 1093 180 896 -19 637 -19 c 0
 547 -19 463 14 392 75 c 1
 392 -144 l 2
 392 -272 453 -314 576 -328 c 1
 576 -344 574 -378 574 -378 c 1
 47 -378 l 1
 47 -378 45 -344 45 -328 c 1
 148 -314 206 -261 206 -153 c 2
 206 722 l 1
 178.026 772.569 76.6279 808.265 40 822 c 1
392 677 m 1
 392 347 l 2
 392 185 486 65 652 65 c 0
 823 65 907 208 907 428 c 0
 907 680 775 796 633 796 c 0
 541 796 457 740 392 677 c 1
EndSplineSet
EndChar

StartChar: paragraph
Encoding: 182 182 272
Width: 1029
VWidth: 0
Flags: HW
LayerCount: 2
Fore
SplineSet
835 1204 m 1
 836 -112 l 2
 836 -156 1005 -134 1005 -158 c 2
 1005 -224 l 1
 744 -224 l 1
 744 1220 l 1
 604 1220 l 1
 604 -224 l 1
 313 -224 l 1
 313 -158 l 2
 313 -134 512 -155 512 -112 c 2
 512 577 l 1
 264 577 22 642 22 935 c 0
 22 1233 286 1303 535 1303 c 2
 1003 1303 l 1
 1005 1264 l 1
 973 1235 863 1251 835 1204 c 1
EndSplineSet
EndChar

StartChar: parenleft
Encoding: 40 40 273
Width: 687
VWidth: 0
Flags: HW
LayerCount: 2
Fore
SplineSet
666 -208 m 1
 613 -268 l 1
 286 -119 147 229 147 571 c 0
 147 913 285 1261 613 1409 c 1
 666 1350 l 1
 389 1187 279 878 279 571 c 0
 279 262 389 -41 666 -208 c 1
EndSplineSet
EndChar

StartChar: parenright
Encoding: 41 41 274
Width: 687
VWidth: 0
Flags: HW
LayerCount: 2
Fore
SplineSet
21 1350 m 1
 31 1376 53 1393 74 1409 c 1
 401 1261 540 913 540 571 c 0
 540 229 401 -119 74 -268 c 1
 53 -252 31 -234 21 -208 c 1
 295 -35 408 258 408 571 c 0
 408 881 296 1180 21 1350 c 1
EndSplineSet
EndChar

StartChar: percent
Encoding: 37 37 275
Width: 1772
VWidth: 0
Flags: HW
LayerCount: 2
Fore
SplineSet
583 929 m 0
 583 1133 530 1270 419 1270 c 0
 318 1270 268 1148 268 956 c 0
 268 765 321 633 434 633 c 0
 535 633 583 750 583 929 c 0
115 950 m 0
 115 1155 233 1327 423 1327 c 0
 614 1327 736 1149 736 941 c 0
 736 742 621 574 435 571 c 1
 237 571 115 745 115 950 c 0
491 -138 m 1
 459 -138 430 -125 410 -108 c 1
 436 -60 463 -14 491 34 c 1
 1020 1017 l 1
 1089 1136 1142 1315 1239 1396 c 1
 1290 1396 1312 1381 1332 1368 c 1
 1255 1238 l 1
 1127 1014 863 581 611 18 c 1
 575 -54 531 -98 491 -138 c 1
1035 358 m 0
 1035 563 1153 735 1342 735 c 0
 1533 735 1655 557 1655 349 c 0
 1655 149 1540 -18 1354 -22 c 1
 1156 -22 1035 152 1035 358 c 0
1502 337 m 0
 1502 541 1449 677 1338 677 c 0
 1238 677 1188 555 1188 363 c 0
 1188 172 1241 41 1354 41 c 0
 1454 41 1502 158 1502 337 c 0
EndSplineSet
EndChar

StartChar: period
Encoding: 46 46 276
Width: 556
VWidth: 0
Flags: HW
LayerCount: 2
Fore
SplineSet
277 251 m 0
 354 251 415 189 415 116 c 0
 415 44 354 -20 277 -20 c 0
 201 -20 140 42 140 116 c 0
 140 189 201 251 277 251 c 0
EndSplineSet
EndChar

StartChar: periodcentered
Encoding: 65554 -1 277
Width: 498
VWidth: 0
Flags: HW
LayerCount: 2
Fore
SplineSet
96 755 m 0
 96 831 164 903 249 903 c 0
 334 903 402 831 402 755 c 0
 402 680 334 607 249 607 c 0
 165 607 96 674 96 755 c 0
EndSplineSet
EndChar

StartChar: plus
Encoding: 43 43 278
Width: 1099
VWidth: 0
Flags: HW
LayerCount: 2
Fore
SplineSet
107 618 m 1
 151 635 198 639 291 639 c 2
 482 639 l 1
 482 828 l 2
 482 906 483 963 490 1012 c 1
 508 1014 529 1015 550 1015 c 0
 571 1015 590 1015 608 1012 c 1
 615 964 617 906 617 830 c 2
 617 639 l 1
 806 639 l 2
 883 639 941 636 990 629 c 1
 992 611 993 591 993 570 c 0
 993 549 992 530 990 512 c 1
 941 506 884 505 806 505 c 2
 617 505 l 1
 617 315 l 2
 617 238 614 181 607 132 c 1
 588 130 568 129 548 129 c 0
 526 129 507 130 489 132 c 1
 483 181 482 237 482 315 c 2
 482 505 l 1
 159 505 l 1
 109 535 107 568 107 618 c 1
EndSplineSet
EndChar

StartChar: plusminus
Encoding: 177 177 279
Width: 1099
VWidth: 0
Flags: HW
LayerCount: 2
Fore
SplineSet
107 618 m 1
 158 637 242 642 321 642 c 0
 384 642 445 639 482 639 c 1
 482 701 480 766 480 831 c 0
 480 892 482 954 490 1012 c 1
 510 1014 530 1015 550 1015 c 0
 569 1015 589 1015 608 1012 c 1
 617 951 619 888 619 825 c 0
 619 762 617 699 617 639 c 1
 672 639 728 640 785 640 c 0
 854 640 923 638 990 629 c 1
 992 609 993 590 993 570 c 0
 993 551 992 531 990 512 c 1
 931 505 871 503 810 503 c 0
 745 503 679 505 617 505 c 1
 617 450 618 394 618 337 c 0
 618 268 616 199 607 132 c 1
 587 130 568 129 548 129 c 0
 528 129 509 130 489 132 c 1
 482 191 480 251 480 312 c 0
 480 377 482 443 482 505 c 1
 159 505 l 1
 111 533 107 567 107 618 c 1
EndSplineSet
EndChar

StartChar: q
Encoding: 113 113 280
Width: 1132
VWidth: 0
Flags: HW
LayerCount: 2
Fore
SplineSet
790 -186 m 2
 790 144 l 1
 674 23 582 -22 474 -22 c 0
 229 -22 82 197 82 432 c 0
 82 752 282 924 548 924 c 0
 664 924 772 896 867 848 c 1
 867 885 l 1
 877 910 926 926 954 926 c 0
 970 926 975 915 975 898 c 2
 975 -138 l 2
 975 -250 1013 -309 1129 -329 c 1
 1129 -345 1127 -378 1127 -378 c 1
 610 -378 l 1
 610 -378 608 -344 608 -329 c 1
 675 -305 790 -295 790 -186 c 2
789 236 m 1
 789 624 l 1
 772 759 682 853 525 853 c 0
 360 853 263 701 263 495 c 0
 263 257 389 113 546 113 c 0
 627 113 701 149 789 236 c 1
EndSplineSet
EndChar

StartChar: question
Encoding: 63 63 281
Width: 806
VWidth: 0
Flags: HW
LayerCount: 2
Fore
SplineSet
338 358 m 1
 257 358 l 1
 250 431 225 502 225 576 c 0
 225 690 593 756 593 984 c 0
 593 1110 476 1218 352 1218 c 0
 263 1218 232 1096 144 1096 c 0
 100 1096 68 1138 68 1179 c 0
 68 1294 219 1329 324 1329 c 0
 518 1329 730 1161 730 970 c 0
 730 613 338 649 338 397 c 2
 338 358 l 1
304 236 m 0
 372 236 430 179 430 111 c 0
 430 43 371 -13 304 -13 c 0
 237 -13 181 45 181 111 c 0
 181 178 236 236 304 236 c 0
EndSplineSet
EndChar

StartChar: questiondown
Encoding: 191 191 282
Width: 806
VWidth: 0
Flags: HW
LayerCount: 2
Fore
SplineSet
460 958 m 1
 541 958 l 1
 548 885 573 814 573 740 c 0
 573 626 205 560 205 332 c 0
 205 206 322 98 446 98 c 0
 535 98 566 220 654 220 c 0
 698 220 730 178 730 137 c 0
 730 22 579 -13 474 -13 c 0
 280 -13 68 155 68 346 c 0
 68 703 460 667 460 919 c 2
 460 958 l 1
494 1080 m 0
 426 1080 368 1137 368 1205 c 0
 368 1273 427 1329 494 1329 c 0
 561 1329 617 1271 617 1205 c 0
 617 1138 562 1080 494 1080 c 0
EndSplineSet
EndChar

StartChar: quotedbl
Encoding: 34 34 283
Width: 748
VWidth: 0
Flags: HW
LayerCount: 2
Fore
SplineSet
203 753 m 1
 171 824 113 1139 113 1200 c 0
 113 1264 151 1302 215 1302 c 0
 279 1302 317 1264 317 1200 c 0
 317 1107 257 752 203 753 c 1
519 753 m 1
 486 829 430 1137 430 1200 c 0
 430 1264 468 1302 532 1302 c 0
 596 1302 634 1264 634 1200 c 0
 634 1166 582 753 519 753 c 1
EndSplineSet
EndChar

StartChar: quotedblbase
Encoding: 8222 8222 284
Width: 889
VWidth: 0
Flags: HW
LayerCount: 2
Fore
SplineSet
526 -235 m 1
 490 -179 l 1
 567 -136 669 -101 669 4 c 1
 612 86 478 35 478 170 c 0
 478 249 542 300 618 300 c 0
 735 300 798 203 798 94 c 0
 798 -66 684 -207 526 -235 c 1
135 -235 m 1
 99 -179 l 1
 176 -136 278 -101 278 4 c 1
 221 86 87 35 87 170 c 0
 87 249 151 300 227 300 c 0
 344 300 407 203 407 94 c 0
 407 -66 293 -207 135 -235 c 1
EndSplineSet
EndChar

StartChar: quotedblleft
Encoding: 8220 8220 285
Width: 962
VWidth: 0
Flags: HW
LayerCount: 2
Fore
SplineSet
804 1327 m 1
 820 1314 834 1297 840 1271 c 1
 755 1223 661 1192 661 1088 c 1
 679 1060 705 1042 747 1035 c 0
 817 1022 851 983 851 922 c 0
 851 848 796 792 712 792 c 0
 605 792 532 877 532 998 c 0
 532 1142 631 1296 804 1327 c 1
379 1327 m 1
 395 1314 409 1297 415 1271 c 1
 330 1223 236 1192 236 1088 c 1
 255 1060 280 1042 322 1035 c 0
 392 1022 427 983 427 922 c 0
 427 848 370 792 287 792 c 0
 179 792 107 877 107 998 c 0
 107 1142 206 1296 379 1327 c 1
EndSplineSet
EndChar

StartChar: quotedblright
Encoding: 8221 8221 286
Width: 968
VWidth: 0
Flags: HW
LayerCount: 2
Fore
SplineSet
593 793 m 1
 577 807 563 824 557 850 c 1
 641 898 736 928 736 1033 c 1
 717 1060 692 1078 650 1085 c 0
 580 1097 546 1137 546 1199 c 0
 546 1271 601 1328 685 1328 c 0
 792 1328 865 1244 865 1123 c 0
 865 978 765 825 593 793 c 1
162 793 m 1
 146 807 131 824 125 850 c 1
 210 898 305 928 305 1033 c 1
 286 1060 261 1078 218 1085 c 0
 148 1097 114 1137 114 1199 c 0
 114 1271 170 1328 253 1328 c 0
 361 1328 434 1244 434 1123 c 0
 434 978 334 825 162 793 c 1
EndSplineSet
EndChar

StartChar: quoteleft
Encoding: 8216 8216 287
Width: 544
VWidth: 0
Flags: HW
LayerCount: 2
Fore
SplineSet
382 1327 m 1
 398 1314 412 1297 418 1271 c 1
 334 1223 239 1192 239 1088 c 1
 258 1061 284 1042 325 1035 c 0
 396 1022 430 984 430 922 c 0
 430 848 374 792 291 792 c 0
 183 792 110 877 110 998 c 0
 110 1142 209 1296 382 1327 c 1
EndSplineSet
EndChar

StartChar: quoteright
Encoding: 8217 8217 288
Width: 544
VWidth: 0
Flags: HW
LayerCount: 2
Fore
SplineSet
165 793 m 1
 149 807 135 824 129 850 c 1
 214 898 308 928 308 1033 c 1
 289 1060 264 1078 222 1085 c 0
 152 1097 117 1137 117 1199 c 0
 117 1271 174 1328 257 1328 c 0
 365 1328 437 1244 437 1123 c 0
 437 978 338 825 165 793 c 1
EndSplineSet
EndChar

StartChar: quotesinglbase
Encoding: 8218 8218 289
Width: 572
VWidth: 0
Flags: HW
LayerCount: 2
Fore
SplineSet
195 -235 m 1
 159 -179 l 1
 236 -136 338 -101 338 4 c 1
 281 86 147 35 147 170 c 0
 147 249 211 300 287 300 c 0
 404 300 467 203 467 94 c 0
 467 -66 353 -207 195 -235 c 1
EndSplineSet
EndChar

StartChar: quotesingle
Encoding: 39 39 290
Width: 370
VWidth: 0
Flags: HW
LayerCount: 2
Fore
SplineSet
172 753 m 1
 140 828 83 1138 83 1200 c 0
 83 1264 121 1302 185 1302 c 0
 249 1302 286 1264 286 1200 c 0
 286 1106 228 752 172 753 c 1
EndSplineSet
EndChar

StartChar: r
Encoding: 114 114 291
Width: 799
VWidth: 0
Flags: HW
PickledData: "(dp1
S'com.typemytype.robofont.layerData'
p2
(dp3
S'b'
(dp4
S'name'
p5
S'r'
sS'lib'
p6
(dp7
sS'unicodes'
p8
(tsS'width'
p9
I799
sS'contours'
p10
((dp11
S'points'
p12
((dp13
S'segmentType'
p14
S'line'
p15
sS'x'
I384
sS'smooth'
p16
I00
sS'y'
I668
s(dp17
S'y'
I745
sS'x'
I457
sg16
I00
s(dp18
S'y'
I818
sS'x'
I547
sg16
I00
s(dp19
g14
S'curve'
p20
sS'x'
I650
sg16
I01
sS'y'
I818
s(dp21
S'y'
I818
sS'x'
I840
sg16
I00
s(dp22
S'y'
I657
sS'x'
I840
sg16
I00
s(dp23
g14
S'curve'
p24
sS'x'
I840
sg16
I01
sS'y'
I449
s(dp25
g14
S'line'
p26
sS'x'
I840
sg16
I01
sS'y'
I226
s(dp27
S'y'
I198
sS'x'
I840
sg16
I00
s(dp28
S'y'
I172
sS'x'
I839
sg16
I00
s(dp29
g14
S'curve'
p30
sS'x'
I835
sg16
I01
sS'y'
I149
s(dp31
S'y'
I76
sS'x'
I823
sg16
I00
s(dp32
S'y'
I70
sS'x'
I728
sg16
I00
s(dp33
g14
S'curve'
p34
sS'x'
I677
sg16
I00
sS'y'
I50
s(dp35
S'y'
I34
sS'x'
I677
sg16
I00
s(dp36
S'y'
I0
sS'x'
I679
sg16
I00
s(dp37
g14
S'curve'
p38
sS'x'
I679
sg16
I00
sS'y'
I0
s(dp39
g14
S'line'
p40
sS'x'
I1172
sg16
I00
sS'y'
I0
s(dp41
S'y'
I0
sS'x'
I1172
sg16
I00
s(dp42
S'y'
I16
sS'x'
I1173
sg16
I00
s(dp43
g14
S'curve'
p44
sS'x'
I1173
sg16
I01
sS'y'
I32
s(dp45
S'y'
I40
sS'x'
I1173
sg16
I00
s(dp46
S'y'
I48
sS'x'
I1173
sg16
I00
s(dp47
g14
S'curve'
p48
sS'x'
I1172
sg16
I00
sS'y'
I54
s(dp49
S'y'
I91
sS'x'
I1060
sg16
I00
s(dp50
S'y'
I73
sS'x'
I1027
sg16
I00
s(dp51
g14
S'curve'
p52
sS'x'
I1027
sg16
I01
sS'y'
I245
s(dp53
g14
S'line'
p54
sS'x'
I1027
sg16
I01
sS'y'
I468
s(dp55
S'y'
I512
sS'x'
I1027
sg16
I00
s(dp56
S'y'
I556
sS'x'
I1026
sg16
I00
s(dp57
g14
S'curve'
p58
sS'x'
I1024
sg16
I01
sS'y'
I599
s(dp59
S'y'
I819
sS'x'
I1015
sg16
I00
s(dp60
S'y'
I926
sS'x'
I903
sg16
I00
s(dp61
g14
S'curve'
p62
sS'x'
I712
sg16
I01
sS'y'
I926
s(dp63
S'y'
I926
sS'x'
I573
sg16
I00
s(dp64
S'y'
I847
sS'x'
I455
sg16
I00
s(dp65
g14
S'curve'
p66
sS'x'
I387
sg16
I00
sS'y'
I755
s(dp67
g14
S'line'
p68
sS'x'
I376
sg16
I00
sS'y'
I917
s(dp69
g14
S'line'
p70
sS'x'
I315
sg16
I00
sS'y'
I913
s(dp71
g14
S'line'
p72
sS'x'
I42
sg16
I00
sS'y'
I845
s(dp73
g14
S'line'
p74
sS'x'
I39
sg16
I00
sS'y'
I811
s(dp75
S'y'
I811
sS'x'
I39
sg16
I00
s(dp76
S'y'
I778
sS'x'
I172
sg16
I00
s(dp77
g14
S'curve'
p78
sS'x'
I198
sg16
I00
sS'y'
I727
s(dp79
g14
S'line'
p80
sS'x'
I198
sg16
I01
sS'y'
I185
s(dp81
S'y'
I89
sS'x'
I198
sg16
I00
s(dp82
S'y'
I75
sS'x'
I133
sg16
I00
s(dp83
g14
S'curve'
p84
sS'x'
I43
sg16
I00
sS'y'
I54
s(dp85
S'y'
I48
sS'x'
I42
sg16
I00
s(dp86
S'y'
I40
sS'x'
I42
sg16
I00
s(dp87
g14
S'curve'
p88
sS'x'
I42
sg16
I01
sS'y'
I32
s(dp89
S'y'
I16
sS'x'
I42
sg16
I00
s(dp90
S'y'
I0
sS'x'
I43
sg16
I00
s(dp91
g14
S'curve'
p92
sS'x'
I43
sg16
I00
sS'y'
I0
s(dp93
g14
S'line'
p94
sS'x'
I558
sg16
I00
sS'y'
I0
s(dp95
S'y'
I0
sS'x'
I558
sg16
I00
s(dp96
S'y'
I33
sS'x'
I560
sg16
I00
s(dp97
g14
S'curve'
p98
sS'x'
I560
sg16
I00
sS'y'
I50
s(dp99
S'y'
I61
sS'x'
I449
sg16
I00
s(dp100
S'y'
I101
sS'x'
I384
sg16
I00
s(dp101
g14
S'curve'
p102
sS'x'
I384
sg16
I01
sS'y'
I222
stp103
stp104
sS'components'
p105
(tsS'anchors'
p106
((dp107
S'y'
I900
sS'x'
I603
sg5
S'top'
p108
stp109
sss."
LayerCount: 2
Fore
SplineSet
384 633 m 1
 384 231 l 2
 384 161 392 60 565 50 c 1
 565 33 564 0 564 0 c 1
 43 0 l 1
 43 0 42 51 43 54 c 1
 156 86 198 80 198 225 c 2
 198 738 l 1
 169 788 40 820 40 820 c 1
 42 855 l 1
 308 924 l 5
 365 926 l 1
 381 732 l 1
 458 873 536 921 636 921 c 0
 719 921 778 862 778 811 c 0
 778 783 753 692 692 692 c 0
 604 692 609 794 547 794 c 0
 471 794 430 709 384 633 c 1
EndSplineSet
EndChar

StartChar: registered
Encoding: 174 174 295
Width: 1507
VWidth: 0
Flags: HW
LayerCount: 2
Fore
SplineSet
701 644 m 1
 630 644 l 1
 630 338 l 2
 630 276 702 278 745 266 c 1
 744 241 l 1
 378 241 l 1
 376 266 l 1
 424 283 485 281 485 349 c 2
 485 951 l 2
 485 1012 430 1025 384 1045 c 1
 385 1069 l 1
 746 1069 l 2
 878 1069 1064 1020 1064 857 c 0
 1064 729 948 674 838 652 c 1
 885 577 1039 302 1109 282 c 1
 1116 262 1146 273 1146 241 c 1
 947 241 l 1
 862 372 778 505 701 644 c 1
630 1018 m 1
 630 680 l 1
 753 682 910 694 910 853 c 0
 910 979 808 1024 697 1024 c 0
 675 1024 652 1022 630 1018 c 1
1435 646 m 0
 1435 262 1133 -23 753 -23 c 0
 381 -23 73 271 73 646 c 0
 73 1021 383 1314 754 1314 c 0
 1128 1314 1435 1024 1435 646 c 0
1350 627 m 0
 1350 976 1103 1249 748 1249 c 0
 419 1249 162 996 162 666 c 0
 162 313 414 41 772 41 c 0
 1096 41 1350 305 1350 627 c 0
EndSplineSet
EndChar

StartChar: ring
Encoding: 730 730 296
Width: 691
VWidth: 0
Flags: HW
LayerCount: 2
Fore
SplineSet
346 1494 m 0
 455 1494 541 1406 541 1303 c 0
 541 1199 455 1110 346 1110 c 0
 237 1110 151 1196 151 1303 c 0
 151 1406 237 1494 346 1494 c 0
346 1421 m 0
 279 1421 227 1366 227 1303 c 0
 227 1238 279 1184 346 1184 c 0
 413 1184 466 1239 466 1303 c 0
 466 1366 413 1421 346 1421 c 0
EndSplineSet
EndChar

StartChar: s
Encoding: 115 115 297
Width: 854
VWidth: 0
Flags: HW
LayerCount: 2
Fore
SplineSet
685 853 m 1
 691 631 l 1
 677 630 658 630 644 630 c 1
 610 750 538 859 407 859 c 0
 326 859 271 819 271 738 c 0
 271 634 421 575 540 512 c 0
 682 436 755 361 755 237 c 0
 755 67 619 -20 436 -20 c 0
 327 -20 205 8 132 52 c 1
 132 296 l 1
 163 300 174 301 185 301 c 1
 212 169 281 50 427 50 c 0
 523 50 597 102 597 183 c 0
 597 296 448 329 270 441 c 0
 174 501 117 573 117 684 c 0
 117 843 248 926 413 926 c 0
 517 926 611 900 685 853 c 1
EndSplineSet
EndChar

StartChar: section
Encoding: 167 167 302
Width: 856
VWidth: 0
Flags: HW
LayerCount: 2
Fore
SplineSet
195 1073 m 1
 185 1098 181 1125 181 1152 c 0
 181 1285 293 1360 417 1360 c 0
 529 1360 727 1331 727 1181 c 0
 727 1150 687 1134 662 1134 c 0
 594 1134 529 1296 413 1296 c 0
 341 1296 261 1262 261 1179 c 0
 261 997 744 830 744 381 c 0
 744 274 711 169 658 76 c 1
 673 46 683 13 683 -21 c 0
 683 -152 548 -222 432 -222 c 0
 316 -222 105 -187 105 -34 c 0
 105 8 135 31 175 31 c 0
 272 31 212 -149 429 -149 c 0
 503 -149 605 -121 605 -30 c 0
 605 203 112 344 112 757 c 0
 112 867 145 975 195 1073 c 1
234 1043 m 1
 203 997 187 928 187 872 c 0
 187 517 513 390 624 110 c 1
 626 107 l 1
 649 153 659 204 659 255 c 0
 659 523 403 846 234 1043 c 1
EndSplineSet
EndChar

StartChar: semicolon
Encoding: 59 59 303
Width: 594
VWidth: 0
Flags: HW
LayerCount: 2
Fore
SplineSet
133 -268 m 1
 124 -253 116 -236 116 -208 c 1
 220 -174 335 -153 335 -23 c 1
 316 22 286 47 233 56 c 0
 171 66 135 110 135 174 c 0
 135 252 190 311 276 311 c 0
 381 311 468 217 468 45 c 0
 468 -163 312 -264 133 -268 c 1
294 1039 m 0
 371 1039 433 976 433 904 c 0
 433 832 371 768 294 768 c 0
 218 768 157 830 157 904 c 0
 157 976 218 1039 294 1039 c 0
EndSplineSet
EndChar

StartChar: seven
Encoding: 55 55 304
Width: 856
VWidth: 0
Flags: HW
LayerCount: 2
Fore
SplineSet
457 -302 m 1
 247 -302 l 1
 341 31 499 509 688 795 c 1
 256 767 l 2
 77 755 150 549 71 549 c 0
 65 549 56 552 51 553 c 1
 74 888 l 1
 84 899 l 1
 817 899 l 1
 832 847 l 1
 656 491 544 85 457 -302 c 1
EndSplineSet
EndChar

StartChar: six
Encoding: 54 54 305
Width: 1035
VWidth: 0
Flags: HW
LayerCount: 2
Fore
SplineSet
754 393 m 0
 754 612 654 714 505 714 c 0
 448 714 385 696 321 659 c 1
 305 577 297 522 297 456 c 0
 297 183 404 49 545 49 c 0
 657 49 754 165 754 393 c 0
662 1244 m 1
 673 1247 687 1248 699 1248 c 0
 720 1248 726 1243 726 1220 c 0
 726 1208 725 1201 706 1194 c 0
 557 1135 383 949 330 728 c 1
 406 764 484 780 557 780 c 0
 781 780 954 639 954 386 c 0
 954 144 745 -20 526 -20 c 0
 219 -20 93 192 93 444 c 0
 93 785 325 1196 662 1244 c 1
EndSplineSet
EndChar

StartChar: slash
Encoding: 47 47 306
Width: 673
VWidth: 0
Flags: HW
LayerCount: 2
Fore
SplineSet
655 1378 m 1
 539 965 326 507 183 89 c 0
 165 37 144 -15 121 -65 c 1
 105 -69 89 -70 73 -70 c 2
 45 -70 l 1
 41 -54 40 -37 40 -21 c 0
 40 24 53 67 69 109 c 2
 438 1089 l 2
 465 1160 514 1370 575 1402 c 1
 604 1402 631 1395 655 1378 c 1
EndSplineSet
EndChar

StartChar: sterling
Encoding: 163 163 309
Width: 1238
VWidth: 0
Flags: HW
LayerCount: 2
Fore
SplineSet
322 64 m 0
 372 64 414 102 433 146 c 1
 396 167 345 196 301 196 c 0
 273 196 249 178 249 149 c 0
 249 103 272 64 322 64 c 0
575 565 m 1
 590 350 l 1
 590 321 577 256 570 233 c 1
 639 204 743 151 817 151 c 0
 974 151 986 303 1020 303 c 0
 1026 303 1034 300 1039 298 c 1
 1027 145 1020 -20 820 -20 c 0
 711 -20 601 46 510 100 c 1
 463 32 390 -20 305 -20 c 0
 208 -20 139 56 139 151 c 0
 139 248 210 301 303 301 c 0
 350 301 396 292 441 279 c 1
 376 565 l 1
 367 565 354 564 339 564 c 0
 292 564 227 570 227 612 c 0
 227 652 282 658 324 658 c 0
 338 658 350 657 359 657 c 1
 356 723 349 790 349 856 c 0
 349 1070 516 1201 721 1201 c 0
 845 1201 1001 1142 1001 996 c 0
 1001 926 949 892 898 892 c 0
 851 892 806 921 806 979 c 0
 806 1009 826 1034 826 1062 c 0
 826 1116 785 1155 732 1155 c 0
 600 1155 564 979 564 878 c 0
 564 804 571 730 575 657 c 1
 803 657 l 1
 808 641 809 624 809 607 c 0
 809 587 808 573 803 565 c 1
 575 565 l 1
EndSplineSet
EndChar

StartChar: t
Encoding: 116 116 310
Width: 684
VWidth: 0
Flags: HW
PickledData: "(dp1
S'com.typemytype.robofont.layerData'
p2
(dp3
S'b'
(dp4
S'name'
p5
S't'
sS'lib'
p6
(dp7
sS'unicodes'
p8
(tsS'width'
p9
I684
sS'contours'
p10
(tsS'components'
p11
(tsS'anchors'
p12
(tsss."
LayerCount: 2
Fore
SplineSet
616 824 m 1
 367 824 l 1
 367 314 l 2
 367 135 371 86 499 86 c 0
 557 86 616 101 639 108 c 1
 647 35 l 1
 599 12 529 -20 419 -20 c 0
 227 -20 180 66 180 317 c 2
 180 824 l 1
 31 824 l 1
 31 859 l 1
 175 917 230 1002 294 1101 c 0
 319 1141 330 1149 342 1149 c 0
 354 1149 365 1139 365 1110 c 2
 365 899 l 1
 616 899 l 1
 616 824 l 1
EndSplineSet
EndChar

StartChar: tbar
Encoding: 359 359 311
Width: 656
VWidth: 0
Flags: HW
LayerCount: 2
Fore
SplineSet
623 815 m 1
 374 815 l 1
 374 530 l 1
 630 530 l 1
 630 402 l 1
 374 402 l 1
 374 314 l 2
 374 135 378 86 506 86 c 0
 564 86 623 101 646 108 c 1
 654 35 l 1
 615 17 544 -20 426 -20 c 0
 234 -20 187 66 187 317 c 2
 187 402 l 1
 28 402 l 1
 28 530 l 1
 187 530 l 1
 187 815 l 1
 38 815 l 1
 38 859 l 1
 198 923 248 1021 322 1134 c 0
 326 1141 338 1149 349 1149 c 0
 361 1149 372 1139 372 1110 c 2
 372 899 l 1
 623 899 l 1
 623 815 l 1
EndSplineSet
EndChar

StartChar: thorn
Encoding: 254 254 314
Width: 1130
VWidth: 0
Flags: HW
LayerCount: 2
Fore
SplineSet
352 35 m 1
 352 -144 l 2
 352 -183 355 -215 363 -242 c 1
 378 -311 491 -304 536 -328 c 1
 536 -344 535 -360 534 -378 c 1
 8 -378 l 1
 6 -360 5 -344 5 -328 c 1
 34 -306 130 -311 144 -255 c 1
 158 -224 166 -187 166 -146 c 2
 166 1165 l 1
 138 1210 26 1227 -1 1256 c 1
 -1 1267 -1 1279 1 1290 c 1
 94 1316 187 1342 280 1369 c 1
 352 1376 l 1
 352 764 l 1
 435 855 537 926 668 926 c 0
 879 926 1048 742 1048 481 c 0
 1048 166 839 -18 592 -18 c 0
 502 -18 423 2 352 35 c 1
352 677 m 1
 352 339 l 2
 352 181 392 66 605 66 c 0
 770 66 862 205 862 423 c 0
 862 693 724 796 594 796 c 0
 501 796 416 739 352 677 c 1
EndSplineSet
EndChar

StartChar: three
Encoding: 51 51 315
Width: 935
VWidth: 0
Flags: HW
LayerCount: 2
Fore
SplineSet
491 432 m 1
 705 432 814 285 814 103 c 0
 814 -69 669 -249 382 -249 c 0
 188 -249 113 -201 113 -163 c 0
 113 -113 141 -67 187 -67 c 0
 204 -67 318 -193 359 -193 c 0
 528 -193 616 -52 616 86 c 0
 616 219 535 349 367 349 c 0
 333 349 300 344 267 336 c 1
 222 388 l 1
 355 432 572 534 572 699 c 0
 572 782 518 822 430 822 c 0
 311 822 242 754 139 711 c 1
 130 720 122 739 122 758 c 1
 125 774 l 1
 201 872 331 926 453 926 c 0
 592 926 726 858 726 703 c 0
 726 548 611 445 491 432 c 1
EndSplineSet
EndChar

StartChar: threequarters
Encoding: 190 190 316
Width: 1931
VWidth: 0
Flags: HW
LayerCount: 2
Fore
SplineSet
397 950 m 1
 562 950 676 839 676 673 c 0
 676 490 487 405 328 405 c 0
 236 405 59 433 59 554 c 0
 59 596 95 633 137 633 c 0
 171 633 205 601 205 566 c 0
 205 543 190 524 190 504 c 0
 190 465 281 447 310 447 c 0
 439 447 511 549 511 670 c 0
 511 788 457 896 325 896 c 0
 300 896 275 892 251 887 c 1
 217 925 l 1
 220 926 223 928 226 930 c 0
 307 969 477 1051 477 1150 c 0
 477 1221 445 1257 372 1257 c 0
 286 1257 231 1182 155 1182 c 0
 145 1182 142 1192 142 1201 c 0
 142 1205 144 1209 145 1213 c 1
 197 1287 302 1327 390 1327 c 0
 498 1327 595 1268 595 1151 c 0
 595 1038 505 961 397 950 c 1
1745 251 m 1
 1617 251 l 1
 1617 155 l 2
 1617 97 1703 96 1742 84 c 1
 1742 47 l 1
 1342 47 l 1
 1342 83 l 1
 1383 98 1467 94 1467 155 c 2
 1467 251 l 1
 1116 251 l 1
 1111 319 l 1
 1477 840 l 1
 1523 842 1570 846 1617 846 c 1
 1617 328 l 1
 1727 328 1709 351 1745 386 c 1
 1755 386 1767 384 1774 367 c 1
 1768 329 1754 288 1745 251 c 1
1202 325 m 1
 1465 325 l 1
 1465 716 l 1
 1202 325 l 1
643 -77 m 1
 625 -81 607 -81 589 -81 c 2
 556 -81 l 1
 574 -27 589 42 615 91 c 2
 1124 1045 l 2
 1184 1157 1248 1338 1353 1410 c 1
 1385 1410 1416 1403 1443 1386 c 1
 1365 1254 l 2
 1254 1067 1140 883 1037 691 c 0
 929 488 837 279 740 71 c 0
 716 20 676 -31 643 -77 c 1
EndSplineSet
EndChar

StartChar: threesuperior
Encoding: 65555 -1 317
Width: 762
VWidth: 0
Flags: HW
LayerCount: 2
Fore
SplineSet
404 917 m 1
 569 917 683 806 683 640 c 0
 683 457 494 372 335 372 c 0
 243 372 66 400 66 521 c 0
 66 563 102 600 144 600 c 0
 178 600 212 568 212 533 c 0
 212 510 197 491 197 471 c 0
 197 432 288 414 317 414 c 0
 446 414 518 516 518 637 c 0
 518 755 464 863 332 863 c 0
 307 863 282 859 258 854 c 1
 224 892 l 1
 227 893 230 895 233 897 c 0
 314 936 484 1018 484 1117 c 0
 484 1188 452 1224 379 1224 c 0
 293 1224 238 1149 162 1149 c 0
 152 1149 149 1159 149 1168 c 0
 149 1172 151 1176 152 1180 c 1
 204 1254 309 1294 397 1294 c 0
 505 1294 602 1235 602 1118 c 0
 602 1005 512 928 404 917 c 1
EndSplineSet
EndChar

StartChar: tilde
Encoding: 732 732 318
Width: 1121
VWidth: 0
Flags: HW
LayerCount: 2
Fore
SplineSet
285 1131 m 1
 247 1131 l 1
 251 1294 311 1364 407 1364 c 0
 519 1364 639 1254 719 1254 c 0
 762 1254 792 1290 805 1362 c 1
 843 1362 l 1
 840 1204 780 1121 682 1121 c 0
 570 1121 442 1237 364 1237 c 0
 321 1237 296 1194 285 1131 c 1
EndSplineSet
EndChar

StartChar: trademark
Encoding: 8482 8482 319
Width: 1936
VWidth: 0
Flags: HW
LayerCount: 2
Fore
SplineSet
46 1097 m 1
 66 1301 l 1
 100 1301 144 1290 157 1290 c 2
 662 1290 l 1
 744 1301 l 1
 768 1097 l 1
 745 1096 l 1
 681 1216 693 1241 545 1241 c 2
 481 1241 l 1
 481 683 l 2
 481 527 507 601 598 552 c 1
 597 528 l 1
 211 528 l 1
 211 552 l 1
 296 605 328 523 328 684 c 2
 328 1241 l 1
 307 1241 284 1242 260 1242 c 0
 166 1242 97 1185 69 1096 c 1
 46 1097 l 1
824 1289 m 1
 1081 1289 l 1
 1356 719 l 1
 1605 1289 l 1
 1870 1289 l 1
 1871 1264 l 1
 1773 1226 1751 1274 1751 1136 c 0
 1751 1061 1748 960 1748 861 c 0
 1748 766 1751 673 1762 607 c 0
 1770 557 1843 567 1879 552 c 1
 1878 528 l 1
 1489 528 l 1
 1488 552 l 1
 1582 592 1609 539 1609 670 c 2
 1609 1171 l 1
 1324 528 l 1
 1291 528 l 1
 999 1132 l 1
 995 1132 l 1
 995 683 l 2
 995 546 1031 583 1121 552 c 1
 1120 528 l 1
 818 528 l 1
 817 552 l 1
 918 594 943 537 943 685 c 2
 943 1146 l 2
 943 1268 924 1225 823 1264 c 1
 824 1289 l 1
EndSplineSet
EndChar

StartChar: tt
Encoding: 65556 -1 320
Width: 1226
VWidth: 0
Flags: HW
LayerCount: 2
Fore
SplineSet
1178 815 m 1
 929 815 l 1
 929 314 l 2
 929 135 933 86 1061 86 c 0
 1119 86 1178 101 1201 108 c 1
 1209 35 l 1
 1161 12 1091 -20 981 -20 c 0
 789 -20 742 66 742 317 c 2
 742 815 l 1
 367 815 l 1
 367 314 l 2
 367 135 371 86 499 86 c 0
 541 86 584 101 599 108 c 1
 607 35 l 1
 567 12 509 -20 419 -20 c 0
 227 -20 180 66 180 317 c 2
 180 815 l 1
 31 815 l 1
 31 859 l 1
 175 917 230 1002 294 1101 c 0
 319 1141 330 1149 342 1149 c 0
 354 1149 365 1139 365 1110 c 2
 365 899 l 1
 743 899 l 1
 795 953 826 1023 856 1101 c 1
 881 1141 892 1149 904 1149 c 0
 916 1149 927 1139 927 1110 c 2
 927 899 l 1
 1178 899 l 1
 1178 815 l 1
EndSplineSet
EndChar

StartChar: two
Encoding: 50 50 321
Width: 921
VWidth: 0
Flags: HW
LayerCount: 2
Fore
SplineSet
351 146 m 1
 589 146 l 1
 773 152 691 316 780 316 c 1
 807 313 l 1
 757 0 l 1
 132 0 l 1
 121 39 l 1
 404 375 l 2
 456 436 520 564 520 664 c 0
 520 744 480 807 362 807 c 0
 274 807 175 774 128 740 c 1
 106 813 l 1
 184 887 315 927 444 927 c 0
 596 927 728 834 728 680 c 0
 728 582 662 468 522 323 c 2
 351 146 l 1
EndSplineSet
EndChar

StartChar: twosuperior
Encoding: 65557 -1 322
Width: 766
VWidth: 0
Flags: HW
LayerCount: 2
Fore
SplineSet
231 469 m 1
 493 492 l 2
 625 503 575 658 633 658 c 0
 638 658 644 656 648 655 c 1
 631 383 l 1
 617 382 l 1
 502 382 387 383 272 383 c 0
 215 383 157 383 100 382 c 1
 89 422 l 1
 215 593 458 824 458 1048 c 0
 458 1136 427 1227 324 1227 c 0
 230 1227 177 1174 95 1151 c 1
 88 1154 82 1162 82 1170 c 0
 82 1174 84 1178 85 1182 c 1
 136 1257 254 1298 341 1298 c 0
 501 1298 639 1226 639 1050 c 0
 639 836 361 623 231 469 c 1
EndSplineSet
EndChar

StartChar: u
Encoding: 117 117 323
Width: 1191
VWidth: 0
Flags: HW
PickledData: "(dp1
S'com.typemytype.robofont.layerData'
p2
(dp3
S'b'
(dp4
S'name'
p5
S'u'
sS'lib'
p6
(dp7
sS'unicodes'
p8
(tsS'width'
p9
I1191
sS'contours'
p10
((dp11
S'points'
p12
((dp13
S'segmentType'
p14
S'line'
p15
sS'x'
I816
sS'smooth'
p16
I01
sS'y'
I181
s(dp17
S'y'
I83
sS'x'
I816
sg16
I00
s(dp18
S'y'
I72
sS'x'
I724
sg16
I00
s(dp19
g14
S'curve'
p20
sS'x'
I652
sg16
I00
sS'y'
I50
s(dp21
S'y'
I34
sS'x'
I652
sg16
I00
s(dp22
S'y'
I18
sS'x'
I652
sg16
I00
s(dp23
g14
S'curve'
p24
sS'x'
I654
sg16
I00
sS'y'
I0
s(dp25
g14
S'line'
p26
sS'x'
I1176
sg16
I00
sS'y'
I0
s(dp27
S'y'
I17
sS'x'
I1177
sg16
I00
s(dp28
S'y'
I33
sS'x'
I1177
sg16
I00
s(dp29
g14
S'curve'
p30
sS'x'
I1177
sg16
I00
sS'y'
I50
s(dp31
S'y'
I69
sS'x'
I994
sg16
I00
s(dp32
S'y'
I188
sS'x'
I1002
sg16
I00
s(dp33
g14
S'curve'
p34
sS'x'
I1002
sg16
I01
sS'y'
I220
s(dp35
g14
S'line'
p36
sS'x'
I1002
sg16
I00
sS'y'
I918
s(dp37
g14
S'line'
p38
sS'x'
I940
sg16
I00
sS'y'
I914
s(dp39
g14
S'line'
p40
sS'x'
I659
sg16
I00
sS'y'
I846
s(dp41
g14
S'line'
p42
sS'x'
I657
sg16
I00
sS'y'
I811
s(dp43
S'y'
I811
sS'x'
I657
sg16
I00
s(dp44
S'y'
I778
sS'x'
I786
sg16
I00
s(dp45
g14
S'curve'
p46
sS'x'
I816
sg16
I00
sS'y'
I727
stp47
s(dp48
g12
((dp49
g14
S'line'
p50
sS'x'
I192
sg16
I01
sS'y'
I181
s(dp51
S'y'
I83
sS'x'
I192
sg16
I00
s(dp52
S'y'
I72
sS'x'
I100
sg16
I00
s(dp53
g14
S'curve'
p54
sS'x'
I28
sg16
I00
sS'y'
I50
s(dp55
S'y'
I34
sS'x'
I28
sg16
I00
s(dp56
S'y'
I18
sS'x'
I28
sg16
I00
s(dp57
g14
S'curve'
p58
sS'x'
I30
sg16
I00
sS'y'
I0
s(dp59
g14
S'line'
p60
sS'x'
I552
sg16
I00
sS'y'
I0
s(dp61
S'y'
I17
sS'x'
I553
sg16
I00
s(dp62
S'y'
I33
sS'x'
I553
sg16
I00
s(dp63
g14
S'curve'
p64
sS'x'
I553
sg16
I00
sS'y'
I50
s(dp65
S'y'
I69
sS'x'
I370
sg16
I00
s(dp66
S'y'
I188
sS'x'
I378
sg16
I00
s(dp67
g14
S'curve'
p68
sS'x'
I378
sg16
I01
sS'y'
I220
s(dp69
g14
S'line'
p70
sS'x'
I378
sg16
I00
sS'y'
I918
s(dp71
g14
S'line'
p72
sS'x'
I316
sg16
I00
sS'y'
I914
s(dp73
g14
S'line'
p74
sS'x'
I35
sg16
I00
sS'y'
I846
s(dp75
g14
S'line'
p76
sS'x'
I33
sg16
I00
sS'y'
I811
s(dp77
S'y'
I811
sS'x'
I33
sg16
I00
s(dp78
S'y'
I778
sS'x'
I162
sg16
I00
s(dp79
g14
S'curve'
p80
sS'x'
I192
sg16
I00
sS'y'
I727
stp81
stp82
sS'components'
p83
(tsS'anchors'
p84
(tsss."
LayerCount: 2
Fore
SplineSet
821 145 m 1
 716 28 603 -20 490 -20 c 0
 233 -20 192 197 192 429 c 2
 192 735 l 5
 162 786 33 819 33 819 c 5
 35 854 l 5
 316 922 l 5
 378 926 l 5
 378 440 l 2
 378 190 419 98 554 98 c 0
 643 98 729 134 816 220 c 1
 816 735 l 5
 786 786 657 819 657 819 c 5
 659 854 l 5
 940 922 l 5
 1002 926 l 5
 1002 201 l 2
 1002 112 1079 99 1160 85 c 1
 1160 68 1157 32 1157 32 c 1
 829 -15 l 1
 821 145 l 1
EndSplineSet
EndChar

StartChar: underscore
Encoding: 95 95 331
Width: 935
VWidth: 0
Flags: HW
LayerCount: 2
Fore
SplineSet
893 -129 m 1
 859 -145 810 -147 768 -147 c 2
 102 -147 l 1
 63 -131 44 -112 44 -68 c 1
 89 -49 147 -49 196 -49 c 2
 835 -49 l 1
 872 -65 893 -88 893 -129 c 1
EndSplineSet
EndChar

StartChar: uni00AD
Encoding: 173 173 332
Width: 772
VWidth: 0
Flags: HW
LayerCount: 2
Fore
SplineSet
586 391 m 2
 151 391 l 1
 120 406 120 423 120 461 c 0
 120 485 120 506 124 525 c 1
 152 529 183 530 221 530 c 2
 586 530 l 2
 625 530 657 528 685 524 c 1
 689 504 689 482 689 458 c 0
 689 432 689 412 685 394 c 1
 658 391 625 391 586 391 c 2
EndSplineSet
EndChar

StartChar: uni030F
Encoding: 783 783 366
Width: 968
VWidth: 0
Flags: HW
LayerCount: 2
Fore
SplineSet
72 1342 m 1
 118 1366 171 1384 223 1384 c 1
 250 1352 373 1000 377 972 c 1
 370 961 356 956 343 956 c 1
 314 980 94 1296 72 1342 c 1
376 1341 m 1
 421 1367 475 1384 527 1384 c 1
 564 1335 693 1018 701 970 c 1
 693 960 681 956 669 956 c 1
 629 990 399 1294 376 1341 c 1
EndSplineSet
EndChar

StartChar: uni0311
Encoding: 785 785 367
Width: 691
VWidth: 0
Flags: HW
LayerCount: 2
Fore
SplineSet
74 997 m 1
 78 1151 163 1244 321 1244 c 0
 474 1244 567 1149 567 997 c 1
 509 997 l 1
 485 1083 402 1113 321 1113 c 0
 233 1113 168 1080 131 997 c 1
 74 997 l 1
EndSplineSet
EndChar

StartChar: uni0326
Encoding: 806 806 368
Width: 734
VWidth: 0
Flags: HW
LayerCount: 2
Fore
SplineSet
207 -238 m 0
 207 -162 268 -90 360 -90 c 0
 445 -90 526 -138 526 -312 c 0
 526 -493 374 -577 290 -577 c 0
 267 -577 248 -570 248 -539 c 0
 248 -487 373 -514 373 -386 c 1
 264 -386 207 -319 207 -238 c 0
EndSplineSet
EndChar

StartChar: uniFB00
Encoding: 64256 64256 369
Width: 1240
VWidth: 0
Flags: HW
LayerCount: 2
Fore
SplineSet
785 868 m 1
 785 965 l 2
 785 1005 788 1040 795 1069 c 1
 788 1068 781 1068 774 1068 c 0
 715 1068 687 1105 687 1150 c 0
 687 1177 701 1198 701 1217 c 0
 701 1246 635 1256 587 1256 c 0
 516 1256 411 1223 411 947 c 2
 411 868 l 1
 785 868 l 1
62 809 m 1
 62 868 l 1
 205 868 l 1
 205 965 l 2
 205 1225 420 1297 576 1297 c 0
 685 1297 821 1272 861 1208 c 1
 921 1273 1009 1297 1096 1297 c 0
 1227 1297 1354 1263 1354 1164 c 0
 1354 1112 1323 1068 1254 1068 c 0
 1195 1068 1167 1105 1167 1150 c 0
 1167 1177 1181 1198 1181 1217 c 0
 1181 1248 1154 1256 1107 1256 c 0
 1035 1256 991 1223 991 947 c 2
 991 868 l 1
 1202 868 l 1
 1202 809 l 1
 991 809 l 1
 991 110 l 2
 991 27 1169 66 1169 17 c 0
 1169 16 1168 10 1165 0 c 1
 629 0 l 1
 626 10 625 16 625 17 c 0
 625 66 785 27 785 110 c 2
 785 809 l 1
 411 809 l 1
 411 110 l 2
 411 27 589 66 589 17 c 0
 589 16 588 10 585 0 c 1
 49 0 l 1
 46 10 45 16 45 17 c 0
 45 66 205 27 205 110 c 2
 205 809 l 1
 62 809 l 1
EndSplineSet
EndChar

StartChar: uniFB01
Encoding: 64257 64257 370
Width: 1219
VWidth: 0
Flags: HW
LayerCount: 2
Fore
SplineSet
780 1104 m 0
 780 1131 786 1147 794 1162 c 1
 791 1195 767 1256 627 1256 c 0
 528 1256 411 1223 411 947 c 2
 411 868 l 1
 1025 868 l 1
 1025 120 l 2
 1025 28 1203 66 1203 18 c 0
 1203 12 1202 6 1199 0 c 1
 638 0 l 1
 635 9 634 14 634 17 c 0
 634 74 819 32 819 126 c 2
 819 809 l 1
 411 809 l 1
 411 110 l 2
 411 27 589 66 589 17 c 0
 589 16 588 10 585 0 c 1
 49 0 l 1
 46 10 45 16 45 17 c 0
 45 66 205 27 205 110 c 2
 205 809 l 1
 62 809 l 1
 62 868 l 1
 205 868 l 1
 205 965 l 2
 205 1225 416 1297 616 1297 c 0
 735 1297 1025 1278 1025 1109 c 0
 1025 1037 972 983 901 983 c 0
 833 983 780 1036 780 1104 c 0
EndSplineSet
EndChar

StartChar: uniFB02
Encoding: 64258 64258 371
Width: 1219
VWidth: 0
Flags: HW
LayerCount: 2
Fore
SplineSet
817 868 m 1
 817 1016 l 2
 817 1059 821 1096 821 1128 c 0
 821 1209 796 1256 627 1256 c 0
 528 1256 411 1223 411 947 c 2
 411 868 l 1
 817 868 l 1
818 126 m 2
 817 809 l 1
 411 809 l 1
 411 110 l 2
 411 27 589 66 589 17 c 0
 589 16 588 10 585 0 c 1
 49 0 l 1
 46 10 45 16 45 17 c 0
 45 66 205 27 205 110 c 2
 205 809 l 1
 62 809 l 1
 62 868 l 1
 205 868 l 1
 205 965 l 2
 205 1225 416 1297 616 1297 c 0
 981 1297 1026 1208 1026 1123 c 0
 1026 936 1025 769 1025 622 c 2
 1025 120 l 2
 1025 36 1203 66 1203 18 c 0
 1203 12 1202 6 1199 0 c 1
 638 0 l 1
 635 8 634 10 634 17 c 0
 634 73 818 31 818 126 c 2
EndSplineSet
EndChar

StartChar: uniFB03
Encoding: 64259 64259 372
Width: 1804
VWidth: 0
Flags: HW
LayerCount: 2
Fore
SplineSet
790 868 m 1
 790 965 l 2
 790 1004 794 1037 803 1068 c 1
 752 1073 727 1107 727 1150 c 0
 727 1177 741 1198 741 1217 c 0
 741 1246 664 1256 617 1256 c 0
 545 1256 411 1223 411 947 c 2
 411 868 l 1
 790 868 l 1
1365 1104 m 0
 1365 1131 1371 1147 1379 1162 c 1
 1376 1195 1352 1256 1212 1256 c 0
 1113 1256 996 1223 996 947 c 2
 996 868 l 1
 1610 868 l 1
 1610 120 l 2
 1610 28 1788 66 1788 18 c 0
 1788 12 1787 6 1784 0 c 1
 1223 0 l 1
 1220 9 1219 14 1219 17 c 0
 1219 74 1404 32 1404 126 c 2
 1404 809 l 1
 996 809 l 1
 996 110 l 2
 996 27 1174 66 1174 17 c 0
 1174 16 1173 10 1170 0 c 1
 634 0 l 1
 631 10 630 16 630 17 c 0
 630 66 790 27 790 110 c 2
 790 809 l 1
 411 809 l 1
 411 110 l 2
 411 27 589 66 589 17 c 0
 589 16 588 10 585 0 c 1
 49 0 l 1
 46 10 45 16 45 17 c 0
 45 66 205 27 205 110 c 2
 205 809 l 1
 62 809 l 1
 62 868 l 1
 205 868 l 1
 205 965 l 2
 205 1225 451 1297 606 1297 c 0
 714 1297 851 1274 897 1212 c 1
 977 1275 1090 1297 1201 1297 c 0
 1320 1297 1610 1278 1610 1109 c 0
 1610 1037 1557 983 1486 983 c 0
 1418 983 1365 1036 1365 1104 c 0
EndSplineSet
EndChar

StartChar: uniFB04
Encoding: 64260 64260 373
Width: 1805
VWidth: 0
Flags: HW
LayerCount: 2
Fore
SplineSet
791 868 m 1
 791 965 l 2
 791 1004 795 1037 804 1068 c 1
 752 1072 727 1107 727 1150 c 0
 727 1177 741 1198 741 1217 c 0
 741 1246 664 1256 617 1256 c 0
 545 1256 411 1223 411 947 c 2
 411 868 l 1
 791 868 l 1
1403 868 m 1
 1403 1016 l 2
 1403 1071 1415 1117 1415 1156 c 0
 1415 1219 1384 1256 1213 1256 c 0
 1114 1256 997 1223 997 947 c 2
 997 868 l 1
 1403 868 l 1
1404 126 m 2
 1403 809 l 1
 997 809 l 1
 997 110 l 2
 997 27 1175 66 1175 17 c 0
 1175 16 1174 10 1171 0 c 1
 635 0 l 1
 632 10 631 16 631 17 c 0
 631 66 791 27 791 110 c 2
 791 809 l 1
 411 809 l 1
 411 110 l 2
 411 27 589 66 589 17 c 0
 589 16 588 10 585 0 c 1
 49 0 l 1
 46 10 45 16 45 17 c 0
 45 66 205 27 205 110 c 2
 205 809 l 1
 62 809 l 1
 62 868 l 1
 205 868 l 1
 205 965 l 2
 205 1225 451 1297 606 1297 c 0
 714 1297 851 1274 898 1211 c 1
 978 1275 1092 1297 1202 1297 c 0
 1321 1297 1611 1278 1611 1109 c 2
 1611 120 l 2
 1611 28 1789 66 1789 18 c 0
 1789 12 1788 6 1785 0 c 1
 1224 0 l 1
 1221 8 1220 10 1220 17 c 0
 1220 27 1225 34 1235 39 c 0
 1283.73 60.6566 1404 49.4596 1404 126 c 2
EndSplineSet
EndChar

StartChar: v
Encoding: 118 118 376
Width: 987
VWidth: 0
Flags: HW
LayerCount: 2
Fore
SplineSet
794 706 m 1
 484 -12 l 1
 476 -16 466 -18 454 -18 c 0
 441 -18 431 -16 424 -12 c 1
 118 724 l 2
 70 840 50 813 -23 847 c 1
 -23 899 l 1
 427 899 l 1
 428 882 432 860 432 845 c 1
 365 827 303 810 303 760 c 0
 303 752 305 743 308 733 c 2
 512 230 l 1
 684 649 l 2
 699 686 712 728 712 755 c 1
 708 805 661 824 582 843 c 1
 581 849 581 858 581 866 c 0
 581 883 582 899 582 899 c 1
 954 899 l 1
 956 882 956 866 956 848 c 1
 909 818 845 821 794 706 c 1
EndSplineSet
EndChar

StartChar: w
Encoding: 119 119 377
Width: 1425
VWidth: 0
Flags: HW
LayerCount: 2
Fore
SplineSet
297 726 m 0
 297 723 297 722 298 719 c 2
 483 243 l 1
 666 688 l 1
 643 769 592 846 498 851 c 1
 500 899 l 1
 942 899 l 1
 943 882 944 867 944 851 c 1
 894 827 829 825 829 768 c 0
 829 749 837 725 847 698 c 2
 1010 251 l 1
 1166 672 l 2
 1176 698 1185 727 1185 754 c 0
 1185 830 1141 825 1064 848 c 1
 1063 855 1062 863 1062 872 c 0
 1062 881 1063 890 1064 899 c 1
 1415 899 l 1
 1415 846 l 1
 1356 838 1277 768 1257 714 c 2
 987 -14 l 1
 980 -18 970 -20 957 -20 c 0
 944 -20 934 -18 926 -14 c 1
 699 596 l 1
 458 -14 l 1
 450 -18 440 -20 427 -20 c 0
 413 -20 402 -18 395 -14 c 1
 116 699 l 2
 85 778 62 832 -22 850 c 1
 -20 899 l 1
 392 899 l 1
 393 882 393 867 393 851 c 1
 343 834 292 813 292 758 c 0
 292 749 293 738 297 726 c 0
EndSplineSet
EndChar

StartChar: x
Encoding: 120 120 378
Width: 1115
VWidth: 0
Flags: HW
LayerCount: 2
Fore
SplineSet
224 152 m 2
 471 431 l 1
 204 772 l 2
 166 821 105 836 75 851 c 1
 75 866 76 899 76 899 c 1
 519 899 l 1
 519 899 520 866 520 851 c 1
 471 836 432 811 432 779 c 0
 432 768 436 761 441 748 c 1
 581 561 l 1
 703 710 l 2
 724 736 734 756 734 774 c 0
 734 809 693 839 633 848 c 1
 633 899 l 1
 1003 899 l 1
 1003 899 1004 866 1004 850 c 1
 963 833 890 819 836 753 c 2
 630 501 l 1
 900 159 l 2
 959 84 982 75 1055 47 c 1
 1055 33 1053 0 1053 0 c 1
 576 0 l 1
 576 0 575 32 575 48 c 1
 619 71 693 75 693 115 c 0
 693 129 685 146 668 165 c 1
 512 376 l 1
 376 225 l 2
 346 192 320 143 320 113 c 0
 320 77 376 63 435 51 c 1
 436 45 436 38 436 30 c 0
 436 15 435 0 435 0 c 1
 52 0 l 1
 52 0 50 31 50 48 c 1
 84 67 167 87 224 152 c 2
EndSplineSet
EndChar

StartChar: y
Encoding: 121 121 379
Width: 1000
VWidth: 0
Flags: HW
PickledData: "(dp1
S'com.typemytype.robofont.layerData'
p2
(dp3
S'b'
(dp4
S'name'
p5
S'y'
sS'lib'
p6
(dp7
sS'unicodes'
p8
(tsS'width'
p9
I1000
sS'contours'
p10
((dp11
S'points'
p12
((dp13
S'segmentType'
p14
S'line'
p15
sS'x'
F470
sS'smooth'
p16
I00
sS'y'
F0
s(dp17
S'y'
F-129
sS'x'
F429
sg16
I00
s(dp18
S'y'
F-257
sS'x'
F384
sg16
I00
s(dp19
g14
S'curve'
p20
sS'x'
F302
sg16
I01
sS'y'
F-257
s(dp21
S'y'
F-257
sS'x'
F238
sg16
I00
s(dp22
S'y'
F-186
sS'x'
F239
sg16
I00
s(dp23
g14
S'curve'
p24
sS'x'
F164
sg16
I01
sS'y'
F-186
s(dp25
S'y'
F-186
sS'x'
F110
sg16
I00
s(dp26
S'y'
F-224
sS'x'
F65
sg16
I00
s(dp27
g14
S'curve'
p28
sS'x'
F65
sg16
I01
sS'y'
F-279
s(dp29
S'y'
F-351
sS'x'
F65
sg16
I00
s(dp30
S'y'
F-395
sS'x'
F131
sg16
I00
s(dp31
g14
S'curve'
p32
sS'x'
F219
sg16
I01
sS'y'
F-395
s(dp33
S'y'
F-395
sS'x'
F351
sg16
I00
s(dp34
S'y'
F-301
sS'x'
F423
sg16
I00
s(dp35
g14
S'curve'
p36
sS'x'
F477
sg16
I01
sS'y'
F-167
s(dp37
g14
S'line'
p38
sS'x'
F832
sg16
I00
sS'y'
F707
s(dp39
S'y'
F827
sS'x'
F866
sg16
I00
s(dp40
S'y'
F812
sS'x'
F936
sg16
I00
s(dp41
g14
S'curve'
p42
sS'x'
F981
sg16
I00
sS'y'
F848
s(dp43
S'y'
F866
sS'x'
F981
sg16
I00
s(dp44
S'y'
F899
sS'x'
F980
sg16
I00
s(dp45
g14
S'curve'
p46
sS'x'
F980
sg16
I00
sS'y'
F899
s(dp47
g14
S'line'
p48
sS'x'
F613
sg16
I00
sS'y'
F899
s(dp49
S'y'
F899
sS'x'
F613
sg16
I00
s(dp50
S'y'
F883
sS'x'
F612
sg16
I00
s(dp51
g14
S'curve'
p52
sS'x'
F612
sg16
I01
sS'y'
F866
s(dp53
S'y'
F858
sS'x'
F612
sg16
I00
s(dp54
S'y'
F849
sS'x'
F612
sg16
I00
s(dp55
g14
S'curve'
p56
sS'x'
F613
sg16
I00
sS'y'
F843
s(dp57
S'y'
F828
sS'x'
F702
sg16
I00
s(dp58
S'y'
F801
sS'x'
F743
sg16
I00
s(dp59
g14
S'curve'
p60
sS'x'
F743
sg16
I01
sS'y'
F743
s(dp61
S'y'
F723
sS'x'
F743
sg16
I00
s(dp62
S'y'
F701
sS'x'
F738
sg16
I00
s(dp63
g14
S'curve'
p64
sS'x'
F728
sg16
I01
sS'y'
F675
s(dp65
g14
S'line'
p66
sS'x'
F559
sg16
I00
sS'y'
F227
s(dp67
g14
S'line'
p68
sS'x'
F352
sg16
I00
sS'y'
F721
s(dp69
S'y'
F743
sS'x'
F345
sg16
I00
s(dp70
S'y'
F762
sS'x'
F339
sg16
I00
s(dp71
g14
S'curve'
p72
sS'x'
F339
sg16
I01
sS'y'
F776
s(dp73
S'y'
F810
sS'x'
F339
sg16
I00
s(dp74
S'y'
F826
sS'x'
F366
sg16
I00
s(dp75
g14
S'curve'
p76
sS'x'
F422
sg16
I00
sS'y'
F830
s(dp77
S'y'
F840
sS'x'
F437
sg16
I00
s(dp78
S'y'
F849
sS'x'
F474
sg16
I00
s(dp79
g14
S'curve'
p80
sS'x'
F474
sg16
I01
sS'y'
F867
s(dp81
S'y'
F874
sS'x'
F474
sg16
I00
s(dp82
S'y'
F899
sS'x'
F469
sg16
I00
s(dp83
g14
S'curve'
p84
sS'x'
F469
sg16
I00
sS'y'
F899
s(dp85
g14
S'line'
p86
sS'x'
F0
sg16
I00
sS'y'
F899
s(dp87
g14
S'line'
p88
sS'x'
F0
sg16
I00
sS'y'
F847
s(dp89
S'y'
F818
sS'x'
F70
sg16
I00
s(dp90
S'y'
F857
sS'x'
F94
sg16
I00
s(dp91
g14
S'curve'
p92
sS'x'
F158
sg16
I01
sS'y'
F712
stp93
stp94
sS'components'
p95
(tsS'anchors'
p96
((dp97
S'y'
F900
sS'x'
F490
sg5
S'top'
p98
stp99
sss."
LayerCount: 2
Fore
SplineSet
470 0 m 1
 158 712 l 2
 94 857 46 831 0 847 c 1
 0 899 l 1
 469 899 l 1
 469 899 480 843 474 842 c 0
 400 828 346 814 346 767 c 0
 346 753 352 727 359 705 c 1
 557 212 l 1
 728 675 l 2
 738 701 743 723 743 743 c 0
 743 801 702 828 613 843 c 1
 612 849 612 858 612 866 c 0
 612 883 613 899 613 899 c 1
 980 899 l 1
 980 899 981 866 981 848 c 1
 936 812 866 827 832 707 c 1
 477 -167 l 2
 423 -301 351 -395 219 -395 c 0
 131 -395 65 -351 65 -279 c 0
 65 -226.43 107.939 -185.736 158.888 -185.736 c 0
 161.242 -185.736 163.614 -185.823 166 -186 c 0
 253 -192 238 -271 302 -271 c 0
 368 -271 404 -171 470 0 c 1
EndSplineSet
EndChar

StartChar: yen
Encoding: 165 165 382
Width: 1340
VWidth: 0
Flags: HW
LayerCount: 2
Fore
SplineSet
370 303 m 1
 540 303 l 1
 540 395 l 1
 484 394 433 391 389 391 c 0
 304 391 249 401 249 452 c 0
 249 480 266 487 463 487 c 2
 540 487 l 1
 540 530 l 1
 260 1030 l 2
 241 1064 46 1146 46 1159 c 0
 46 1160 47 1166 50 1176 c 1
 676 1176 l 1
 679 1169 680 1163 680 1158 c 0
 680 1118 491 1110 491 1059 c 0
 491 1053 493 1047 496 1040 c 2
 726 630 l 1
 940 1040 l 2
 944 1047 946 1053 946 1060 c 0
 946 1109 821 1103 762 1148 c 0
 759 1150 758 1154 758 1159 c 0
 758 1160 759 1166 762 1176 c 1
 1258 1176 l 1
 1261 1169 1262 1162 1262 1157 c 0
 1262 1140 1204 1124 1171 1119 c 0
 1099 1107 1050 1090 1021 1040 c 2
 755 580 l 1
 755 487 l 1
 984 487 l 2
 1013 487 1087 479 1087 434 c 0
 1087 415 1058 393 1006 393 c 2
 755 393 l 1
 755 307 l 1
 1011 307 l 2
 1064 307 1088 285 1088 265 c 0
 1088 221 1034 210 995 210 c 2
 755 210 l 1
 755 124 l 2
 755 21 988 73 988 17 c 0
 988 14 987 9 984 0 c 1
 314 0 l 1
 311 7 309 13 309 18 c 0
 309 84 540 14 540 130 c 2
 540 210 l 1
 463 210 l 2
 266 210 249 227 249 254 c 0
 249 283 271 301 370 303 c 1
EndSplineSet
EndChar

StartChar: z
Encoding: 122 122 383
Width: 949
VWidth: 0
Flags: HW
LayerCount: 2
Fore
SplineSet
874 840 m 1
 329 60 l 1
 523 60 l 2
 588 60 643 71 694 86 c 0
 771 109 793 232 840 279 c 1
 857 279 874 277 891 277 c 1
 862 -11 l 1
 862 -11 737 0 703 0 c 2
 95 0 l 1
 81 33 l 1
 658 838 l 1
 489 838 l 2
 445 838 402 838 364 829 c 1
 274 818 238 707 175 662 c 1
 130 664 l 1
 151 925 l 1
 220 899 276 899 318 899 c 2
 819 899 l 1
 838 898 873 895 874 895 c 1
 874 840 l 1
EndSplineSet
EndChar

StartChar: zero
Encoding: 48 48 387
Width: 1156
VWidth: 0
Flags: HW
LayerCount: 2
Fore
SplineSet
580 -20 m 0
 248 -20 84 218 84 455 c 0
 84 689 248 926 576 926 c 0
 906 926 1072 688 1072 451 c 0
 1072 217 909 -20 580 -20 c 0
593 858 m 0
 385 858 283 655 283 456 c 0
 283 264 378 74 561 74 c 0
 774 74 868 264 868 459 c 0
 868 657 768 858 593 858 c 0
EndSplineSet
EndChar
